<?xml version="1.0" encoding="utf-8" standalone="no"?>
<!DOCTYPE svg PUBLIC "-//W3C//DTD SVG 1.1//EN"
  "http://www.w3.org/Graphics/SVG/1.1/DTD/svg11.dtd">
<!-- Created with matplotlib (https://matplotlib.org/) -->
<svg height="360pt" version="1.1" viewBox="0 0 720 360" width="720pt" xmlns="http://www.w3.org/2000/svg" xmlns:xlink="http://www.w3.org/1999/xlink">
 <metadata>
  <rdf:RDF xmlns:cc="http://creativecommons.org/ns#" xmlns:dc="http://purl.org/dc/elements/1.1/" xmlns:rdf="http://www.w3.org/1999/02/22-rdf-syntax-ns#">
   <cc:Work>
    <dc:type rdf:resource="http://purl.org/dc/dcmitype/StillImage"/>
    <dc:date>2021-03-27T00:43:32.443363</dc:date>
    <dc:format>image/svg+xml</dc:format>
    <dc:creator>
     <cc:Agent>
      <dc:title>Matplotlib v3.3.4, https://matplotlib.org/</dc:title>
     </cc:Agent>
    </dc:creator>
   </cc:Work>
  </rdf:RDF>
 </metadata>
 <defs>
  <style type="text/css">*{stroke-linecap:butt;stroke-linejoin:round;}</style>
 </defs>
 <g id="figure_1">
  <g id="patch_1">
   <path d="M 0 360 
L 720 360 
L 720 0 
L 0 0 
z
" style="fill:#ffffff;"/>
  </g>
  <g id="axes_1">
   <g id="patch_2">
    <path d="M 90 320.4 
L 343.636364 320.4 
L 343.636364 43.2 
L 90 43.2 
z
" style="fill:#ffffff;"/>
   </g>
   <g id="PolyCollection_1">
    <path clip-path="url(#p6455595cba)" d="M 175.390043 307.8 
L 104.527312 307.8 
L 103.517976 306.797245 
L 102.703336 305.79449 
L 102.09552 304.791736 
L 101.702719 303.788981 
L 101.528926 302.786226 
L 101.573805 301.783471 
L 101.832709 300.780716 
L 102.296829 299.777961 
L 102.953483 298.775207 
L 103.786526 297.772452 
L 104.77686 296.769697 
L 105.903038 295.766942 
L 107.141912 294.764187 
L 108.469321 293.761433 
L 109.860786 292.758678 
L 111.292171 291.755923 
L 112.74031 290.753168 
L 114.18356 289.750413 
L 115.602274 288.747658 
L 116.979174 287.744904 
L 118.299625 286.742149 
L 119.551798 285.739394 
L 120.72674 284.736639 
L 121.818334 283.733884 
L 122.823183 282.731129 
L 123.740415 281.728375 
L 124.571428 280.72562 
L 125.319591 279.722865 
L 125.989918 278.72011 
L 126.588721 277.717355 
L 127.123263 276.714601 
L 127.601431 275.711846 
L 128.031411 274.709091 
L 128.421407 273.706336 
L 128.779385 272.703581 
L 129.112858 271.700826 
L 129.428705 270.698072 
L 129.733038 269.695317 
L 130.031101 268.692562 
L 130.327206 267.689807 
L 130.624709 266.687052 
L 130.92601 265.684298 
L 131.232586 264.681543 
L 131.545044 263.678788 
L 131.863197 262.676033 
L 132.186151 261.673278 
L 132.512413 260.670523 
L 132.839997 259.667769 
L 133.166544 258.665014 
L 133.489437 257.662259 
L 133.805918 256.659504 
L 134.113196 255.656749 
L 134.408556 254.653994 
L 134.689445 253.65124 
L 134.953559 252.648485 
L 135.198904 251.64573 
L 135.423853 250.642975 
L 135.62718 249.64022 
L 135.808082 248.637466 
L 135.966184 247.634711 
L 136.101531 246.631956 
L 136.214567 245.629201 
L 136.306101 244.626446 
L 136.37727 243.623691 
L 136.429486 242.620937 
L 136.464385 241.618182 
L 136.483773 240.615427 
L 136.489574 239.612672 
L 136.483773 238.609917 
L 136.468369 237.607163 
L 136.445332 236.604408 
L 136.416569 235.601653 
L 136.383886 234.598898 
L 136.348974 233.596143 
L 136.313387 232.593388 
L 136.278535 231.590634 
L 136.245681 230.587879 
L 136.215943 229.585124 
L 136.190299 228.582369 
L 136.169598 227.579614 
L 136.154571 226.57686 
L 136.145842 225.574105 
L 136.143943 224.57135 
L 136.149319 223.568595 
L 136.162345 222.56584 
L 136.183328 221.563085 
L 136.212514 220.560331 
L 136.25009 219.557576 
L 136.296183 218.554821 
L 136.350859 217.552066 
L 136.414119 216.549311 
L 136.485893 215.546556 
L 136.566032 214.543802 
L 136.654307 213.541047 
L 136.750401 212.538292 
L 136.853905 211.535537 
L 136.964318 210.532782 
L 137.081045 209.530028 
L 137.203403 208.527273 
L 142.713953 208.527273 
L 142.713953 208.527273 
L 142.836311 209.530028 
L 142.953038 210.532782 
L 143.06345 211.535537 
L 143.166955 212.538292 
L 143.263049 213.541047 
L 143.351324 214.543802 
L 143.431463 215.546556 
L 143.503236 216.549311 
L 143.566496 217.552066 
L 143.621172 218.554821 
L 143.667265 219.557576 
L 143.704841 220.560331 
L 143.734027 221.563085 
L 143.75501 222.56584 
L 143.768036 223.568595 
L 143.773413 224.57135 
L 143.771513 225.574105 
L 143.762785 226.57686 
L 143.747758 227.579614 
L 143.727057 228.582369 
L 143.701412 229.585124 
L 143.671674 230.587879 
L 143.63882 231.590634 
L 143.603968 232.593388 
L 143.568381 233.596143 
L 143.533469 234.598898 
L 143.500787 235.601653 
L 143.472023 236.604408 
L 143.448987 237.607163 
L 143.433582 238.609917 
L 143.427781 239.612672 
L 143.433582 240.615427 
L 143.452971 241.618182 
L 143.48787 242.620937 
L 143.540085 243.623691 
L 143.611254 244.626446 
L 143.702789 245.629201 
L 143.815824 246.631956 
L 143.951171 247.634711 
L 144.109273 248.637466 
L 144.290175 249.64022 
L 144.493503 250.642975 
L 144.718452 251.64573 
L 144.963797 252.648485 
L 145.22791 253.65124 
L 145.508799 254.653994 
L 145.804159 255.656749 
L 146.111438 256.659504 
L 146.427918 257.662259 
L 146.750811 258.665014 
L 147.077358 259.667769 
L 147.404942 260.670523 
L 147.731204 261.673278 
L 148.054159 262.676033 
L 148.372311 263.678788 
L 148.684769 264.681543 
L 148.991345 265.684298 
L 149.292646 266.687052 
L 149.590149 267.689807 
L 149.886254 268.692562 
L 150.184317 269.695317 
L 150.48865 270.698072 
L 150.804498 271.700826 
L 151.13797 272.703581 
L 151.495949 273.706336 
L 151.885944 274.709091 
L 152.315924 275.711846 
L 152.794092 276.714601 
L 153.328635 277.717355 
L 153.927437 278.72011 
L 154.597764 279.722865 
L 155.345928 280.72562 
L 156.176941 281.728375 
L 157.094172 282.731129 
L 158.099021 283.733884 
L 159.190615 284.736639 
L 160.365557 285.739394 
L 161.617731 286.742149 
L 162.938181 287.744904 
L 164.315081 288.747658 
L 165.733795 289.750413 
L 167.177046 290.753168 
L 168.625184 291.755923 
L 170.056569 292.758678 
L 171.448034 293.761433 
L 172.775444 294.764187 
L 174.014317 295.766942 
L 175.140495 296.769697 
L 176.13083 297.772452 
L 176.963872 298.775207 
L 177.620526 299.777961 
L 178.084646 300.780716 
L 178.34355 301.783471 
L 178.38843 302.786226 
L 178.214637 303.788981 
L 177.821836 304.791736 
L 177.21402 305.79449 
L 176.399379 306.797245 
L 175.390043 307.8 
z
" style="fill:#1f77b4;fill-opacity:0.3;"/>
   </g>
   <g id="PolyCollection_2">
    <path clip-path="url(#p6455595cba)" d="M 304.638555 279.8 
L 282.716817 279.8 
L 281.960193 277.537374 
L 281.172817 275.274747 
L 280.354779 273.012121 
L 279.50653 270.749495 
L 278.628973 268.486869 
L 277.723549 266.224242 
L 276.792323 263.961616 
L 275.83805 261.69899 
L 274.864234 259.436364 
L 273.875164 257.173737 
L 272.875925 254.911111 
L 271.872379 252.648485 
L 270.871126 250.385859 
L 269.879426 248.123232 
L 268.905089 245.860606 
L 267.956344 243.59798 
L 267.041675 241.335354 
L 266.169636 239.072727 
L 265.34865 236.810101 
L 264.586792 234.547475 
L 263.891578 232.284848 
L 263.269742 230.022222 
L 262.727038 227.759596 
L 262.268048 225.49697 
L 261.896023 223.234343 
L 261.612748 220.971717 
L 261.418451 218.709091 
L 261.311741 216.446465 
L 261.289599 214.183838 
L 261.347406 211.921212 
L 261.479015 209.658586 
L 261.67687 207.39596 
L 261.932151 205.133333 
L 262.234966 202.870707 
L 262.574564 200.608081 
L 262.939568 198.345455 
L 263.31823 196.082828 
L 263.698687 193.820202 
L 264.069221 191.557576 
L 264.418512 189.294949 
L 264.735877 187.032323 
L 265.011495 184.769697 
L 265.236598 182.507071 
L 265.403646 180.244444 
L 265.506459 177.981818 
L 265.540325 175.719192 
L 265.502064 173.456566 
L 265.390066 171.193939 
L 265.204287 168.931313 
L 264.946216 166.668687 
L 264.618811 164.406061 
L 264.226406 162.143434 
L 263.774593 159.880808 
L 263.27009 157.618182 
L 262.720583 155.355556 
L 262.134563 153.092929 
L 261.52115 150.830303 
L 260.889921 148.567677 
L 260.250725 146.305051 
L 259.613516 144.042424 
L 258.988183 141.779798 
L 258.384394 139.517172 
L 257.811453 137.254545 
L 257.278168 134.991919 
L 256.792743 132.729293 
L 256.362677 130.466667 
L 255.994691 128.20404 
L 255.694669 125.941414 
L 255.467616 123.678788 
L 255.317638 121.416162 
L 255.247934 119.153535 
L 255.260805 116.890909 
L 255.357678 114.628283 
L 255.539139 112.365657 
L 255.804978 110.10303 
L 256.15424 107.840404 
L 256.585278 105.577778 
L 257.09582 103.315152 
L 257.683024 101.052525 
L 258.343543 98.789899 
L 259.073585 96.527273 
L 259.868967 94.264646 
L 260.725172 92.00202 
L 261.637401 89.739394 
L 262.600615 87.476768 
L 263.609579 85.214141 
L 264.658906 82.951515 
L 265.743087 80.688889 
L 266.85653 78.426263 
L 267.993594 76.163636 
L 269.148619 73.90101 
L 270.315961 71.638384 
L 271.490029 69.375758 
L 272.665312 67.113131 
L 273.836423 64.850505 
L 274.998133 62.587879 
L 276.145408 60.325253 
L 277.27345 58.062626 
L 278.377732 55.8 
L 308.97764 55.8 
L 308.97764 55.8 
L 310.081922 58.062626 
L 311.209964 60.325253 
L 312.357239 62.587879 
L 313.518949 64.850505 
L 314.69006 67.113131 
L 315.865343 69.375758 
L 317.03941 71.638384 
L 318.206753 73.90101 
L 319.361778 76.163636 
L 320.498842 78.426263 
L 321.612285 80.688889 
L 322.696466 82.951515 
L 323.745793 85.214141 
L 324.754757 87.476768 
L 325.717971 89.739394 
L 326.6302 92.00202 
L 327.486405 94.264646 
L 328.281787 96.527273 
L 329.011828 98.789899 
L 329.672348 101.052525 
L 330.259552 103.315152 
L 330.770094 105.577778 
L 331.201132 107.840404 
L 331.550394 110.10303 
L 331.816233 112.365657 
L 331.997694 114.628283 
L 332.094567 116.890909 
L 332.107438 119.153535 
L 332.037734 121.416162 
L 331.887756 123.678788 
L 331.660703 125.941414 
L 331.360681 128.20404 
L 330.992695 130.466667 
L 330.562629 132.729293 
L 330.077203 134.991919 
L 329.543919 137.254545 
L 328.970978 139.517172 
L 328.367189 141.779798 
L 327.741856 144.042424 
L 327.104647 146.305051 
L 326.465451 148.567677 
L 325.834222 150.830303 
L 325.220809 153.092929 
L 324.634788 155.355556 
L 324.085281 157.618182 
L 323.580779 159.880808 
L 323.128966 162.143434 
L 322.736561 164.406061 
L 322.409156 166.668687 
L 322.151085 168.931313 
L 321.965306 171.193939 
L 321.853308 173.456566 
L 321.815047 175.719192 
L 321.848912 177.981818 
L 321.951726 180.244444 
L 322.118773 182.507071 
L 322.343877 184.769697 
L 322.619495 187.032323 
L 322.93686 189.294949 
L 323.286151 191.557576 
L 323.656684 193.820202 
L 324.037141 196.082828 
L 324.415804 198.345455 
L 324.780808 200.608081 
L 325.120406 202.870707 
L 325.423221 205.133333 
L 325.678502 207.39596 
L 325.876357 209.658586 
L 326.007966 211.921212 
L 326.065773 214.183838 
L 326.043631 216.446465 
L 325.936921 218.709091 
L 325.742624 220.971717 
L 325.459349 223.234343 
L 325.087324 225.49697 
L 324.628334 227.759596 
L 324.08563 230.022222 
L 323.463794 232.284848 
L 322.76858 234.547475 
L 322.006722 236.810101 
L 321.185735 239.072727 
L 320.313697 241.335354 
L 319.399028 243.59798 
L 318.450283 245.860606 
L 317.475946 248.123232 
L 316.484246 250.385859 
L 315.482993 252.648485 
L 314.479447 254.911111 
L 313.480207 257.173737 
L 312.491138 259.436364 
L 311.517322 261.69899 
L 310.563049 263.961616 
L 309.631823 266.224242 
L 308.726399 268.486869 
L 307.848842 270.749495 
L 307.000593 273.012121 
L 306.182555 275.274747 
L 305.395178 277.537374 
L 304.638555 279.8 
z
" style="fill:#1f77b4;fill-opacity:0.3;"/>
   </g>
   <g id="matplotlib.axis_1">
    <g id="xtick_1">
     <g id="line2d_1">
      <defs>
       <path d="M 0 0 
L 0 3.5 
" id="me65fbe4210" style="stroke:#000000;stroke-width:0.8;"/>
      </defs>
      <g>
       <use style="stroke:#000000;stroke-width:0.8;" x="139.958678" xlink:href="#me65fbe4210" y="320.4"/>
      </g>
     </g>
     <g id="text_1">
      <!-- Marketing -->
      <g transform="translate(115.042271 334.998438)scale(0.1 -0.1)">
       <defs>
        <path d="M 9.8125 72.90625 
L 24.515625 72.90625 
L 43.109375 23.296875 
L 61.8125 72.90625 
L 76.515625 72.90625 
L 76.515625 0 
L 66.890625 0 
L 66.890625 64.015625 
L 48.09375 14.015625 
L 38.1875 14.015625 
L 19.390625 64.015625 
L 19.390625 0 
L 9.8125 0 
z
" id="DejaVuSans-77"/>
        <path d="M 34.28125 27.484375 
Q 23.390625 27.484375 19.1875 25 
Q 14.984375 22.515625 14.984375 16.5 
Q 14.984375 11.71875 18.140625 8.90625 
Q 21.296875 6.109375 26.703125 6.109375 
Q 34.1875 6.109375 38.703125 11.40625 
Q 43.21875 16.703125 43.21875 25.484375 
L 43.21875 27.484375 
z
M 52.203125 31.203125 
L 52.203125 0 
L 43.21875 0 
L 43.21875 8.296875 
Q 40.140625 3.328125 35.546875 0.953125 
Q 30.953125 -1.421875 24.3125 -1.421875 
Q 15.921875 -1.421875 10.953125 3.296875 
Q 6 8.015625 6 15.921875 
Q 6 25.140625 12.171875 29.828125 
Q 18.359375 34.515625 30.609375 34.515625 
L 43.21875 34.515625 
L 43.21875 35.40625 
Q 43.21875 41.609375 39.140625 45 
Q 35.0625 48.390625 27.6875 48.390625 
Q 23 48.390625 18.546875 47.265625 
Q 14.109375 46.140625 10.015625 43.890625 
L 10.015625 52.203125 
Q 14.9375 54.109375 19.578125 55.046875 
Q 24.21875 56 28.609375 56 
Q 40.484375 56 46.34375 49.84375 
Q 52.203125 43.703125 52.203125 31.203125 
z
" id="DejaVuSans-97"/>
        <path d="M 41.109375 46.296875 
Q 39.59375 47.171875 37.8125 47.578125 
Q 36.03125 48 33.890625 48 
Q 26.265625 48 22.1875 43.046875 
Q 18.109375 38.09375 18.109375 28.8125 
L 18.109375 0 
L 9.078125 0 
L 9.078125 54.6875 
L 18.109375 54.6875 
L 18.109375 46.1875 
Q 20.953125 51.171875 25.484375 53.578125 
Q 30.03125 56 36.53125 56 
Q 37.453125 56 38.578125 55.875 
Q 39.703125 55.765625 41.0625 55.515625 
z
" id="DejaVuSans-114"/>
        <path d="M 9.078125 75.984375 
L 18.109375 75.984375 
L 18.109375 31.109375 
L 44.921875 54.6875 
L 56.390625 54.6875 
L 27.390625 29.109375 
L 57.625 0 
L 45.90625 0 
L 18.109375 26.703125 
L 18.109375 0 
L 9.078125 0 
z
" id="DejaVuSans-107"/>
        <path d="M 56.203125 29.59375 
L 56.203125 25.203125 
L 14.890625 25.203125 
Q 15.484375 15.921875 20.484375 11.0625 
Q 25.484375 6.203125 34.421875 6.203125 
Q 39.59375 6.203125 44.453125 7.46875 
Q 49.3125 8.734375 54.109375 11.28125 
L 54.109375 2.78125 
Q 49.265625 0.734375 44.1875 -0.34375 
Q 39.109375 -1.421875 33.890625 -1.421875 
Q 20.796875 -1.421875 13.15625 6.1875 
Q 5.515625 13.8125 5.515625 26.8125 
Q 5.515625 40.234375 12.765625 48.109375 
Q 20.015625 56 32.328125 56 
Q 43.359375 56 49.78125 48.890625 
Q 56.203125 41.796875 56.203125 29.59375 
z
M 47.21875 32.234375 
Q 47.125 39.59375 43.09375 43.984375 
Q 39.0625 48.390625 32.421875 48.390625 
Q 24.90625 48.390625 20.390625 44.140625 
Q 15.875 39.890625 15.1875 32.171875 
z
" id="DejaVuSans-101"/>
        <path d="M 18.3125 70.21875 
L 18.3125 54.6875 
L 36.8125 54.6875 
L 36.8125 47.703125 
L 18.3125 47.703125 
L 18.3125 18.015625 
Q 18.3125 11.328125 20.140625 9.421875 
Q 21.96875 7.515625 27.59375 7.515625 
L 36.8125 7.515625 
L 36.8125 0 
L 27.59375 0 
Q 17.1875 0 13.234375 3.875 
Q 9.28125 7.765625 9.28125 18.015625 
L 9.28125 47.703125 
L 2.6875 47.703125 
L 2.6875 54.6875 
L 9.28125 54.6875 
L 9.28125 70.21875 
z
" id="DejaVuSans-116"/>
        <path d="M 9.421875 54.6875 
L 18.40625 54.6875 
L 18.40625 0 
L 9.421875 0 
z
M 9.421875 75.984375 
L 18.40625 75.984375 
L 18.40625 64.59375 
L 9.421875 64.59375 
z
" id="DejaVuSans-105"/>
        <path d="M 54.890625 33.015625 
L 54.890625 0 
L 45.90625 0 
L 45.90625 32.71875 
Q 45.90625 40.484375 42.875 44.328125 
Q 39.84375 48.1875 33.796875 48.1875 
Q 26.515625 48.1875 22.3125 43.546875 
Q 18.109375 38.921875 18.109375 30.90625 
L 18.109375 0 
L 9.078125 0 
L 9.078125 54.6875 
L 18.109375 54.6875 
L 18.109375 46.1875 
Q 21.34375 51.125 25.703125 53.5625 
Q 30.078125 56 35.796875 56 
Q 45.21875 56 50.046875 50.171875 
Q 54.890625 44.34375 54.890625 33.015625 
z
" id="DejaVuSans-110"/>
        <path d="M 45.40625 27.984375 
Q 45.40625 37.75 41.375 43.109375 
Q 37.359375 48.484375 30.078125 48.484375 
Q 22.859375 48.484375 18.828125 43.109375 
Q 14.796875 37.75 14.796875 27.984375 
Q 14.796875 18.265625 18.828125 12.890625 
Q 22.859375 7.515625 30.078125 7.515625 
Q 37.359375 7.515625 41.375 12.890625 
Q 45.40625 18.265625 45.40625 27.984375 
z
M 54.390625 6.78125 
Q 54.390625 -7.171875 48.1875 -13.984375 
Q 42 -20.796875 29.203125 -20.796875 
Q 24.46875 -20.796875 20.265625 -20.09375 
Q 16.0625 -19.390625 12.109375 -17.921875 
L 12.109375 -9.1875 
Q 16.0625 -11.328125 19.921875 -12.34375 
Q 23.78125 -13.375 27.78125 -13.375 
Q 36.625 -13.375 41.015625 -8.765625 
Q 45.40625 -4.15625 45.40625 5.171875 
L 45.40625 9.625 
Q 42.625 4.78125 38.28125 2.390625 
Q 33.9375 0 27.875 0 
Q 17.828125 0 11.671875 7.65625 
Q 5.515625 15.328125 5.515625 27.984375 
Q 5.515625 40.671875 11.671875 48.328125 
Q 17.828125 56 27.875 56 
Q 33.9375 56 38.28125 53.609375 
Q 42.625 51.21875 45.40625 46.390625 
L 45.40625 54.6875 
L 54.390625 54.6875 
z
" id="DejaVuSans-103"/>
       </defs>
       <use xlink:href="#DejaVuSans-77"/>
       <use x="86.279297" xlink:href="#DejaVuSans-97"/>
       <use x="147.558594" xlink:href="#DejaVuSans-114"/>
       <use x="188.671875" xlink:href="#DejaVuSans-107"/>
       <use x="242.957031" xlink:href="#DejaVuSans-101"/>
       <use x="304.480469" xlink:href="#DejaVuSans-116"/>
       <use x="343.689453" xlink:href="#DejaVuSans-105"/>
       <use x="371.472656" xlink:href="#DejaVuSans-110"/>
       <use x="434.851562" xlink:href="#DejaVuSans-103"/>
      </g>
     </g>
    </g>
    <g id="xtick_2">
     <g id="line2d_2">
      <g>
       <use style="stroke:#000000;stroke-width:0.8;" x="293.677686" xlink:href="#me65fbe4210" y="320.4"/>
      </g>
     </g>
     <g id="text_2">
      <!-- Overheads -->
      <g transform="translate(266.649561 334.998438)scale(0.1 -0.1)">
       <defs>
        <path d="M 39.40625 66.21875 
Q 28.65625 66.21875 22.328125 58.203125 
Q 16.015625 50.203125 16.015625 36.375 
Q 16.015625 22.609375 22.328125 14.59375 
Q 28.65625 6.59375 39.40625 6.59375 
Q 50.140625 6.59375 56.421875 14.59375 
Q 62.703125 22.609375 62.703125 36.375 
Q 62.703125 50.203125 56.421875 58.203125 
Q 50.140625 66.21875 39.40625 66.21875 
z
M 39.40625 74.21875 
Q 54.734375 74.21875 63.90625 63.9375 
Q 73.09375 53.65625 73.09375 36.375 
Q 73.09375 19.140625 63.90625 8.859375 
Q 54.734375 -1.421875 39.40625 -1.421875 
Q 24.03125 -1.421875 14.8125 8.828125 
Q 5.609375 19.09375 5.609375 36.375 
Q 5.609375 53.65625 14.8125 63.9375 
Q 24.03125 74.21875 39.40625 74.21875 
z
" id="DejaVuSans-79"/>
        <path d="M 2.984375 54.6875 
L 12.5 54.6875 
L 29.59375 8.796875 
L 46.6875 54.6875 
L 56.203125 54.6875 
L 35.6875 0 
L 23.484375 0 
z
" id="DejaVuSans-118"/>
        <path d="M 54.890625 33.015625 
L 54.890625 0 
L 45.90625 0 
L 45.90625 32.71875 
Q 45.90625 40.484375 42.875 44.328125 
Q 39.84375 48.1875 33.796875 48.1875 
Q 26.515625 48.1875 22.3125 43.546875 
Q 18.109375 38.921875 18.109375 30.90625 
L 18.109375 0 
L 9.078125 0 
L 9.078125 75.984375 
L 18.109375 75.984375 
L 18.109375 46.1875 
Q 21.34375 51.125 25.703125 53.5625 
Q 30.078125 56 35.796875 56 
Q 45.21875 56 50.046875 50.171875 
Q 54.890625 44.34375 54.890625 33.015625 
z
" id="DejaVuSans-104"/>
        <path d="M 45.40625 46.390625 
L 45.40625 75.984375 
L 54.390625 75.984375 
L 54.390625 0 
L 45.40625 0 
L 45.40625 8.203125 
Q 42.578125 3.328125 38.25 0.953125 
Q 33.9375 -1.421875 27.875 -1.421875 
Q 17.96875 -1.421875 11.734375 6.484375 
Q 5.515625 14.40625 5.515625 27.296875 
Q 5.515625 40.1875 11.734375 48.09375 
Q 17.96875 56 27.875 56 
Q 33.9375 56 38.25 53.625 
Q 42.578125 51.265625 45.40625 46.390625 
z
M 14.796875 27.296875 
Q 14.796875 17.390625 18.875 11.75 
Q 22.953125 6.109375 30.078125 6.109375 
Q 37.203125 6.109375 41.296875 11.75 
Q 45.40625 17.390625 45.40625 27.296875 
Q 45.40625 37.203125 41.296875 42.84375 
Q 37.203125 48.484375 30.078125 48.484375 
Q 22.953125 48.484375 18.875 42.84375 
Q 14.796875 37.203125 14.796875 27.296875 
z
" id="DejaVuSans-100"/>
        <path d="M 44.28125 53.078125 
L 44.28125 44.578125 
Q 40.484375 46.53125 36.375 47.5 
Q 32.28125 48.484375 27.875 48.484375 
Q 21.1875 48.484375 17.84375 46.4375 
Q 14.5 44.390625 14.5 40.28125 
Q 14.5 37.15625 16.890625 35.375 
Q 19.28125 33.59375 26.515625 31.984375 
L 29.59375 31.296875 
Q 39.15625 29.25 43.1875 25.515625 
Q 47.21875 21.78125 47.21875 15.09375 
Q 47.21875 7.46875 41.1875 3.015625 
Q 35.15625 -1.421875 24.609375 -1.421875 
Q 20.21875 -1.421875 15.453125 -0.5625 
Q 10.6875 0.296875 5.421875 2 
L 5.421875 11.28125 
Q 10.40625 8.6875 15.234375 7.390625 
Q 20.0625 6.109375 24.8125 6.109375 
Q 31.15625 6.109375 34.5625 8.28125 
Q 37.984375 10.453125 37.984375 14.40625 
Q 37.984375 18.0625 35.515625 20.015625 
Q 33.0625 21.96875 24.703125 23.78125 
L 21.578125 24.515625 
Q 13.234375 26.265625 9.515625 29.90625 
Q 5.8125 33.546875 5.8125 39.890625 
Q 5.8125 47.609375 11.28125 51.796875 
Q 16.75 56 26.8125 56 
Q 31.78125 56 36.171875 55.265625 
Q 40.578125 54.546875 44.28125 53.078125 
z
" id="DejaVuSans-115"/>
       </defs>
       <use xlink:href="#DejaVuSans-79"/>
       <use x="78.710938" xlink:href="#DejaVuSans-118"/>
       <use x="137.890625" xlink:href="#DejaVuSans-101"/>
       <use x="199.414062" xlink:href="#DejaVuSans-114"/>
       <use x="238.777344" xlink:href="#DejaVuSans-104"/>
       <use x="302.15625" xlink:href="#DejaVuSans-101"/>
       <use x="363.679688" xlink:href="#DejaVuSans-97"/>
       <use x="424.958984" xlink:href="#DejaVuSans-100"/>
       <use x="488.435547" xlink:href="#DejaVuSans-115"/>
      </g>
     </g>
    </g>
   </g>
   <g id="matplotlib.axis_2">
    <g id="ytick_1">
     <g id="line2d_3">
      <path clip-path="url(#p6455595cba)" d="M 90 310.345455 
L 343.636364 310.345455 
" style="fill:none;stroke:#b0b0b0;stroke-linecap:square;stroke-width:0.8;"/>
     </g>
     <g id="line2d_4">
      <defs>
       <path d="M 0 0 
L -3.5 0 
" id="m92b47c1d4d" style="stroke:#000000;stroke-width:0.8;"/>
      </defs>
      <g>
       <use style="stroke:#000000;stroke-width:0.8;" x="90" xlink:href="#m92b47c1d4d" y="310.345455"/>
      </g>
     </g>
     <g id="text_3">
      <!-- 0 -->
      <g transform="translate(76.6375 314.144673)scale(0.1 -0.1)">
       <defs>
        <path d="M 31.78125 66.40625 
Q 24.171875 66.40625 20.328125 58.90625 
Q 16.5 51.421875 16.5 36.375 
Q 16.5 21.390625 20.328125 13.890625 
Q 24.171875 6.390625 31.78125 6.390625 
Q 39.453125 6.390625 43.28125 13.890625 
Q 47.125 21.390625 47.125 36.375 
Q 47.125 51.421875 43.28125 58.90625 
Q 39.453125 66.40625 31.78125 66.40625 
z
M 31.78125 74.21875 
Q 44.046875 74.21875 50.515625 64.515625 
Q 56.984375 54.828125 56.984375 36.375 
Q 56.984375 17.96875 50.515625 8.265625 
Q 44.046875 -1.421875 31.78125 -1.421875 
Q 19.53125 -1.421875 13.0625 8.265625 
Q 6.59375 17.96875 6.59375 36.375 
Q 6.59375 54.828125 13.0625 64.515625 
Q 19.53125 74.21875 31.78125 74.21875 
z
" id="DejaVuSans-48"/>
       </defs>
       <use xlink:href="#DejaVuSans-48"/>
      </g>
     </g>
    </g>
    <g id="ytick_2">
     <g id="line2d_5">
      <path clip-path="url(#p6455595cba)" d="M 90 259.436364 
L 343.636364 259.436364 
" style="fill:none;stroke:#b0b0b0;stroke-linecap:square;stroke-width:0.8;"/>
     </g>
     <g id="line2d_6">
      <g>
       <use style="stroke:#000000;stroke-width:0.8;" x="90" xlink:href="#m92b47c1d4d" y="259.436364"/>
      </g>
     </g>
     <g id="text_4">
      <!-- 20000 -->
      <g transform="translate(51.1875 263.235582)scale(0.1 -0.1)">
       <defs>
        <path d="M 19.1875 8.296875 
L 53.609375 8.296875 
L 53.609375 0 
L 7.328125 0 
L 7.328125 8.296875 
Q 12.9375 14.109375 22.625 23.890625 
Q 32.328125 33.6875 34.8125 36.53125 
Q 39.546875 41.84375 41.421875 45.53125 
Q 43.3125 49.21875 43.3125 52.78125 
Q 43.3125 58.59375 39.234375 62.25 
Q 35.15625 65.921875 28.609375 65.921875 
Q 23.96875 65.921875 18.8125 64.3125 
Q 13.671875 62.703125 7.8125 59.421875 
L 7.8125 69.390625 
Q 13.765625 71.78125 18.9375 73 
Q 24.125 74.21875 28.421875 74.21875 
Q 39.75 74.21875 46.484375 68.546875 
Q 53.21875 62.890625 53.21875 53.421875 
Q 53.21875 48.921875 51.53125 44.890625 
Q 49.859375 40.875 45.40625 35.40625 
Q 44.1875 33.984375 37.640625 27.21875 
Q 31.109375 20.453125 19.1875 8.296875 
z
" id="DejaVuSans-50"/>
       </defs>
       <use xlink:href="#DejaVuSans-50"/>
       <use x="63.623047" xlink:href="#DejaVuSans-48"/>
       <use x="127.246094" xlink:href="#DejaVuSans-48"/>
       <use x="190.869141" xlink:href="#DejaVuSans-48"/>
       <use x="254.492188" xlink:href="#DejaVuSans-48"/>
      </g>
     </g>
    </g>
    <g id="ytick_3">
     <g id="line2d_7">
      <path clip-path="url(#p6455595cba)" d="M 90 208.527273 
L 343.636364 208.527273 
" style="fill:none;stroke:#b0b0b0;stroke-linecap:square;stroke-width:0.8;"/>
     </g>
     <g id="line2d_8">
      <g>
       <use style="stroke:#000000;stroke-width:0.8;" x="90" xlink:href="#m92b47c1d4d" y="208.527273"/>
      </g>
     </g>
     <g id="text_5">
      <!-- 40000 -->
      <g transform="translate(51.1875 212.326491)scale(0.1 -0.1)">
       <defs>
        <path d="M 37.796875 64.3125 
L 12.890625 25.390625 
L 37.796875 25.390625 
z
M 35.203125 72.90625 
L 47.609375 72.90625 
L 47.609375 25.390625 
L 58.015625 25.390625 
L 58.015625 17.1875 
L 47.609375 17.1875 
L 47.609375 0 
L 37.796875 0 
L 37.796875 17.1875 
L 4.890625 17.1875 
L 4.890625 26.703125 
z
" id="DejaVuSans-52"/>
       </defs>
       <use xlink:href="#DejaVuSans-52"/>
       <use x="63.623047" xlink:href="#DejaVuSans-48"/>
       <use x="127.246094" xlink:href="#DejaVuSans-48"/>
       <use x="190.869141" xlink:href="#DejaVuSans-48"/>
       <use x="254.492188" xlink:href="#DejaVuSans-48"/>
      </g>
     </g>
    </g>
    <g id="ytick_4">
     <g id="line2d_9">
      <path clip-path="url(#p6455595cba)" d="M 90 157.618182 
L 343.636364 157.618182 
" style="fill:none;stroke:#b0b0b0;stroke-linecap:square;stroke-width:0.8;"/>
     </g>
     <g id="line2d_10">
      <g>
       <use style="stroke:#000000;stroke-width:0.8;" x="90" xlink:href="#m92b47c1d4d" y="157.618182"/>
      </g>
     </g>
     <g id="text_6">
      <!-- 60000 -->
      <g transform="translate(51.1875 161.417401)scale(0.1 -0.1)">
       <defs>
        <path d="M 33.015625 40.375 
Q 26.375 40.375 22.484375 35.828125 
Q 18.609375 31.296875 18.609375 23.390625 
Q 18.609375 15.53125 22.484375 10.953125 
Q 26.375 6.390625 33.015625 6.390625 
Q 39.65625 6.390625 43.53125 10.953125 
Q 47.40625 15.53125 47.40625 23.390625 
Q 47.40625 31.296875 43.53125 35.828125 
Q 39.65625 40.375 33.015625 40.375 
z
M 52.59375 71.296875 
L 52.59375 62.3125 
Q 48.875 64.0625 45.09375 64.984375 
Q 41.3125 65.921875 37.59375 65.921875 
Q 27.828125 65.921875 22.671875 59.328125 
Q 17.53125 52.734375 16.796875 39.40625 
Q 19.671875 43.65625 24.015625 45.921875 
Q 28.375 48.1875 33.59375 48.1875 
Q 44.578125 48.1875 50.953125 41.515625 
Q 57.328125 34.859375 57.328125 23.390625 
Q 57.328125 12.15625 50.6875 5.359375 
Q 44.046875 -1.421875 33.015625 -1.421875 
Q 20.359375 -1.421875 13.671875 8.265625 
Q 6.984375 17.96875 6.984375 36.375 
Q 6.984375 53.65625 15.1875 63.9375 
Q 23.390625 74.21875 37.203125 74.21875 
Q 40.921875 74.21875 44.703125 73.484375 
Q 48.484375 72.75 52.59375 71.296875 
z
" id="DejaVuSans-54"/>
       </defs>
       <use xlink:href="#DejaVuSans-54"/>
       <use x="63.623047" xlink:href="#DejaVuSans-48"/>
       <use x="127.246094" xlink:href="#DejaVuSans-48"/>
       <use x="190.869141" xlink:href="#DejaVuSans-48"/>
       <use x="254.492188" xlink:href="#DejaVuSans-48"/>
      </g>
     </g>
    </g>
    <g id="ytick_5">
     <g id="line2d_11">
      <path clip-path="url(#p6455595cba)" d="M 90 106.709091 
L 343.636364 106.709091 
" style="fill:none;stroke:#b0b0b0;stroke-linecap:square;stroke-width:0.8;"/>
     </g>
     <g id="line2d_12">
      <g>
       <use style="stroke:#000000;stroke-width:0.8;" x="90" xlink:href="#m92b47c1d4d" y="106.709091"/>
      </g>
     </g>
     <g id="text_7">
      <!-- 80000 -->
      <g transform="translate(51.1875 110.50831)scale(0.1 -0.1)">
       <defs>
        <path d="M 31.78125 34.625 
Q 24.75 34.625 20.71875 30.859375 
Q 16.703125 27.09375 16.703125 20.515625 
Q 16.703125 13.921875 20.71875 10.15625 
Q 24.75 6.390625 31.78125 6.390625 
Q 38.8125 6.390625 42.859375 10.171875 
Q 46.921875 13.96875 46.921875 20.515625 
Q 46.921875 27.09375 42.890625 30.859375 
Q 38.875 34.625 31.78125 34.625 
z
M 21.921875 38.8125 
Q 15.578125 40.375 12.03125 44.71875 
Q 8.5 49.078125 8.5 55.328125 
Q 8.5 64.0625 14.71875 69.140625 
Q 20.953125 74.21875 31.78125 74.21875 
Q 42.671875 74.21875 48.875 69.140625 
Q 55.078125 64.0625 55.078125 55.328125 
Q 55.078125 49.078125 51.53125 44.71875 
Q 48 40.375 41.703125 38.8125 
Q 48.828125 37.15625 52.796875 32.3125 
Q 56.78125 27.484375 56.78125 20.515625 
Q 56.78125 9.90625 50.3125 4.234375 
Q 43.84375 -1.421875 31.78125 -1.421875 
Q 19.734375 -1.421875 13.25 4.234375 
Q 6.78125 9.90625 6.78125 20.515625 
Q 6.78125 27.484375 10.78125 32.3125 
Q 14.796875 37.15625 21.921875 38.8125 
z
M 18.3125 54.390625 
Q 18.3125 48.734375 21.84375 45.5625 
Q 25.390625 42.390625 31.78125 42.390625 
Q 38.140625 42.390625 41.71875 45.5625 
Q 45.3125 48.734375 45.3125 54.390625 
Q 45.3125 60.0625 41.71875 63.234375 
Q 38.140625 66.40625 31.78125 66.40625 
Q 25.390625 66.40625 21.84375 63.234375 
Q 18.3125 60.0625 18.3125 54.390625 
z
" id="DejaVuSans-56"/>
       </defs>
       <use xlink:href="#DejaVuSans-56"/>
       <use x="63.623047" xlink:href="#DejaVuSans-48"/>
       <use x="127.246094" xlink:href="#DejaVuSans-48"/>
       <use x="190.869141" xlink:href="#DejaVuSans-48"/>
       <use x="254.492188" xlink:href="#DejaVuSans-48"/>
      </g>
     </g>
    </g>
    <g id="ytick_6">
     <g id="line2d_13">
      <path clip-path="url(#p6455595cba)" d="M 90 55.8 
L 343.636364 55.8 
" style="fill:none;stroke:#b0b0b0;stroke-linecap:square;stroke-width:0.8;"/>
     </g>
     <g id="line2d_14">
      <g>
       <use style="stroke:#000000;stroke-width:0.8;" x="90" xlink:href="#m92b47c1d4d" y="55.8"/>
      </g>
     </g>
     <g id="text_8">
      <!-- 100000 -->
      <g transform="translate(44.825 59.599219)scale(0.1 -0.1)">
       <defs>
        <path d="M 12.40625 8.296875 
L 28.515625 8.296875 
L 28.515625 63.921875 
L 10.984375 60.40625 
L 10.984375 69.390625 
L 28.421875 72.90625 
L 38.28125 72.90625 
L 38.28125 8.296875 
L 54.390625 8.296875 
L 54.390625 0 
L 12.40625 0 
z
" id="DejaVuSans-49"/>
       </defs>
       <use xlink:href="#DejaVuSans-49"/>
       <use x="63.623047" xlink:href="#DejaVuSans-48"/>
       <use x="127.246094" xlink:href="#DejaVuSans-48"/>
       <use x="190.869141" xlink:href="#DejaVuSans-48"/>
       <use x="254.492188" xlink:href="#DejaVuSans-48"/>
       <use x="318.115234" xlink:href="#DejaVuSans-48"/>
      </g>
     </g>
    </g>
    <g id="text_9">
     <!-- Expense in (£) -->
     <g transform="translate(38.745312 221.258594)rotate(-90)scale(0.1 -0.1)">
      <defs>
       <path d="M 9.8125 72.90625 
L 55.90625 72.90625 
L 55.90625 64.59375 
L 19.671875 64.59375 
L 19.671875 43.015625 
L 54.390625 43.015625 
L 54.390625 34.71875 
L 19.671875 34.71875 
L 19.671875 8.296875 
L 56.78125 8.296875 
L 56.78125 0 
L 9.8125 0 
z
" id="DejaVuSans-69"/>
       <path d="M 54.890625 54.6875 
L 35.109375 28.078125 
L 55.90625 0 
L 45.3125 0 
L 29.390625 21.484375 
L 13.484375 0 
L 2.875 0 
L 24.125 28.609375 
L 4.6875 54.6875 
L 15.28125 54.6875 
L 29.78125 35.203125 
L 44.28125 54.6875 
z
" id="DejaVuSans-120"/>
       <path d="M 18.109375 8.203125 
L 18.109375 -20.796875 
L 9.078125 -20.796875 
L 9.078125 54.6875 
L 18.109375 54.6875 
L 18.109375 46.390625 
Q 20.953125 51.265625 25.265625 53.625 
Q 29.59375 56 35.59375 56 
Q 45.5625 56 51.78125 48.09375 
Q 58.015625 40.1875 58.015625 27.296875 
Q 58.015625 14.40625 51.78125 6.484375 
Q 45.5625 -1.421875 35.59375 -1.421875 
Q 29.59375 -1.421875 25.265625 0.953125 
Q 20.953125 3.328125 18.109375 8.203125 
z
M 48.6875 27.296875 
Q 48.6875 37.203125 44.609375 42.84375 
Q 40.53125 48.484375 33.40625 48.484375 
Q 26.265625 48.484375 22.1875 42.84375 
Q 18.109375 37.203125 18.109375 27.296875 
Q 18.109375 17.390625 22.1875 11.75 
Q 26.265625 6.109375 33.40625 6.109375 
Q 40.53125 6.109375 44.609375 11.75 
Q 48.6875 17.390625 48.6875 27.296875 
z
" id="DejaVuSans-112"/>
       <path id="DejaVuSans-32"/>
       <path d="M 31 75.875 
Q 24.46875 64.65625 21.28125 53.65625 
Q 18.109375 42.671875 18.109375 31.390625 
Q 18.109375 20.125 21.3125 9.0625 
Q 24.515625 -2 31 -13.1875 
L 23.1875 -13.1875 
Q 15.875 -1.703125 12.234375 9.375 
Q 8.59375 20.453125 8.59375 31.390625 
Q 8.59375 42.28125 12.203125 53.3125 
Q 15.828125 64.359375 23.1875 75.875 
z
" id="DejaVuSans-40"/>
       <path d="M 34.1875 63.1875 
L 20.796875 26.90625 
L 47.609375 26.90625 
z
M 28.609375 72.90625 
L 39.796875 72.90625 
L 67.578125 0 
L 57.328125 0 
L 50.6875 18.703125 
L 17.828125 18.703125 
L 11.1875 0 
L 0.78125 0 
z
M 29.53125 92.609375 
L 38.71875 92.609375 
L 49.015625 79.625 
L 42.234375 79.625 
L 34.125 88.3125 
L 26.015625 79.625 
L 19.234375 79.625 
z
" id="DejaVuSans-194"/>
       <path d="M 53.8125 71.296875 
L 53.8125 62.40625 
Q 50.09375 64.40625 46.765625 65.40625 
Q 43.453125 66.40625 40.484375 66.40625 
Q 33.25 66.40625 30.421875 62.625 
Q 27.59375 58.84375 27.59375 48.484375 
L 27.59375 37.984375 
L 46.6875 37.984375 
L 46.6875 31 
L 27.59375 31 
L 27.59375 8.296875 
L 54.78125 8.296875 
L 54.78125 0 
L 6.296875 0 
L 6.296875 8.296875 
L 17.828125 8.296875 
L 17.828125 31 
L 8.109375 31 
L 8.109375 37.984375 
L 17.828125 37.984375 
L 17.828125 49.609375 
Q 17.828125 62.359375 23.046875 68.28125 
Q 28.265625 74.21875 39.59375 74.21875 
Q 42.578125 74.21875 46.265625 73.453125 
Q 49.953125 72.703125 53.8125 71.296875 
z
" id="DejaVuSans-163"/>
       <path d="M 8.015625 75.875 
L 15.828125 75.875 
Q 23.140625 64.359375 26.78125 53.3125 
Q 30.421875 42.28125 30.421875 31.390625 
Q 30.421875 20.453125 26.78125 9.375 
Q 23.140625 -1.703125 15.828125 -13.1875 
L 8.015625 -13.1875 
Q 14.5 -2 17.703125 9.0625 
Q 20.90625 20.125 20.90625 31.390625 
Q 20.90625 42.671875 17.703125 53.65625 
Q 14.5 64.65625 8.015625 75.875 
z
" id="DejaVuSans-41"/>
      </defs>
      <use xlink:href="#DejaVuSans-69"/>
      <use x="63.183594" xlink:href="#DejaVuSans-120"/>
      <use x="122.363281" xlink:href="#DejaVuSans-112"/>
      <use x="185.839844" xlink:href="#DejaVuSans-101"/>
      <use x="247.363281" xlink:href="#DejaVuSans-110"/>
      <use x="310.742188" xlink:href="#DejaVuSans-115"/>
      <use x="362.841797" xlink:href="#DejaVuSans-101"/>
      <use x="424.365234" xlink:href="#DejaVuSans-32"/>
      <use x="456.152344" xlink:href="#DejaVuSans-105"/>
      <use x="483.935547" xlink:href="#DejaVuSans-110"/>
      <use x="547.314453" xlink:href="#DejaVuSans-32"/>
      <use x="579.101562" xlink:href="#DejaVuSans-40"/>
      <use x="618.115234" xlink:href="#DejaVuSans-194"/>
      <use x="686.523438" xlink:href="#DejaVuSans-163"/>
      <use x="750.146484" xlink:href="#DejaVuSans-41"/>
     </g>
    </g>
   </g>
   <g id="LineCollection_1">
    <path clip-path="url(#p6455595cba)" d="M 120.743802 208.527273 
L 159.173554 208.527273 
" style="fill:none;stroke:#1f77b4;stroke-width:1.5;"/>
    <path clip-path="url(#p6455595cba)" d="M 274.46281 55.8 
L 312.892562 55.8 
" style="fill:none;stroke:#1f77b4;stroke-width:1.5;"/>
   </g>
   <g id="LineCollection_2">
    <path clip-path="url(#p6455595cba)" d="M 120.743802 307.8 
L 159.173554 307.8 
" style="fill:none;stroke:#1f77b4;stroke-width:1.5;"/>
    <path clip-path="url(#p6455595cba)" d="M 274.46281 279.8 
L 312.892562 279.8 
" style="fill:none;stroke:#1f77b4;stroke-width:1.5;"/>
   </g>
   <g id="LineCollection_3">
    <path clip-path="url(#p6455595cba)" d="M 139.958678 307.8 
L 139.958678 208.527273 
" style="fill:none;stroke:#1f77b4;stroke-width:1.5;"/>
    <path clip-path="url(#p6455595cba)" d="M 293.677686 279.8 
L 293.677686 55.8 
" style="fill:none;stroke:#1f77b4;stroke-width:1.5;"/>
   </g>
   <g id="LineCollection_4">
    <path clip-path="url(#p6455595cba)" d="M 120.743802 301.436364 
L 159.173554 301.436364 
" style="fill:none;stroke:#1f77b4;stroke-width:1.5;"/>
    <path clip-path="url(#p6455595cba)" d="M 274.46281 151.254545 
L 312.892562 151.254545 
" style="fill:none;stroke:#1f77b4;stroke-width:1.5;"/>
   </g>
   <g id="patch_3">
    <path d="M 90 320.4 
L 90 43.2 
" style="fill:none;stroke:#000000;stroke-linecap:square;stroke-linejoin:miter;stroke-width:0.8;"/>
   </g>
   <g id="patch_4">
    <path d="M 343.636364 320.4 
L 343.636364 43.2 
" style="fill:none;stroke:#000000;stroke-linecap:square;stroke-linejoin:miter;stroke-width:0.8;"/>
   </g>
   <g id="patch_5">
    <path d="M 90 320.4 
L 343.636364 320.4 
" style="fill:none;stroke:#000000;stroke-linecap:square;stroke-linejoin:miter;stroke-width:0.8;"/>
   </g>
   <g id="patch_6">
    <path d="M 90 43.2 
L 343.636364 43.2 
" style="fill:none;stroke:#000000;stroke-linecap:square;stroke-linejoin:miter;stroke-width:0.8;"/>
   </g>
   <g id="text_10">
    <!-- Violin plot -->
    <g transform="translate(186.968182 37.2)scale(0.12 -0.12)">
     <defs>
      <path d="M 28.609375 0 
L 0.78125 72.90625 
L 11.078125 72.90625 
L 34.1875 11.53125 
L 57.328125 72.90625 
L 67.578125 72.90625 
L 39.796875 0 
z
" id="DejaVuSans-86"/>
      <path d="M 30.609375 48.390625 
Q 23.390625 48.390625 19.1875 42.75 
Q 14.984375 37.109375 14.984375 27.296875 
Q 14.984375 17.484375 19.15625 11.84375 
Q 23.34375 6.203125 30.609375 6.203125 
Q 37.796875 6.203125 41.984375 11.859375 
Q 46.1875 17.53125 46.1875 27.296875 
Q 46.1875 37.015625 41.984375 42.703125 
Q 37.796875 48.390625 30.609375 48.390625 
z
M 30.609375 56 
Q 42.328125 56 49.015625 48.375 
Q 55.71875 40.765625 55.71875 27.296875 
Q 55.71875 13.875 49.015625 6.21875 
Q 42.328125 -1.421875 30.609375 -1.421875 
Q 18.84375 -1.421875 12.171875 6.21875 
Q 5.515625 13.875 5.515625 27.296875 
Q 5.515625 40.765625 12.171875 48.375 
Q 18.84375 56 30.609375 56 
z
" id="DejaVuSans-111"/>
      <path d="M 9.421875 75.984375 
L 18.40625 75.984375 
L 18.40625 0 
L 9.421875 0 
z
" id="DejaVuSans-108"/>
     </defs>
     <use xlink:href="#DejaVuSans-86"/>
     <use x="66.158203" xlink:href="#DejaVuSans-105"/>
     <use x="93.941406" xlink:href="#DejaVuSans-111"/>
     <use x="155.123047" xlink:href="#DejaVuSans-108"/>
     <use x="182.90625" xlink:href="#DejaVuSans-105"/>
     <use x="210.689453" xlink:href="#DejaVuSans-110"/>
     <use x="274.068359" xlink:href="#DejaVuSans-32"/>
     <use x="305.855469" xlink:href="#DejaVuSans-112"/>
     <use x="369.332031" xlink:href="#DejaVuSans-108"/>
     <use x="397.115234" xlink:href="#DejaVuSans-111"/>
     <use x="458.296875" xlink:href="#DejaVuSans-116"/>
    </g>
   </g>
  </g>
  <g id="axes_2">
   <g id="patch_7">
    <path d="M 394.363636 320.4 
L 648 320.4 
L 648 43.2 
L 394.363636 43.2 
z
" style="fill:#ffffff;"/>
   </g>
   <g id="matplotlib.axis_3">
    <g id="xtick_3">
     <g id="line2d_15">
      <g>
       <use style="stroke:#000000;stroke-width:0.8;" x="457.772727" xlink:href="#me65fbe4210" y="320.4"/>
      </g>
     </g>
     <g id="text_11">
      <!-- Marketing -->
      <g transform="translate(432.856321 334.998438)scale(0.1 -0.1)">
       <use xlink:href="#DejaVuSans-77"/>
       <use x="86.279297" xlink:href="#DejaVuSans-97"/>
       <use x="147.558594" xlink:href="#DejaVuSans-114"/>
       <use x="188.671875" xlink:href="#DejaVuSans-107"/>
       <use x="242.957031" xlink:href="#DejaVuSans-101"/>
       <use x="304.480469" xlink:href="#DejaVuSans-116"/>
       <use x="343.689453" xlink:href="#DejaVuSans-105"/>
       <use x="371.472656" xlink:href="#DejaVuSans-110"/>
       <use x="434.851562" xlink:href="#DejaVuSans-103"/>
      </g>
     </g>
    </g>
    <g id="xtick_4">
     <g id="line2d_16">
      <g>
       <use style="stroke:#000000;stroke-width:0.8;" x="584.590909" xlink:href="#me65fbe4210" y="320.4"/>
      </g>
     </g>
     <g id="text_12">
      <!-- Overheads -->
      <g transform="translate(557.562784 334.998438)scale(0.1 -0.1)">
       <use xlink:href="#DejaVuSans-79"/>
       <use x="78.710938" xlink:href="#DejaVuSans-118"/>
       <use x="137.890625" xlink:href="#DejaVuSans-101"/>
       <use x="199.414062" xlink:href="#DejaVuSans-114"/>
       <use x="238.777344" xlink:href="#DejaVuSans-104"/>
       <use x="302.15625" xlink:href="#DejaVuSans-101"/>
       <use x="363.679688" xlink:href="#DejaVuSans-97"/>
       <use x="424.958984" xlink:href="#DejaVuSans-100"/>
       <use x="488.435547" xlink:href="#DejaVuSans-115"/>
      </g>
     </g>
    </g>
   </g>
   <g id="matplotlib.axis_4">
    <g id="ytick_7">
     <g id="line2d_17">
      <path clip-path="url(#pfab2027b11)" d="M 394.363636 310.345455 
L 648 310.345455 
" style="fill:none;stroke:#b0b0b0;stroke-linecap:square;stroke-width:0.8;"/>
     </g>
     <g id="line2d_18">
      <g>
       <use style="stroke:#000000;stroke-width:0.8;" x="394.363636" xlink:href="#m92b47c1d4d" y="310.345455"/>
      </g>
     </g>
     <g id="text_13">
      <!-- 0 -->
      <g transform="translate(381.001136 314.144673)scale(0.1 -0.1)">
       <use xlink:href="#DejaVuSans-48"/>
      </g>
     </g>
    </g>
    <g id="ytick_8">
     <g id="line2d_19">
      <path clip-path="url(#pfab2027b11)" d="M 394.363636 259.436364 
L 648 259.436364 
" style="fill:none;stroke:#b0b0b0;stroke-linecap:square;stroke-width:0.8;"/>
     </g>
     <g id="line2d_20">
      <g>
       <use style="stroke:#000000;stroke-width:0.8;" x="394.363636" xlink:href="#m92b47c1d4d" y="259.436364"/>
      </g>
     </g>
     <g id="text_14">
      <!-- 20000 -->
      <g transform="translate(355.551136 263.235582)scale(0.1 -0.1)">
       <use xlink:href="#DejaVuSans-50"/>
       <use x="63.623047" xlink:href="#DejaVuSans-48"/>
       <use x="127.246094" xlink:href="#DejaVuSans-48"/>
       <use x="190.869141" xlink:href="#DejaVuSans-48"/>
       <use x="254.492188" xlink:href="#DejaVuSans-48"/>
      </g>
     </g>
    </g>
    <g id="ytick_9">
     <g id="line2d_21">
      <path clip-path="url(#pfab2027b11)" d="M 394.363636 208.527273 
L 648 208.527273 
" style="fill:none;stroke:#b0b0b0;stroke-linecap:square;stroke-width:0.8;"/>
     </g>
     <g id="line2d_22">
      <g>
       <use style="stroke:#000000;stroke-width:0.8;" x="394.363636" xlink:href="#m92b47c1d4d" y="208.527273"/>
      </g>
     </g>
     <g id="text_15">
      <!-- 40000 -->
      <g transform="translate(355.551136 212.326491)scale(0.1 -0.1)">
       <use xlink:href="#DejaVuSans-52"/>
       <use x="63.623047" xlink:href="#DejaVuSans-48"/>
       <use x="127.246094" xlink:href="#DejaVuSans-48"/>
       <use x="190.869141" xlink:href="#DejaVuSans-48"/>
       <use x="254.492188" xlink:href="#DejaVuSans-48"/>
      </g>
     </g>
    </g>
    <g id="ytick_10">
     <g id="line2d_23">
      <path clip-path="url(#pfab2027b11)" d="M 394.363636 157.618182 
L 648 157.618182 
" style="fill:none;stroke:#b0b0b0;stroke-linecap:square;stroke-width:0.8;"/>
     </g>
     <g id="line2d_24">
      <g>
       <use style="stroke:#000000;stroke-width:0.8;" x="394.363636" xlink:href="#m92b47c1d4d" y="157.618182"/>
      </g>
     </g>
     <g id="text_16">
      <!-- 60000 -->
      <g transform="translate(355.551136 161.417401)scale(0.1 -0.1)">
       <use xlink:href="#DejaVuSans-54"/>
       <use x="63.623047" xlink:href="#DejaVuSans-48"/>
       <use x="127.246094" xlink:href="#DejaVuSans-48"/>
       <use x="190.869141" xlink:href="#DejaVuSans-48"/>
       <use x="254.492188" xlink:href="#DejaVuSans-48"/>
      </g>
     </g>
    </g>
    <g id="ytick_11">
     <g id="line2d_25">
      <path clip-path="url(#pfab2027b11)" d="M 394.363636 106.709091 
L 648 106.709091 
" style="fill:none;stroke:#b0b0b0;stroke-linecap:square;stroke-width:0.8;"/>
     </g>
     <g id="line2d_26">
      <g>
       <use style="stroke:#000000;stroke-width:0.8;" x="394.363636" xlink:href="#m92b47c1d4d" y="106.709091"/>
      </g>
     </g>
     <g id="text_17">
      <!-- 80000 -->
      <g transform="translate(355.551136 110.50831)scale(0.1 -0.1)">
       <use xlink:href="#DejaVuSans-56"/>
       <use x="63.623047" xlink:href="#DejaVuSans-48"/>
       <use x="127.246094" xlink:href="#DejaVuSans-48"/>
       <use x="190.869141" xlink:href="#DejaVuSans-48"/>
       <use x="254.492188" xlink:href="#DejaVuSans-48"/>
      </g>
     </g>
    </g>
    <g id="ytick_12">
     <g id="line2d_27">
      <path clip-path="url(#pfab2027b11)" d="M 394.363636 55.8 
L 648 55.8 
" style="fill:none;stroke:#b0b0b0;stroke-linecap:square;stroke-width:0.8;"/>
     </g>
     <g id="line2d_28">
      <g>
       <use style="stroke:#000000;stroke-width:0.8;" x="394.363636" xlink:href="#m92b47c1d4d" y="55.8"/>
      </g>
     </g>
     <g id="text_18">
      <!-- 100000 -->
      <g transform="translate(349.188636 59.599219)scale(0.1 -0.1)">
       <use xlink:href="#DejaVuSans-49"/>
       <use x="63.623047" xlink:href="#DejaVuSans-48"/>
       <use x="127.246094" xlink:href="#DejaVuSans-48"/>
       <use x="190.869141" xlink:href="#DejaVuSans-48"/>
       <use x="254.492188" xlink:href="#DejaVuSans-48"/>
       <use x="318.115234" xlink:href="#DejaVuSans-48"/>
      </g>
     </g>
    </g>
   </g>
   <g id="line2d_29">
    <path clip-path="url(#pfab2027b11)" d="M 448.261364 303.345455 
L 467.284091 303.345455 
L 467.284091 279.8 
L 448.261364 279.8 
L 448.261364 303.345455 
" style="fill:none;stroke:#000000;stroke-linecap:square;"/>
   </g>
   <g id="line2d_30">
    <path clip-path="url(#pfab2027b11)" d="M 457.772727 303.345455 
L 457.772727 307.8 
" style="fill:none;stroke:#000000;stroke-linecap:square;"/>
   </g>
   <g id="line2d_31">
    <path clip-path="url(#pfab2027b11)" d="M 457.772727 279.8 
L 457.772727 261.981818 
" style="fill:none;stroke:#000000;stroke-linecap:square;"/>
   </g>
   <g id="line2d_32">
    <path clip-path="url(#pfab2027b11)" d="M 453.017045 307.8 
L 462.528409 307.8 
" style="fill:none;stroke:#000000;stroke-linecap:square;"/>
   </g>
   <g id="line2d_33">
    <path clip-path="url(#pfab2027b11)" d="M 453.017045 261.981818 
L 462.528409 261.981818 
" style="fill:none;stroke:#000000;stroke-linecap:square;"/>
   </g>
   <g id="line2d_34">
    <defs>
     <path d="M 0 3 
C 0.795609 3 1.55874 2.683901 2.12132 2.12132 
C 2.683901 1.55874 3 0.795609 3 0 
C 3 -0.795609 2.683901 -1.55874 2.12132 -2.12132 
C 1.55874 -2.683901 0.795609 -3 0 -3 
C -0.795609 -3 -1.55874 -2.683901 -2.12132 -2.12132 
C -2.683901 -1.55874 -3 -0.795609 -3 0 
C -3 0.795609 -2.683901 1.55874 -2.12132 2.12132 
C -1.55874 2.683901 -0.795609 3 0 3 
z
" id="m3195e7c9ef" style="stroke:#000000;"/>
    </defs>
    <g clip-path="url(#pfab2027b11)">
     <use style="fill-opacity:0;stroke:#000000;" x="457.772727" xlink:href="#m3195e7c9ef" y="208.527273"/>
     <use style="fill-opacity:0;stroke:#000000;" x="457.772727" xlink:href="#m3195e7c9ef" y="228.890909"/>
     <use style="fill-opacity:0;stroke:#000000;" x="457.772727" xlink:href="#m3195e7c9ef" y="239.072727"/>
     <use style="fill-opacity:0;stroke:#000000;" x="457.772727" xlink:href="#m3195e7c9ef" y="218.709091"/>
    </g>
   </g>
   <g id="line2d_35">
    <path clip-path="url(#pfab2027b11)" d="M 575.079545 218.709091 
L 594.102273 218.709091 
L 594.102273 111.163636 
L 575.079545 111.163636 
L 575.079545 218.709091 
" style="fill:none;stroke:#000000;stroke-linecap:square;"/>
   </g>
   <g id="line2d_36">
    <path clip-path="url(#pfab2027b11)" d="M 584.590909 218.709091 
L 584.590909 279.8 
" style="fill:none;stroke:#000000;stroke-linecap:square;"/>
   </g>
   <g id="line2d_37">
    <path clip-path="url(#pfab2027b11)" d="M 584.590909 111.163636 
L 584.590909 55.8 
" style="fill:none;stroke:#000000;stroke-linecap:square;"/>
   </g>
   <g id="line2d_38">
    <path clip-path="url(#pfab2027b11)" d="M 579.835227 279.8 
L 589.346591 279.8 
" style="fill:none;stroke:#000000;stroke-linecap:square;"/>
   </g>
   <g id="line2d_39">
    <path clip-path="url(#pfab2027b11)" d="M 579.835227 55.8 
L 589.346591 55.8 
" style="fill:none;stroke:#000000;stroke-linecap:square;"/>
   </g>
   <g id="line2d_40"/>
   <g id="line2d_41">
    <path clip-path="url(#pfab2027b11)" d="M 448.261364 301.436364 
L 467.284091 301.436364 
" style="fill:none;stroke:#ff7f0e;stroke-linecap:square;"/>
   </g>
   <g id="line2d_42">
    <path clip-path="url(#pfab2027b11)" d="M 575.079545 151.254545 
L 594.102273 151.254545 
" style="fill:none;stroke:#ff7f0e;stroke-linecap:square;"/>
   </g>
   <g id="patch_8">
    <path d="M 394.363636 320.4 
L 394.363636 43.2 
" style="fill:none;stroke:#000000;stroke-linecap:square;stroke-linejoin:miter;stroke-width:0.8;"/>
   </g>
   <g id="patch_9">
    <path d="M 648 320.4 
L 648 43.2 
" style="fill:none;stroke:#000000;stroke-linecap:square;stroke-linejoin:miter;stroke-width:0.8;"/>
   </g>
   <g id="patch_10">
    <path d="M 394.363636 320.4 
L 648 320.4 
" style="fill:none;stroke:#000000;stroke-linecap:square;stroke-linejoin:miter;stroke-width:0.8;"/>
   </g>
   <g id="patch_11">
    <path d="M 394.363636 43.2 
L 648 43.2 
" style="fill:none;stroke:#000000;stroke-linecap:square;stroke-linejoin:miter;stroke-width:0.8;"/>
   </g>
   <g id="text_19">
    <!-- Box plot -->
    <g transform="translate(496.624006 37.2)scale(0.12 -0.12)">
     <defs>
      <path d="M 19.671875 34.8125 
L 19.671875 8.109375 
L 35.5 8.109375 
Q 43.453125 8.109375 47.28125 11.40625 
Q 51.125 14.703125 51.125 21.484375 
Q 51.125 28.328125 47.28125 31.5625 
Q 43.453125 34.8125 35.5 34.8125 
z
M 19.671875 64.796875 
L 19.671875 42.828125 
L 34.28125 42.828125 
Q 41.5 42.828125 45.03125 45.53125 
Q 48.578125 48.25 48.578125 53.8125 
Q 48.578125 59.328125 45.03125 62.0625 
Q 41.5 64.796875 34.28125 64.796875 
z
M 9.8125 72.90625 
L 35.015625 72.90625 
Q 46.296875 72.90625 52.390625 68.21875 
Q 58.5 63.53125 58.5 54.890625 
Q 58.5 48.1875 55.375 44.234375 
Q 52.25 40.28125 46.1875 39.3125 
Q 53.46875 37.75 57.5 32.78125 
Q 61.53125 27.828125 61.53125 20.40625 
Q 61.53125 10.640625 54.890625 5.3125 
Q 48.25 0 35.984375 0 
L 9.8125 0 
z
" id="DejaVuSans-66"/>
     </defs>
     <use xlink:href="#DejaVuSans-66"/>
     <use x="68.603516" xlink:href="#DejaVuSans-111"/>
     <use x="126.660156" xlink:href="#DejaVuSans-120"/>
     <use x="185.839844" xlink:href="#DejaVuSans-32"/>
     <use x="217.626953" xlink:href="#DejaVuSans-112"/>
     <use x="281.103516" xlink:href="#DejaVuSans-108"/>
     <use x="308.886719" xlink:href="#DejaVuSans-111"/>
     <use x="370.068359" xlink:href="#DejaVuSans-116"/>
    </g>
   </g>
  </g>
  <g id="text_20">
   <!-- Overheads and Marketing's Expense -->
   <g transform="translate(250.419375 16.318125)scale(0.12 -0.12)">
    <defs>
     <path d="M 17.921875 72.90625 
L 17.921875 45.796875 
L 9.625 45.796875 
L 9.625 72.90625 
z
" id="DejaVuSans-39"/>
    </defs>
    <use xlink:href="#DejaVuSans-79"/>
    <use x="78.710938" xlink:href="#DejaVuSans-118"/>
    <use x="137.890625" xlink:href="#DejaVuSans-101"/>
    <use x="199.414062" xlink:href="#DejaVuSans-114"/>
    <use x="238.777344" xlink:href="#DejaVuSans-104"/>
    <use x="302.15625" xlink:href="#DejaVuSans-101"/>
    <use x="363.679688" xlink:href="#DejaVuSans-97"/>
    <use x="424.958984" xlink:href="#DejaVuSans-100"/>
    <use x="488.435547" xlink:href="#DejaVuSans-115"/>
    <use x="540.535156" xlink:href="#DejaVuSans-32"/>
    <use x="572.322266" xlink:href="#DejaVuSans-97"/>
    <use x="633.601562" xlink:href="#DejaVuSans-110"/>
    <use x="696.980469" xlink:href="#DejaVuSans-100"/>
    <use x="760.457031" xlink:href="#DejaVuSans-32"/>
    <use x="792.244141" xlink:href="#DejaVuSans-77"/>
    <use x="878.523438" xlink:href="#DejaVuSans-97"/>
    <use x="939.802734" xlink:href="#DejaVuSans-114"/>
    <use x="980.916016" xlink:href="#DejaVuSans-107"/>
    <use x="1035.201172" xlink:href="#DejaVuSans-101"/>
    <use x="1096.724609" xlink:href="#DejaVuSans-116"/>
    <use x="1135.933594" xlink:href="#DejaVuSans-105"/>
    <use x="1163.716797" xlink:href="#DejaVuSans-110"/>
    <use x="1227.095703" xlink:href="#DejaVuSans-103"/>
    <use x="1290.572266" xlink:href="#DejaVuSans-39"/>
    <use x="1318.0625" xlink:href="#DejaVuSans-115"/>
    <use x="1370.162109" xlink:href="#DejaVuSans-32"/>
    <use x="1401.949219" xlink:href="#DejaVuSans-69"/>
    <use x="1465.132812" xlink:href="#DejaVuSans-120"/>
    <use x="1524.3125" xlink:href="#DejaVuSans-112"/>
    <use x="1587.789062" xlink:href="#DejaVuSans-101"/>
    <use x="1649.3125" xlink:href="#DejaVuSans-110"/>
    <use x="1712.691406" xlink:href="#DejaVuSans-115"/>
    <use x="1764.791016" xlink:href="#DejaVuSans-101"/>
   </g>
  </g>
 </g>
 <defs>
  <clipPath id="p6455595cba">
   <rect height="277.2" width="253.636364" x="90" y="43.2"/>
  </clipPath>
  <clipPath id="pfab2027b11">
   <rect height="277.2" width="253.636364" x="394.363636" y="43.2"/>
  </clipPath>
 </defs>
</svg>
