<?xml version="1.0" encoding="utf-8" standalone="no"?>
<!DOCTYPE svg PUBLIC "-//W3C//DTD SVG 1.1//EN"
  "http://www.w3.org/Graphics/SVG/1.1/DTD/svg11.dtd">
<!-- Created with matplotlib (https://matplotlib.org/) -->
<svg height="576pt" version="1.1" viewBox="0 0 1152 576" width="1152pt" xmlns="http://www.w3.org/2000/svg" xmlns:xlink="http://www.w3.org/1999/xlink">
 <metadata>
  <rdf:RDF xmlns:cc="http://creativecommons.org/ns#" xmlns:dc="http://purl.org/dc/elements/1.1/" xmlns:rdf="http://www.w3.org/1999/02/22-rdf-syntax-ns#">
   <cc:Work>
    <dc:type rdf:resource="http://purl.org/dc/dcmitype/StillImage"/>
    <dc:date>2021-03-26T02:14:29.682985</dc:date>
    <dc:format>image/svg+xml</dc:format>
    <dc:creator>
     <cc:Agent>
      <dc:title>Matplotlib v3.3.4, https://matplotlib.org/</dc:title>
     </cc:Agent>
    </dc:creator>
   </cc:Work>
  </rdf:RDF>
 </metadata>
 <defs>
  <style type="text/css">*{stroke-linecap:butt;stroke-linejoin:round;}</style>
 </defs>
 <g id="figure_1">
  <g id="patch_1">
   <path d="M 0 576 
L 1152 576 
L 1152 0 
L 0 0 
z
" style="fill:#ffffff;"/>
  </g>
  <g id="axes_1">
   <g id="patch_2">
    <path d="M 144 512.64 
L 1036.8 512.64 
L 1036.8 69.12 
L 144 69.12 
z
" style="fill:#ffffff;"/>
   </g>
   <g id="patch_3">
    <path clip-path="url(#p5563c1e7d7)" d="M 184.581818 512.64 
L 191.737302 512.64 
L 191.737302 495.744 
L 184.581818 495.744 
z
" style="fill:#1f77b4;"/>
   </g>
   <g id="patch_4">
    <path clip-path="url(#p5563c1e7d7)" d="M 205.026059 512.64 
L 212.181543 512.64 
L 212.181543 461.952 
L 205.026059 461.952 
z
" style="fill:#1f77b4;"/>
   </g>
   <g id="patch_5">
    <path clip-path="url(#p5563c1e7d7)" d="M 225.4703 512.64 
L 232.625784 512.64 
L 232.625784 432.384 
L 225.4703 432.384 
z
" style="fill:#1f77b4;"/>
   </g>
   <g id="patch_6">
    <path clip-path="url(#p5563c1e7d7)" d="M 245.914541 512.64 
L 253.070025 512.64 
L 253.070025 499.968 
L 245.914541 499.968 
z
" style="fill:#1f77b4;"/>
   </g>
   <g id="patch_7">
    <path clip-path="url(#p5563c1e7d7)" d="M 266.358782 512.64 
L 273.514266 512.64 
L 273.514266 495.744 
L 266.358782 495.744 
z
" style="fill:#1f77b4;"/>
   </g>
   <g id="patch_8">
    <path clip-path="url(#p5563c1e7d7)" d="M 286.803023 512.64 
L 293.958507 512.64 
L 293.958507 495.744 
L 286.803023 495.744 
z
" style="fill:#1f77b4;"/>
   </g>
   <g id="patch_9">
    <path clip-path="url(#p5563c1e7d7)" d="M 307.247264 512.64 
L 314.402748 512.64 
L 314.402748 495.744 
L 307.247264 495.744 
z
" style="fill:#1f77b4;"/>
   </g>
   <g id="patch_10">
    <path clip-path="url(#p5563c1e7d7)" d="M 327.691504 512.64 
L 334.846989 512.64 
L 334.846989 461.952 
L 327.691504 461.952 
z
" style="fill:#1f77b4;"/>
   </g>
   <g id="patch_11">
    <path clip-path="url(#p5563c1e7d7)" d="M 348.135745 512.64 
L 355.29123 512.64 
L 355.29123 504.192 
L 348.135745 504.192 
z
" style="fill:#1f77b4;"/>
   </g>
   <g id="patch_12">
    <path clip-path="url(#p5563c1e7d7)" d="M 368.579986 512.64 
L 375.735471 512.64 
L 375.735471 343.68 
L 368.579986 343.68 
z
" style="fill:#1f77b4;"/>
   </g>
   <g id="patch_13">
    <path clip-path="url(#p5563c1e7d7)" d="M 389.024227 512.64 
L 396.179711 512.64 
L 396.179711 508.416 
L 389.024227 508.416 
z
" style="fill:#1f77b4;"/>
   </g>
   <g id="patch_14">
    <path clip-path="url(#p5563c1e7d7)" d="M 409.468468 512.64 
L 416.623952 512.64 
L 416.623952 377.472 
L 409.468468 377.472 
z
" style="fill:#1f77b4;"/>
   </g>
   <g id="patch_15">
    <path clip-path="url(#p5563c1e7d7)" d="M 429.912709 512.64 
L 437.068193 512.64 
L 437.068193 508.416 
L 429.912709 508.416 
z
" style="fill:#1f77b4;"/>
   </g>
   <g id="patch_16">
    <path clip-path="url(#p5563c1e7d7)" d="M 450.35695 512.64 
L 457.512434 512.64 
L 457.512434 504.192 
L 450.35695 504.192 
z
" style="fill:#1f77b4;"/>
   </g>
   <g id="patch_17">
    <path clip-path="url(#p5563c1e7d7)" d="M 470.801191 512.64 
L 477.956675 512.64 
L 477.956675 504.192 
L 470.801191 504.192 
z
" style="fill:#1f77b4;"/>
   </g>
   <g id="patch_18">
    <path clip-path="url(#p5563c1e7d7)" d="M 491.245432 512.64 
L 498.400916 512.64 
L 498.400916 504.192 
L 491.245432 504.192 
z
" style="fill:#1f77b4;"/>
   </g>
   <g id="patch_19">
    <path clip-path="url(#p5563c1e7d7)" d="M 511.689673 512.64 
L 518.845157 512.64 
L 518.845157 499.968 
L 511.689673 499.968 
z
" style="fill:#1f77b4;"/>
   </g>
   <g id="patch_20">
    <path clip-path="url(#p5563c1e7d7)" d="M 532.133913 512.64 
L 539.289398 512.64 
L 539.289398 440.832 
L 532.133913 440.832 
z
" style="fill:#1f77b4;"/>
   </g>
   <g id="patch_21">
    <path clip-path="url(#p5563c1e7d7)" d="M 552.578154 512.64 
L 559.733639 512.64 
L 559.733639 499.968 
L 552.578154 499.968 
z
" style="fill:#1f77b4;"/>
   </g>
   <g id="patch_22">
    <path clip-path="url(#p5563c1e7d7)" d="M 573.022395 512.64 
L 580.17788 512.64 
L 580.17788 504.192 
L 573.022395 504.192 
z
" style="fill:#1f77b4;"/>
   </g>
   <g id="patch_23">
    <path clip-path="url(#p5563c1e7d7)" d="M 593.466636 512.64 
L 600.62212 512.64 
L 600.62212 432.384 
L 593.466636 432.384 
z
" style="fill:#1f77b4;"/>
   </g>
   <g id="patch_24">
    <path clip-path="url(#p5563c1e7d7)" d="M 613.910877 512.64 
L 621.066361 512.64 
L 621.066361 499.968 
L 613.910877 499.968 
z
" style="fill:#1f77b4;"/>
   </g>
   <g id="patch_25">
    <path clip-path="url(#p5563c1e7d7)" d="M 634.355118 512.64 
L 641.510602 512.64 
L 641.510602 495.744 
L 634.355118 495.744 
z
" style="fill:#1f77b4;"/>
   </g>
   <g id="patch_26">
    <path clip-path="url(#p5563c1e7d7)" d="M 654.799359 512.64 
L 661.954843 512.64 
L 661.954843 495.744 
L 654.799359 495.744 
z
" style="fill:#1f77b4;"/>
   </g>
   <g id="patch_27">
    <path clip-path="url(#p5563c1e7d7)" d="M 675.2436 512.64 
L 682.399084 512.64 
L 682.399084 499.968 
L 675.2436 499.968 
z
" style="fill:#1f77b4;"/>
   </g>
   <g id="patch_28">
    <path clip-path="url(#p5563c1e7d7)" d="M 695.687841 512.64 
L 702.843325 512.64 
L 702.843325 499.968 
L 695.687841 499.968 
z
" style="fill:#1f77b4;"/>
   </g>
   <g id="patch_29">
    <path clip-path="url(#p5563c1e7d7)" d="M 716.132082 512.64 
L 723.287566 512.64 
L 723.287566 449.28 
L 716.132082 449.28 
z
" style="fill:#1f77b4;"/>
   </g>
   <g id="patch_30">
    <path clip-path="url(#p5563c1e7d7)" d="M 736.576322 512.64 
L 743.731807 512.64 
L 743.731807 394.368 
L 736.576322 394.368 
z
" style="fill:#1f77b4;"/>
   </g>
   <g id="patch_31">
    <path clip-path="url(#p5563c1e7d7)" d="M 757.020563 512.64 
L 764.176048 512.64 
L 764.176048 360.576 
L 757.020563 360.576 
z
" style="fill:#1f77b4;"/>
   </g>
   <g id="patch_32">
    <path clip-path="url(#p5563c1e7d7)" d="M 777.464804 512.64 
L 784.620289 512.64 
L 784.620289 445.056 
L 777.464804 445.056 
z
" style="fill:#1f77b4;"/>
   </g>
   <g id="patch_33">
    <path clip-path="url(#p5563c1e7d7)" d="M 797.909045 512.64 
L 805.064529 512.64 
L 805.064529 504.192 
L 797.909045 504.192 
z
" style="fill:#1f77b4;"/>
   </g>
   <g id="patch_34">
    <path clip-path="url(#p5563c1e7d7)" d="M 818.353286 512.64 
L 825.50877 512.64 
L 825.50877 499.968 
L 818.353286 499.968 
z
" style="fill:#1f77b4;"/>
   </g>
   <g id="patch_35">
    <path clip-path="url(#p5563c1e7d7)" d="M 838.797527 512.64 
L 845.953011 512.64 
L 845.953011 499.968 
L 838.797527 499.968 
z
" style="fill:#1f77b4;"/>
   </g>
   <g id="patch_36">
    <path clip-path="url(#p5563c1e7d7)" d="M 859.241768 512.64 
L 866.397252 512.64 
L 866.397252 466.176 
L 859.241768 466.176 
z
" style="fill:#1f77b4;"/>
   </g>
   <g id="patch_37">
    <path clip-path="url(#p5563c1e7d7)" d="M 879.686009 512.64 
L 886.841493 512.64 
L 886.841493 504.192 
L 879.686009 504.192 
z
" style="fill:#1f77b4;"/>
   </g>
   <g id="patch_38">
    <path clip-path="url(#p5563c1e7d7)" d="M 900.13025 512.64 
L 907.285734 512.64 
L 907.285734 495.744 
L 900.13025 495.744 
z
" style="fill:#1f77b4;"/>
   </g>
   <g id="patch_39">
    <path clip-path="url(#p5563c1e7d7)" d="M 920.57449 512.64 
L 927.729975 512.64 
L 927.729975 499.968 
L 920.57449 499.968 
z
" style="fill:#1f77b4;"/>
   </g>
   <g id="patch_40">
    <path clip-path="url(#p5563c1e7d7)" d="M 941.018731 512.64 
L 948.174216 512.64 
L 948.174216 508.416 
L 941.018731 508.416 
z
" style="fill:#1f77b4;"/>
   </g>
   <g id="patch_41">
    <path clip-path="url(#p5563c1e7d7)" d="M 961.462972 512.64 
L 968.618457 512.64 
L 968.618457 499.968 
L 961.462972 499.968 
z
" style="fill:#1f77b4;"/>
   </g>
   <g id="patch_42">
    <path clip-path="url(#p5563c1e7d7)" d="M 981.907213 512.64 
L 989.062698 512.64 
L 989.062698 495.744 
L 981.907213 495.744 
z
" style="fill:#1f77b4;"/>
   </g>
   <g id="patch_43">
    <path clip-path="url(#p5563c1e7d7)" d="M 191.737302 512.64 
L 198.892787 512.64 
L 198.892787 183.168 
L 191.737302 183.168 
z
" style="fill:#ff7f0e;"/>
   </g>
   <g id="patch_44">
    <path clip-path="url(#p5563c1e7d7)" d="M 212.181543 512.64 
L 219.337028 512.64 
L 219.337028 250.752 
L 212.181543 250.752 
z
" style="fill:#ff7f0e;"/>
   </g>
   <g id="patch_45">
    <path clip-path="url(#p5563c1e7d7)" d="M 232.625784 512.64 
L 239.781269 512.64 
L 239.781269 149.376 
L 232.625784 149.376 
z
" style="fill:#ff7f0e;"/>
   </g>
   <g id="patch_46">
    <path clip-path="url(#p5563c1e7d7)" d="M 253.070025 512.64 
L 260.22551 512.64 
L 260.22551 246.528 
L 253.070025 246.528 
z
" style="fill:#ff7f0e;"/>
   </g>
   <g id="patch_47">
    <path clip-path="url(#p5563c1e7d7)" d="M 273.514266 512.64 
L 280.66975 512.64 
L 280.66975 225.408 
L 273.514266 225.408 
z
" style="fill:#ff7f0e;"/>
   </g>
   <g id="patch_48">
    <path clip-path="url(#p5563c1e7d7)" d="M 293.958507 512.64 
L 301.113991 512.64 
L 301.113991 195.84 
L 293.958507 195.84 
z
" style="fill:#ff7f0e;"/>
   </g>
   <g id="patch_49">
    <path clip-path="url(#p5563c1e7d7)" d="M 314.402748 512.64 
L 321.558232 512.64 
L 321.558232 331.008 
L 314.402748 331.008 
z
" style="fill:#ff7f0e;"/>
   </g>
   <g id="patch_50">
    <path clip-path="url(#p5563c1e7d7)" d="M 334.846989 512.64 
L 342.002473 512.64 
L 342.002473 208.512 
L 334.846989 208.512 
z
" style="fill:#ff7f0e;"/>
   </g>
   <g id="patch_51">
    <path clip-path="url(#p5563c1e7d7)" d="M 355.29123 512.64 
L 362.446714 512.64 
L 362.446714 178.944 
L 355.29123 178.944 
z
" style="fill:#ff7f0e;"/>
   </g>
   <g id="patch_52">
    <path clip-path="url(#p5563c1e7d7)" d="M 375.735471 512.64 
L 382.890955 512.64 
L 382.890955 314.112 
L 375.735471 314.112 
z
" style="fill:#ff7f0e;"/>
   </g>
   <g id="patch_53">
    <path clip-path="url(#p5563c1e7d7)" d="M 396.179711 512.64 
L 403.335196 512.64 
L 403.335196 347.904 
L 396.179711 347.904 
z
" style="fill:#ff7f0e;"/>
   </g>
   <g id="patch_54">
    <path clip-path="url(#p5563c1e7d7)" d="M 416.623952 512.64 
L 423.779437 512.64 
L 423.779437 377.472 
L 416.623952 377.472 
z
" style="fill:#ff7f0e;"/>
   </g>
   <g id="patch_55">
    <path clip-path="url(#p5563c1e7d7)" d="M 437.068193 512.64 
L 444.223678 512.64 
L 444.223678 145.152 
L 437.068193 145.152 
z
" style="fill:#ff7f0e;"/>
   </g>
   <g id="patch_56">
    <path clip-path="url(#p5563c1e7d7)" d="M 457.512434 512.64 
L 464.667918 512.64 
L 464.667918 124.032 
L 457.512434 124.032 
z
" style="fill:#ff7f0e;"/>
   </g>
   <g id="patch_57">
    <path clip-path="url(#p5563c1e7d7)" d="M 477.956675 512.64 
L 485.112159 512.64 
L 485.112159 360.576 
L 477.956675 360.576 
z
" style="fill:#ff7f0e;"/>
   </g>
   <g id="patch_58">
    <path clip-path="url(#p5563c1e7d7)" d="M 498.400916 512.64 
L 505.5564 512.64 
L 505.5564 221.184 
L 498.400916 221.184 
z
" style="fill:#ff7f0e;"/>
   </g>
   <g id="patch_59">
    <path clip-path="url(#p5563c1e7d7)" d="M 518.845157 512.64 
L 526.000641 512.64 
L 526.000641 390.144 
L 518.845157 390.144 
z
" style="fill:#ff7f0e;"/>
   </g>
   <g id="patch_60">
    <path clip-path="url(#p5563c1e7d7)" d="M 539.289398 512.64 
L 546.444882 512.64 
L 546.444882 335.232 
L 539.289398 335.232 
z
" style="fill:#ff7f0e;"/>
   </g>
   <g id="patch_61">
    <path clip-path="url(#p5563c1e7d7)" d="M 559.733639 512.64 
L 566.889123 512.64 
L 566.889123 461.952 
L 559.733639 461.952 
z
" style="fill:#ff7f0e;"/>
   </g>
   <g id="patch_62">
    <path clip-path="url(#p5563c1e7d7)" d="M 580.17788 512.64 
L 587.333364 512.64 
L 587.333364 394.368 
L 580.17788 394.368 
z
" style="fill:#ff7f0e;"/>
   </g>
   <g id="patch_63">
    <path clip-path="url(#p5563c1e7d7)" d="M 600.62212 512.64 
L 607.777605 512.64 
L 607.777605 166.272 
L 600.62212 166.272 
z
" style="fill:#ff7f0e;"/>
   </g>
   <g id="patch_64">
    <path clip-path="url(#p5563c1e7d7)" d="M 621.066361 512.64 
L 628.221846 512.64 
L 628.221846 128.256 
L 621.066361 128.256 
z
" style="fill:#ff7f0e;"/>
   </g>
   <g id="patch_65">
    <path clip-path="url(#p5563c1e7d7)" d="M 641.510602 512.64 
L 648.666087 512.64 
L 648.666087 301.44 
L 641.510602 301.44 
z
" style="fill:#ff7f0e;"/>
   </g>
   <g id="patch_66">
    <path clip-path="url(#p5563c1e7d7)" d="M 661.954843 512.64 
L 669.110327 512.64 
L 669.110327 352.128 
L 661.954843 352.128 
z
" style="fill:#ff7f0e;"/>
   </g>
   <g id="patch_67">
    <path clip-path="url(#p5563c1e7d7)" d="M 682.399084 512.64 
L 689.554568 512.64 
L 689.554568 369.024 
L 682.399084 369.024 
z
" style="fill:#ff7f0e;"/>
   </g>
   <g id="patch_68">
    <path clip-path="url(#p5563c1e7d7)" d="M 702.843325 512.64 
L 709.998809 512.64 
L 709.998809 360.576 
L 702.843325 360.576 
z
" style="fill:#ff7f0e;"/>
   </g>
   <g id="patch_69">
    <path clip-path="url(#p5563c1e7d7)" d="M 723.287566 512.64 
L 730.44305 512.64 
L 730.44305 457.728 
L 723.287566 457.728 
z
" style="fill:#ff7f0e;"/>
   </g>
   <g id="patch_70">
    <path clip-path="url(#p5563c1e7d7)" d="M 743.731807 512.64 
L 750.887291 512.64 
L 750.887291 90.24 
L 743.731807 90.24 
z
" style="fill:#ff7f0e;"/>
   </g>
   <g id="patch_71">
    <path clip-path="url(#p5563c1e7d7)" d="M 764.176048 512.64 
L 771.331532 512.64 
L 771.331532 419.712 
L 764.176048 419.712 
z
" style="fill:#ff7f0e;"/>
   </g>
   <g id="patch_72">
    <path clip-path="url(#p5563c1e7d7)" d="M 784.620289 512.64 
L 791.775773 512.64 
L 791.775773 200.064 
L 784.620289 200.064 
z
" style="fill:#ff7f0e;"/>
   </g>
   <g id="patch_73">
    <path clip-path="url(#p5563c1e7d7)" d="M 805.064529 512.64 
L 812.220014 512.64 
L 812.220014 208.512 
L 805.064529 208.512 
z
" style="fill:#ff7f0e;"/>
   </g>
   <g id="patch_74">
    <path clip-path="url(#p5563c1e7d7)" d="M 825.50877 512.64 
L 832.664255 512.64 
L 832.664255 369.024 
L 825.50877 369.024 
z
" style="fill:#ff7f0e;"/>
   </g>
   <g id="patch_75">
    <path clip-path="url(#p5563c1e7d7)" d="M 845.953011 512.64 
L 853.108496 512.64 
L 853.108496 250.752 
L 845.953011 250.752 
z
" style="fill:#ff7f0e;"/>
   </g>
   <g id="patch_76">
    <path clip-path="url(#p5563c1e7d7)" d="M 866.397252 512.64 
L 873.552736 512.64 
L 873.552736 111.36 
L 866.397252 111.36 
z
" style="fill:#ff7f0e;"/>
   </g>
   <g id="patch_77">
    <path clip-path="url(#p5563c1e7d7)" d="M 886.841493 512.64 
L 893.996977 512.64 
L 893.996977 145.152 
L 886.841493 145.152 
z
" style="fill:#ff7f0e;"/>
   </g>
   <g id="patch_78">
    <path clip-path="url(#p5563c1e7d7)" d="M 907.285734 512.64 
L 914.441218 512.64 
L 914.441218 187.392 
L 907.285734 187.392 
z
" style="fill:#ff7f0e;"/>
   </g>
   <g id="patch_79">
    <path clip-path="url(#p5563c1e7d7)" d="M 927.729975 512.64 
L 934.885459 512.64 
L 934.885459 174.72 
L 927.729975 174.72 
z
" style="fill:#ff7f0e;"/>
   </g>
   <g id="patch_80">
    <path clip-path="url(#p5563c1e7d7)" d="M 948.174216 512.64 
L 955.3297 512.64 
L 955.3297 225.408 
L 948.174216 225.408 
z
" style="fill:#ff7f0e;"/>
   </g>
   <g id="patch_81">
    <path clip-path="url(#p5563c1e7d7)" d="M 968.618457 512.64 
L 975.773941 512.64 
L 975.773941 271.872 
L 968.618457 271.872 
z
" style="fill:#ff7f0e;"/>
   </g>
   <g id="patch_82">
    <path clip-path="url(#p5563c1e7d7)" d="M 989.062698 512.64 
L 996.218182 512.64 
L 996.218182 364.8 
L 989.062698 364.8 
z
" style="fill:#ff7f0e;"/>
   </g>
   <g id="matplotlib.axis_1">
    <g id="xtick_1">
     <g id="line2d_1">
      <defs>
       <path d="M 0 0 
L 0 3.5 
" id="mbc54909ea4" style="stroke:#000000;stroke-width:0.8;"/>
      </defs>
      <g>
       <use style="stroke:#000000;stroke-width:0.8;" x="191.737302" xlink:href="#mbc54909ea4" y="512.64"/>
      </g>
     </g>
     <g id="text_1">
      <!-- TAP -->
      <g transform="translate(193.944802 536.5325)rotate(-90)scale(0.08 -0.08)">
       <defs>
        <path d="M 0.484375 72.90625 
L 67.671875 72.90625 
L 67.671875 58.6875 
L 43.5 58.6875 
L 43.5 0 
L 24.703125 0 
L 24.703125 58.6875 
L 0.484375 58.6875 
z
" id="DejaVuSans-Bold-84"/>
        <path d="M 53.421875 13.28125 
L 24.03125 13.28125 
L 19.390625 0 
L 0.484375 0 
L 27.484375 72.90625 
L 49.90625 72.90625 
L 76.90625 0 
L 58.015625 0 
z
M 28.71875 26.8125 
L 48.6875 26.8125 
L 38.71875 55.8125 
z
" id="DejaVuSans-Bold-65"/>
        <path d="M 9.1875 72.90625 
L 40.375 72.90625 
Q 54.296875 72.90625 61.734375 66.71875 
Q 69.1875 60.546875 69.1875 49.125 
Q 69.1875 37.640625 61.734375 31.46875 
Q 54.296875 25.296875 40.375 25.296875 
L 27.984375 25.296875 
L 27.984375 0 
L 9.1875 0 
z
M 27.984375 59.28125 
L 27.984375 38.921875 
L 38.375 38.921875 
Q 43.84375 38.921875 46.828125 41.578125 
Q 49.8125 44.234375 49.8125 49.125 
Q 49.8125 54 46.828125 56.640625 
Q 43.84375 59.28125 38.375 59.28125 
z
" id="DejaVuSans-Bold-80"/>
       </defs>
       <use xlink:href="#DejaVuSans-Bold-84"/>
       <use x="60.462891" xlink:href="#DejaVuSans-Bold-65"/>
       <use x="137.855469" xlink:href="#DejaVuSans-Bold-80"/>
      </g>
     </g>
    </g>
    <g id="xtick_2">
     <g id="line2d_2">
      <g>
       <use style="stroke:#000000;stroke-width:0.8;" x="212.181543" xlink:href="#mbc54909ea4" y="512.64"/>
      </g>
     </g>
     <g id="text_2">
      <!-- OMV -->
      <g transform="translate(214.389043 540.59375)rotate(-90)scale(0.08 -0.08)">
       <defs>
        <path d="M 42.484375 60.59375 
Q 33.890625 60.59375 29.15625 54.25 
Q 24.421875 47.90625 24.421875 36.375 
Q 24.421875 24.90625 29.15625 18.546875 
Q 33.890625 12.203125 42.484375 12.203125 
Q 51.125 12.203125 55.859375 18.546875 
Q 60.59375 24.90625 60.59375 36.375 
Q 60.59375 47.90625 55.859375 54.25 
Q 51.125 60.59375 42.484375 60.59375 
z
M 42.484375 74.21875 
Q 60.0625 74.21875 70.015625 64.15625 
Q 79.984375 54.109375 79.984375 36.375 
Q 79.984375 18.703125 70.015625 8.640625 
Q 60.0625 -1.421875 42.484375 -1.421875 
Q 24.953125 -1.421875 14.96875 8.640625 
Q 4.984375 18.703125 4.984375 36.375 
Q 4.984375 54.109375 14.96875 64.15625 
Q 24.953125 74.21875 42.484375 74.21875 
z
" id="DejaVuSans-Bold-79"/>
        <path d="M 9.1875 72.90625 
L 33.109375 72.90625 
L 49.703125 33.890625 
L 66.40625 72.90625 
L 90.28125 72.90625 
L 90.28125 0 
L 72.515625 0 
L 72.515625 53.328125 
L 55.71875 14.015625 
L 43.796875 14.015625 
L 27 53.328125 
L 27 0 
L 9.1875 0 
z
" id="DejaVuSans-Bold-77"/>
        <path d="M 0.484375 72.90625 
L 19.390625 72.90625 
L 38.71875 19.09375 
L 58.015625 72.90625 
L 76.90625 72.90625 
L 49.90625 0 
L 27.484375 0 
z
" id="DejaVuSans-Bold-86"/>
       </defs>
       <use xlink:href="#DejaVuSans-Bold-79"/>
       <use x="85.009766" xlink:href="#DejaVuSans-Bold-77"/>
       <use x="184.521484" xlink:href="#DejaVuSans-Bold-86"/>
      </g>
     </g>
    </g>
    <g id="xtick_3">
     <g id="line2d_3">
      <g>
       <use style="stroke:#000000;stroke-width:0.8;" x="232.625784" xlink:href="#mbc54909ea4" y="512.64"/>
      </g>
     </g>
     <g id="text_3">
      <!-- RGS -->
      <g transform="translate(234.833284 538.1275)rotate(-90)scale(0.08 -0.08)">
       <defs>
        <path d="M 35.890625 40.578125 
Q 41.796875 40.578125 44.359375 42.765625 
Q 46.921875 44.96875 46.921875 50 
Q 46.921875 54.984375 44.359375 57.125 
Q 41.796875 59.28125 35.890625 59.28125 
L 27.984375 59.28125 
L 27.984375 40.578125 
z
M 27.984375 27.59375 
L 27.984375 0 
L 9.1875 0 
L 9.1875 72.90625 
L 37.890625 72.90625 
Q 52.296875 72.90625 59 68.0625 
Q 65.71875 63.234375 65.71875 52.78125 
Q 65.71875 45.5625 62.21875 40.921875 
Q 58.734375 36.28125 51.703125 34.078125 
Q 55.5625 33.203125 58.609375 30.09375 
Q 61.671875 27 64.796875 20.703125 
L 75 0 
L 54.984375 0 
L 46.09375 18.109375 
Q 43.40625 23.578125 40.640625 25.578125 
Q 37.890625 27.59375 33.296875 27.59375 
z
" id="DejaVuSans-Bold-82"/>
        <path d="M 74.703125 5.421875 
Q 67.671875 2 60.109375 0.28125 
Q 52.546875 -1.421875 44.484375 -1.421875 
Q 26.265625 -1.421875 15.625 8.765625 
Q 4.984375 18.953125 4.984375 36.375 
Q 4.984375 54 15.8125 64.109375 
Q 26.65625 74.21875 45.515625 74.21875 
Q 52.78125 74.21875 59.4375 72.84375 
Q 66.109375 71.484375 72.015625 68.796875 
L 72.015625 53.71875 
Q 65.921875 57.171875 59.890625 58.875 
Q 53.859375 60.59375 47.796875 60.59375 
Q 36.578125 60.59375 30.5 54.3125 
Q 24.421875 48.046875 24.421875 36.375 
Q 24.421875 24.8125 30.28125 18.5 
Q 36.140625 12.203125 46.921875 12.203125 
Q 49.859375 12.203125 52.375 12.5625 
Q 54.890625 12.9375 56.890625 13.71875 
L 56.890625 27.875 
L 45.40625 27.875 
L 45.40625 40.484375 
L 74.703125 40.484375 
z
" id="DejaVuSans-Bold-71"/>
        <path d="M 59.90625 70.609375 
L 59.90625 55.171875 
Q 53.90625 57.859375 48.1875 59.21875 
Q 42.484375 60.59375 37.40625 60.59375 
Q 30.671875 60.59375 27.4375 58.734375 
Q 24.21875 56.890625 24.21875 52.984375 
Q 24.21875 50.046875 26.390625 48.40625 
Q 28.5625 46.78125 34.28125 45.609375 
L 42.28125 44 
Q 54.4375 41.546875 59.5625 36.5625 
Q 64.703125 31.59375 64.703125 22.40625 
Q 64.703125 10.359375 57.546875 4.46875 
Q 50.390625 -1.421875 35.6875 -1.421875 
Q 28.765625 -1.421875 21.78125 -0.09375 
Q 14.796875 1.21875 7.8125 3.8125 
L 7.8125 19.671875 
Q 14.796875 15.96875 21.3125 14.078125 
Q 27.828125 12.203125 33.890625 12.203125 
Q 40.046875 12.203125 43.3125 14.25 
Q 46.578125 16.3125 46.578125 20.125 
Q 46.578125 23.53125 44.359375 25.390625 
Q 42.140625 27.25 35.5 28.71875 
L 28.21875 30.328125 
Q 17.28125 32.671875 12.21875 37.796875 
Q 7.171875 42.921875 7.171875 51.609375 
Q 7.171875 62.5 14.203125 68.359375 
Q 21.234375 74.21875 34.421875 74.21875 
Q 40.4375 74.21875 46.78125 73.3125 
Q 53.125 72.40625 59.90625 70.609375 
z
" id="DejaVuSans-Bold-83"/>
       </defs>
       <use xlink:href="#DejaVuSans-Bold-82"/>
       <use x="77.001953" xlink:href="#DejaVuSans-Bold-71"/>
       <use x="159.082031" xlink:href="#DejaVuSans-Bold-83"/>
      </g>
     </g>
    </g>
    <g id="xtick_4">
     <g id="line2d_4">
      <g>
       <use style="stroke:#000000;stroke-width:0.8;" x="253.070025" xlink:href="#mbc54909ea4" y="512.64"/>
      </g>
     </g>
     <g id="text_4">
      <!-- CFG -->
      <g transform="translate(255.277525 537.5425)rotate(-90)scale(0.08 -0.08)">
       <defs>
        <path d="M 67 4 
Q 61.8125 1.3125 56.203125 -0.046875 
Q 50.59375 -1.421875 44.484375 -1.421875 
Q 26.265625 -1.421875 15.625 8.765625 
Q 4.984375 18.953125 4.984375 36.375 
Q 4.984375 53.859375 15.625 64.03125 
Q 26.265625 74.21875 44.484375 74.21875 
Q 50.59375 74.21875 56.203125 72.84375 
Q 61.8125 71.484375 67 68.796875 
L 67 53.71875 
Q 61.765625 57.28125 56.6875 58.9375 
Q 51.609375 60.59375 46 60.59375 
Q 35.9375 60.59375 30.171875 54.140625 
Q 24.421875 47.703125 24.421875 36.375 
Q 24.421875 25.09375 30.171875 18.640625 
Q 35.9375 12.203125 46 12.203125 
Q 51.609375 12.203125 56.6875 13.859375 
Q 61.765625 15.53125 67 19.09375 
z
" id="DejaVuSans-Bold-67"/>
        <path d="M 9.1875 72.90625 
L 59.90625 72.90625 
L 59.90625 58.6875 
L 27.984375 58.6875 
L 27.984375 45.125 
L 58.015625 45.125 
L 58.015625 30.90625 
L 27.984375 30.90625 
L 27.984375 0 
L 9.1875 0 
z
" id="DejaVuSans-Bold-70"/>
       </defs>
       <use xlink:href="#DejaVuSans-Bold-67"/>
       <use x="73.388672" xlink:href="#DejaVuSans-Bold-70"/>
       <use x="141.699219" xlink:href="#DejaVuSans-Bold-71"/>
      </g>
     </g>
    </g>
    <g id="xtick_5">
     <g id="line2d_5">
      <g>
       <use style="stroke:#000000;stroke-width:0.8;" x="273.514266" xlink:href="#mbc54909ea4" y="512.64"/>
      </g>
     </g>
     <g id="text_5">
      <!-- EFN -->
      <g transform="translate(275.721766 537.265)rotate(-90)scale(0.08 -0.08)">
       <defs>
        <path d="M 9.1875 72.90625 
L 59.90625 72.90625 
L 59.90625 58.6875 
L 27.984375 58.6875 
L 27.984375 45.125 
L 58.015625 45.125 
L 58.015625 30.90625 
L 27.984375 30.90625 
L 27.984375 14.203125 
L 60.984375 14.203125 
L 60.984375 0 
L 9.1875 0 
z
" id="DejaVuSans-Bold-69"/>
        <path d="M 9.1875 72.90625 
L 30.171875 72.90625 
L 56.6875 22.90625 
L 56.6875 72.90625 
L 74.515625 72.90625 
L 74.515625 0 
L 53.515625 0 
L 27 50 
L 27 0 
L 9.1875 0 
z
" id="DejaVuSans-Bold-78"/>
       </defs>
       <use xlink:href="#DejaVuSans-Bold-69"/>
       <use x="68.310547" xlink:href="#DejaVuSans-Bold-70"/>
       <use x="136.621094" xlink:href="#DejaVuSans-Bold-78"/>
      </g>
     </g>
    </g>
    <g id="xtick_6">
     <g id="line2d_6">
      <g>
       <use style="stroke:#000000;stroke-width:0.8;" x="293.958507" xlink:href="#mbc54909ea4" y="512.64"/>
      </g>
     </g>
     <g id="text_6">
      <!-- WMB -->
      <g transform="translate(296.166007 542.5225)rotate(-90)scale(0.08 -0.08)">
       <defs>
        <path d="M 2.984375 72.90625 
L 21 72.90625 
L 33.59375 19.921875 
L 46.09375 72.90625 
L 64.203125 72.90625 
L 76.703125 19.921875 
L 89.3125 72.90625 
L 107.171875 72.90625 
L 89.984375 0 
L 68.3125 0 
L 55.078125 55.421875 
L 42 0 
L 20.3125 0 
z
" id="DejaVuSans-Bold-87"/>
        <path d="M 38.375 44.671875 
Q 42.828125 44.671875 45.109375 46.625 
Q 47.40625 48.578125 47.40625 52.390625 
Q 47.40625 56.15625 45.109375 58.125 
Q 42.828125 60.109375 38.375 60.109375 
L 27.984375 60.109375 
L 27.984375 44.671875 
z
M 39.015625 12.796875 
Q 44.671875 12.796875 47.53125 15.1875 
Q 50.390625 17.578125 50.390625 22.40625 
Q 50.390625 27.15625 47.5625 29.515625 
Q 44.734375 31.890625 39.015625 31.890625 
L 27.984375 31.890625 
L 27.984375 12.796875 
z
M 56.5 39.015625 
Q 62.546875 37.25 65.859375 32.515625 
Q 69.1875 27.78125 69.1875 20.90625 
Q 69.1875 10.359375 62.0625 5.171875 
Q 54.9375 0 40.375 0 
L 9.1875 0 
L 9.1875 72.90625 
L 37.40625 72.90625 
Q 52.59375 72.90625 59.40625 68.3125 
Q 66.21875 63.71875 66.21875 53.609375 
Q 66.21875 48.296875 63.71875 44.5625 
Q 61.234375 40.828125 56.5 39.015625 
z
" id="DejaVuSans-Bold-66"/>
       </defs>
       <use xlink:href="#DejaVuSans-Bold-87"/>
       <use x="110.302734" xlink:href="#DejaVuSans-Bold-77"/>
       <use x="209.814453" xlink:href="#DejaVuSans-Bold-66"/>
      </g>
     </g>
    </g>
    <g id="xtick_7">
     <g id="line2d_7">
      <g>
       <use style="stroke:#000000;stroke-width:0.8;" x="314.402748" xlink:href="#mbc54909ea4" y="512.64"/>
      </g>
     </g>
     <g id="text_7">
      <!-- YGY -->
      <g transform="translate(316.610248 537.61125)rotate(-90)scale(0.08 -0.08)">
       <defs>
        <path d="M -0.984375 72.90625 
L 19.578125 72.90625 
L 36.1875 46.921875 
L 52.78125 72.90625 
L 73.390625 72.90625 
L 45.609375 30.71875 
L 45.609375 0 
L 26.8125 0 
L 26.8125 30.71875 
z
" id="DejaVuSans-Bold-89"/>
       </defs>
       <use xlink:href="#DejaVuSans-Bold-89"/>
       <use x="72.412109" xlink:href="#DejaVuSans-Bold-71"/>
       <use x="152.242188" xlink:href="#DejaVuSans-Bold-89"/>
      </g>
     </g>
    </g>
    <g id="xtick_8">
     <g id="line2d_8">
      <g>
       <use style="stroke:#000000;stroke-width:0.8;" x="334.846989" xlink:href="#mbc54909ea4" y="512.64"/>
      </g>
     </g>
     <g id="text_8">
      <!-- PGL -->
      <g transform="translate(337.054489 537.1675)rotate(-90)scale(0.08 -0.08)">
       <defs>
        <path d="M 9.1875 72.90625 
L 27.984375 72.90625 
L 27.984375 14.203125 
L 60.984375 14.203125 
L 60.984375 0 
L 9.1875 0 
z
" id="DejaVuSans-Bold-76"/>
       </defs>
       <use xlink:href="#DejaVuSans-Bold-80"/>
       <use x="73.291016" xlink:href="#DejaVuSans-Bold-71"/>
       <use x="155.371094" xlink:href="#DejaVuSans-Bold-76"/>
      </g>
     </g>
    </g>
    <g id="xtick_9">
     <g id="line2d_9">
      <g>
       <use style="stroke:#000000;stroke-width:0.8;" x="355.29123" xlink:href="#mbc54909ea4" y="512.64"/>
      </g>
     </g>
     <g id="text_9">
      <!-- WGR -->
      <g transform="translate(357.49873 541.19)rotate(-90)scale(0.08 -0.08)">
       <use xlink:href="#DejaVuSans-Bold-87"/>
       <use x="110.302734" xlink:href="#DejaVuSans-Bold-71"/>
       <use x="192.382812" xlink:href="#DejaVuSans-Bold-82"/>
      </g>
     </g>
    </g>
    <g id="xtick_10">
     <g id="line2d_10">
      <g>
       <use style="stroke:#000000;stroke-width:0.8;" x="375.735471" xlink:href="#mbc54909ea4" y="512.64"/>
      </g>
     </g>
     <g id="text_10">
      <!-- RAH -->
      <g transform="translate(377.942971 538.68625)rotate(-90)scale(0.08 -0.08)">
       <defs>
        <path d="M 9.1875 72.90625 
L 27.984375 72.90625 
L 27.984375 45.125 
L 55.71875 45.125 
L 55.71875 72.90625 
L 74.515625 72.90625 
L 74.515625 0 
L 55.71875 0 
L 55.71875 30.90625 
L 27.984375 30.90625 
L 27.984375 0 
L 9.1875 0 
z
" id="DejaVuSans-Bold-72"/>
       </defs>
       <use xlink:href="#DejaVuSans-Bold-82"/>
       <use x="77.001953" xlink:href="#DejaVuSans-Bold-65"/>
       <use x="154.394531" xlink:href="#DejaVuSans-Bold-72"/>
      </g>
     </g>
    </g>
    <g id="xtick_11">
     <g id="line2d_11">
      <g>
       <use style="stroke:#000000;stroke-width:0.8;" x="396.179711" xlink:href="#mbc54909ea4" y="512.64"/>
      </g>
     </g>
     <g id="text_11">
      <!-- ZSD -->
      <g transform="translate(398.387211 537.84375)rotate(-90)scale(0.08 -0.08)">
       <defs>
        <path d="M 5.609375 72.90625 
L 66.890625 72.90625 
L 66.890625 61.53125 
L 27.78125 14.203125 
L 68.015625 14.203125 
L 68.015625 0 
L 4.5 0 
L 4.5 11.375 
L 43.609375 58.6875 
L 5.609375 58.6875 
z
" id="DejaVuSans-Bold-90"/>
        <path d="M 27.984375 58.6875 
L 27.984375 14.203125 
L 34.71875 14.203125 
Q 46.234375 14.203125 52.3125 19.921875 
Q 58.40625 25.640625 58.40625 36.53125 
Q 58.40625 47.359375 52.34375 53.015625 
Q 46.296875 58.6875 34.71875 58.6875 
z
M 9.1875 72.90625 
L 29 72.90625 
Q 45.609375 72.90625 53.734375 70.53125 
Q 61.859375 68.171875 67.671875 62.5 
Q 72.796875 57.5625 75.28125 51.109375 
Q 77.78125 44.671875 77.78125 36.53125 
Q 77.78125 28.265625 75.28125 21.796875 
Q 72.796875 15.328125 67.671875 10.40625 
Q 61.8125 4.734375 53.609375 2.359375 
Q 45.40625 0 29 0 
L 9.1875 0 
z
" id="DejaVuSans-Bold-68"/>
       </defs>
       <use xlink:href="#DejaVuSans-Bold-90"/>
       <use x="72.509766" xlink:href="#DejaVuSans-Bold-83"/>
       <use x="144.53125" xlink:href="#DejaVuSans-Bold-68"/>
      </g>
     </g>
    </g>
    <g id="xtick_12">
     <g id="line2d_12">
      <g>
       <use style="stroke:#000000;stroke-width:0.8;" x="416.623952" xlink:href="#mbc54909ea4" y="512.64"/>
      </g>
     </g>
     <g id="text_12">
      <!-- SGA -->
      <g transform="translate(418.831452 538.15875)rotate(-90)scale(0.08 -0.08)">
       <use xlink:href="#DejaVuSans-Bold-83"/>
       <use x="72.021484" xlink:href="#DejaVuSans-Bold-71"/>
       <use x="154.101562" xlink:href="#DejaVuSans-Bold-65"/>
      </g>
     </g>
    </g>
    <g id="xtick_13">
     <g id="line2d_13">
      <g>
       <use style="stroke:#000000;stroke-width:0.8;" x="437.068193" xlink:href="#mbc54909ea4" y="512.64"/>
      </g>
     </g>
     <g id="text_13">
      <!-- NGB -->
      <g transform="translate(439.275693 538.99875)rotate(-90)scale(0.08 -0.08)">
       <use xlink:href="#DejaVuSans-Bold-78"/>
       <use x="83.691406" xlink:href="#DejaVuSans-Bold-71"/>
       <use x="165.771484" xlink:href="#DejaVuSans-Bold-66"/>
      </g>
     </g>
    </g>
    <g id="xtick_14">
     <g id="line2d_14">
      <g>
       <use style="stroke:#000000;stroke-width:0.8;" x="457.512434" xlink:href="#mbc54909ea4" y="512.64"/>
      </g>
     </g>
     <g id="text_14">
      <!-- XSV -->
      <g transform="translate(459.719934 537.76)rotate(-90)scale(0.08 -0.08)">
       <defs>
        <path d="M 49.8125 37.203125 
L 75.09375 0 
L 55.515625 0 
L 38.484375 24.90625 
L 21.578125 0 
L 1.90625 0 
L 27.203125 37.203125 
L 2.875 72.90625 
L 22.515625 72.90625 
L 38.484375 49.421875 
L 54.390625 72.90625 
L 74.125 72.90625 
z
" id="DejaVuSans-Bold-88"/>
       </defs>
       <use xlink:href="#DejaVuSans-Bold-88"/>
       <use x="77.099609" xlink:href="#DejaVuSans-Bold-83"/>
       <use x="149.121094" xlink:href="#DejaVuSans-Bold-86"/>
      </g>
     </g>
    </g>
    <g id="xtick_15">
     <g id="line2d_15">
      <g>
       <use style="stroke:#000000;stroke-width:0.8;" x="477.956675" xlink:href="#mbc54909ea4" y="512.64"/>
      </g>
     </g>
     <g id="text_15">
      <!-- YYO -->
      <g transform="translate(480.164175 537.73625)rotate(-90)scale(0.08 -0.08)">
       <use xlink:href="#DejaVuSans-Bold-89"/>
       <use x="72.412109" xlink:href="#DejaVuSans-Bold-89"/>
       <use x="141.199219" xlink:href="#DejaVuSans-Bold-79"/>
      </g>
     </g>
    </g>
    <g id="xtick_16">
     <g id="line2d_16">
      <g>
       <use style="stroke:#000000;stroke-width:0.8;" x="498.400916" xlink:href="#mbc54909ea4" y="512.64"/>
      </g>
     </g>
     <g id="text_16">
      <!-- AEI -->
      <g transform="translate(500.608416 534.2725)rotate(-90)scale(0.08 -0.08)">
       <defs>
        <path d="M 9.1875 72.90625 
L 27.984375 72.90625 
L 27.984375 0 
L 9.1875 0 
z
" id="DejaVuSans-Bold-73"/>
       </defs>
       <use xlink:href="#DejaVuSans-Bold-65"/>
       <use x="77.392578" xlink:href="#DejaVuSans-Bold-69"/>
       <use x="145.703125" xlink:href="#DejaVuSans-Bold-73"/>
      </g>
     </g>
    </g>
    <g id="xtick_17">
     <g id="line2d_17">
      <g>
       <use style="stroke:#000000;stroke-width:0.8;" x="518.845157" xlink:href="#mbc54909ea4" y="512.64"/>
      </g>
     </g>
     <g id="text_17">
      <!-- CNQ -->
      <g transform="translate(521.052657 539.0075)rotate(-90)scale(0.08 -0.08)">
       <defs>
        <path d="M 44.484375 -1.3125 
L 43.015625 -1.3125 
Q 25 -1.3125 14.984375 8.640625 
Q 4.984375 18.609375 4.984375 36.375 
Q 4.984375 54.109375 14.96875 64.15625 
Q 24.953125 74.21875 42.484375 74.21875 
Q 60.203125 74.21875 70.09375 64.25 
Q 79.984375 54.296875 79.984375 36.375 
Q 79.984375 24.078125 74.734375 15.1875 
Q 69.484375 6.296875 59.625 1.8125 
L 74.3125 -14.59375 
L 56.390625 -14.59375 
z
M 42.484375 60.59375 
Q 33.890625 60.59375 29.15625 54.25 
Q 24.421875 47.90625 24.421875 36.375 
Q 24.421875 24.65625 29.046875 18.421875 
Q 33.6875 12.203125 42.484375 12.203125 
Q 51.125 12.203125 55.859375 18.546875 
Q 60.59375 24.90625 60.59375 36.375 
Q 60.59375 47.90625 55.859375 54.25 
Q 51.125 60.59375 42.484375 60.59375 
z
" id="DejaVuSans-Bold-81"/>
       </defs>
       <use xlink:href="#DejaVuSans-Bold-67"/>
       <use x="73.388672" xlink:href="#DejaVuSans-Bold-78"/>
       <use x="157.080078" xlink:href="#DejaVuSans-Bold-81"/>
      </g>
     </g>
    </g>
    <g id="xtick_18">
     <g id="line2d_18">
      <g>
       <use style="stroke:#000000;stroke-width:0.8;" x="539.289398" xlink:href="#mbc54909ea4" y="512.64"/>
      </g>
     </g>
     <g id="text_18">
      <!-- NAQ -->
      <g transform="translate(541.496898 539.3275)rotate(-90)scale(0.08 -0.08)">
       <use xlink:href="#DejaVuSans-Bold-78"/>
       <use x="83.691406" xlink:href="#DejaVuSans-Bold-65"/>
       <use x="161.083984" xlink:href="#DejaVuSans-Bold-81"/>
      </g>
     </g>
    </g>
    <g id="xtick_19">
     <g id="line2d_19">
      <g>
       <use style="stroke:#000000;stroke-width:0.8;" x="559.733639" xlink:href="#mbc54909ea4" y="512.64"/>
      </g>
     </g>
     <g id="text_19">
      <!-- UMU -->
      <g transform="translate(561.941139 540.59375)rotate(-90)scale(0.08 -0.08)">
       <defs>
        <path d="M 9.1875 72.90625 
L 27.984375 72.90625 
L 27.984375 29.203125 
Q 27.984375 20.171875 30.9375 16.28125 
Q 33.890625 12.40625 40.578125 12.40625 
Q 47.3125 12.40625 50.265625 16.28125 
Q 53.21875 20.171875 53.21875 29.203125 
L 53.21875 72.90625 
L 72.015625 72.90625 
L 72.015625 29.203125 
Q 72.015625 13.71875 64.25 6.140625 
Q 56.5 -1.421875 40.578125 -1.421875 
Q 24.703125 -1.421875 16.9375 6.140625 
Q 9.1875 13.71875 9.1875 29.203125 
z
" id="DejaVuSans-Bold-85"/>
       </defs>
       <use xlink:href="#DejaVuSans-Bold-85"/>
       <use x="81.201172" xlink:href="#DejaVuSans-Bold-77"/>
       <use x="180.712891" xlink:href="#DejaVuSans-Bold-85"/>
      </g>
     </g>
    </g>
    <g id="xtick_20">
     <g id="line2d_20">
      <g>
       <use style="stroke:#000000;stroke-width:0.8;" x="580.17788" xlink:href="#mbc54909ea4" y="512.64"/>
      </g>
     </g>
     <g id="text_20">
      <!-- DZT -->
      <g transform="translate(582.38538 537.54)rotate(-90)scale(0.08 -0.08)">
       <use xlink:href="#DejaVuSans-Bold-68"/>
       <use x="83.007812" xlink:href="#DejaVuSans-Bold-90"/>
       <use x="155.517578" xlink:href="#DejaVuSans-Bold-84"/>
      </g>
     </g>
    </g>
    <g id="xtick_21">
     <g id="line2d_21">
      <g>
       <use style="stroke:#000000;stroke-width:0.8;" x="600.62212" xlink:href="#mbc54909ea4" y="512.64"/>
      </g>
     </g>
     <g id="text_21">
      <!-- PAA -->
      <g transform="translate(602.82962 537.15625)rotate(-90)scale(0.08 -0.08)">
       <use xlink:href="#DejaVuSans-Bold-80"/>
       <use x="64.166016" xlink:href="#DejaVuSans-Bold-65"/>
       <use x="141.558594" xlink:href="#DejaVuSans-Bold-65"/>
      </g>
     </g>
    </g>
    <g id="xtick_22">
     <g id="line2d_22">
      <g>
       <use style="stroke:#000000;stroke-width:0.8;" x="621.066361" xlink:href="#mbc54909ea4" y="512.64"/>
      </g>
     </g>
     <g id="text_22">
      <!-- UGJ -->
      <g transform="translate(623.273861 535.67875)rotate(-90)scale(0.08 -0.08)">
       <defs>
        <path d="M 9.1875 72.90625 
L 27.984375 72.90625 
L 27.984375 7.078125 
Q 27.984375 -6.546875 20.578125 -13.28125 
Q 13.1875 -20.015625 -1.8125 -20.015625 
L -5.609375 -20.015625 
L -5.609375 -5.8125 
L -2.6875 -5.8125 
Q 3.171875 -5.8125 6.171875 -2.53125 
Q 9.1875 0.734375 9.1875 7.078125 
z
" id="DejaVuSans-Bold-74"/>
       </defs>
       <use xlink:href="#DejaVuSans-Bold-85"/>
       <use x="81.201172" xlink:href="#DejaVuSans-Bold-71"/>
       <use x="163.28125" xlink:href="#DejaVuSans-Bold-74"/>
      </g>
     </g>
    </g>
    <g id="xtick_23">
     <g id="line2d_23">
      <g>
       <use style="stroke:#000000;stroke-width:0.8;" x="641.510602" xlink:href="#mbc54909ea4" y="512.64"/>
      </g>
     </g>
     <g id="text_23">
      <!-- TSE -->
      <g transform="translate(643.718102 536.32375)rotate(-90)scale(0.08 -0.08)">
       <use xlink:href="#DejaVuSans-Bold-84"/>
       <use x="68.212891" xlink:href="#DejaVuSans-Bold-83"/>
       <use x="140.234375" xlink:href="#DejaVuSans-Bold-69"/>
      </g>
     </g>
    </g>
    <g id="xtick_24">
     <g id="line2d_24">
      <g>
       <use style="stroke:#000000;stroke-width:0.8;" x="661.954843" xlink:href="#mbc54909ea4" y="512.64"/>
      </g>
     </g>
     <g id="text_24">
      <!-- BTB -->
      <g transform="translate(664.162343 537.2925)rotate(-90)scale(0.08 -0.08)">
       <use xlink:href="#DejaVuSans-Bold-66"/>
       <use x="76.220703" xlink:href="#DejaVuSans-Bold-84"/>
       <use x="144.433594" xlink:href="#DejaVuSans-Bold-66"/>
      </g>
     </g>
    </g>
    <g id="xtick_25">
     <g id="line2d_25">
      <g>
       <use style="stroke:#000000;stroke-width:0.8;" x="682.399084" xlink:href="#mbc54909ea4" y="512.64"/>
      </g>
     </g>
     <g id="text_25">
      <!-- BZM -->
      <g transform="translate(684.606584 539.5)rotate(-90)scale(0.08 -0.08)">
       <use xlink:href="#DejaVuSans-Bold-66"/>
       <use x="76.220703" xlink:href="#DejaVuSans-Bold-90"/>
       <use x="148.730469" xlink:href="#DejaVuSans-Bold-77"/>
      </g>
     </g>
    </g>
    <g id="xtick_26">
     <g id="line2d_26">
      <g>
       <use style="stroke:#000000;stroke-width:0.8;" x="702.843325" xlink:href="#mbc54909ea4" y="512.64"/>
      </g>
     </g>
     <g id="text_26">
      <!-- VYZ -->
      <g transform="translate(705.050825 537.425)rotate(-90)scale(0.08 -0.08)">
       <use xlink:href="#DejaVuSans-Bold-86"/>
       <use x="77.392578" xlink:href="#DejaVuSans-Bold-89"/>
       <use x="149.804688" xlink:href="#DejaVuSans-Bold-90"/>
      </g>
     </g>
    </g>
    <g id="xtick_27">
     <g id="line2d_27">
      <g>
       <use style="stroke:#000000;stroke-width:0.8;" x="723.287566" xlink:href="#mbc54909ea4" y="512.64"/>
      </g>
     </g>
     <g id="text_27">
      <!-- QMD -->
      <g transform="translate(725.495066 541.04375)rotate(-90)scale(0.08 -0.08)">
       <use xlink:href="#DejaVuSans-Bold-81"/>
       <use x="85.009766" xlink:href="#DejaVuSans-Bold-77"/>
       <use x="184.521484" xlink:href="#DejaVuSans-Bold-68"/>
      </g>
     </g>
    </g>
    <g id="xtick_28">
     <g id="line2d_28">
      <g>
       <use style="stroke:#000000;stroke-width:0.8;" x="743.731807" xlink:href="#mbc54909ea4" y="512.64"/>
      </g>
     </g>
     <g id="text_28">
      <!-- SMM -->
      <g transform="translate(745.939307 541.32375)rotate(-90)scale(0.08 -0.08)">
       <use xlink:href="#DejaVuSans-Bold-83"/>
       <use x="72.021484" xlink:href="#DejaVuSans-Bold-77"/>
       <use x="171.533203" xlink:href="#DejaVuSans-Bold-77"/>
      </g>
     </g>
    </g>
    <g id="xtick_29">
     <g id="line2d_29">
      <g>
       <use style="stroke:#000000;stroke-width:0.8;" x="764.176048" xlink:href="#mbc54909ea4" y="512.64"/>
      </g>
     </g>
     <g id="text_29">
      <!-- QSN -->
      <g transform="translate(766.383548 538.8975)rotate(-90)scale(0.08 -0.08)">
       <use xlink:href="#DejaVuSans-Bold-81"/>
       <use x="85.009766" xlink:href="#DejaVuSans-Bold-83"/>
       <use x="157.03125" xlink:href="#DejaVuSans-Bold-78"/>
      </g>
     </g>
    </g>
    <g id="xtick_30">
     <g id="line2d_30">
      <g>
       <use style="stroke:#000000;stroke-width:0.8;" x="784.620289" xlink:href="#mbc54909ea4" y="512.64"/>
      </g>
     </g>
     <g id="text_30">
      <!-- OSG -->
      <g transform="translate(786.827789 538.76875)rotate(-90)scale(0.08 -0.08)">
       <use xlink:href="#DejaVuSans-Bold-79"/>
       <use x="85.009766" xlink:href="#DejaVuSans-Bold-83"/>
       <use x="157.03125" xlink:href="#DejaVuSans-Bold-71"/>
      </g>
     </g>
    </g>
    <g id="xtick_31">
     <g id="line2d_31">
      <g>
       <use style="stroke:#000000;stroke-width:0.8;" x="805.064529" xlink:href="#mbc54909ea4" y="512.64"/>
      </g>
     </g>
     <g id="text_31">
      <!-- NMO -->
      <g transform="translate(807.272029 541.0975)rotate(-90)scale(0.08 -0.08)">
       <use xlink:href="#DejaVuSans-Bold-78"/>
       <use x="83.691406" xlink:href="#DejaVuSans-Bold-77"/>
       <use x="183.203125" xlink:href="#DejaVuSans-Bold-79"/>
      </g>
     </g>
    </g>
    <g id="xtick_32">
     <g id="line2d_32">
      <g>
       <use style="stroke:#000000;stroke-width:0.8;" x="825.50877" xlink:href="#mbc54909ea4" y="512.64"/>
      </g>
     </g>
     <g id="text_32">
      <!-- VSM -->
      <g transform="translate(827.71627 539.55375)rotate(-90)scale(0.08 -0.08)">
       <use xlink:href="#DejaVuSans-Bold-86"/>
       <use x="77.392578" xlink:href="#DejaVuSans-Bold-83"/>
       <use x="149.414062" xlink:href="#DejaVuSans-Bold-77"/>
      </g>
     </g>
    </g>
    <g id="xtick_33">
     <g id="line2d_33">
      <g>
       <use style="stroke:#000000;stroke-width:0.8;" x="845.953011" xlink:href="#mbc54909ea4" y="512.64"/>
      </g>
     </g>
     <g id="text_33">
      <!-- ATT -->
      <g transform="translate(848.160511 536.30625)rotate(-90)scale(0.08 -0.08)">
       <use xlink:href="#DejaVuSans-Bold-65"/>
       <use x="69.642578" xlink:href="#DejaVuSans-Bold-84"/>
       <use x="140.105469" xlink:href="#DejaVuSans-Bold-84"/>
      </g>
     </g>
    </g>
    <g id="xtick_34">
     <g id="line2d_34">
      <g>
       <use style="stroke:#000000;stroke-width:0.8;" x="866.397252" xlink:href="#mbc54909ea4" y="512.64"/>
      </g>
     </g>
     <g id="text_34">
      <!-- MUY -->
      <g transform="translate(868.604752 539.89)rotate(-90)scale(0.08 -0.08)">
       <use xlink:href="#DejaVuSans-Bold-77"/>
       <use x="99.511719" xlink:href="#DejaVuSans-Bold-85"/>
       <use x="180.712891" xlink:href="#DejaVuSans-Bold-89"/>
      </g>
     </g>
    </g>
    <g id="xtick_35">
     <g id="line2d_35">
      <g>
       <use style="stroke:#000000;stroke-width:0.8;" x="886.841493" xlink:href="#mbc54909ea4" y="512.64"/>
      </g>
     </g>
     <g id="text_35">
      <!-- ZMS -->
      <g transform="translate(889.048993 539.16375)rotate(-90)scale(0.08 -0.08)">
       <use xlink:href="#DejaVuSans-Bold-90"/>
       <use x="72.509766" xlink:href="#DejaVuSans-Bold-77"/>
       <use x="172.021484" xlink:href="#DejaVuSans-Bold-83"/>
      </g>
     </g>
    </g>
    <g id="xtick_36">
     <g id="line2d_36">
      <g>
       <use style="stroke:#000000;stroke-width:0.8;" x="907.285734" xlink:href="#mbc54909ea4" y="512.64"/>
      </g>
     </g>
     <g id="text_36">
      <!-- XML -->
      <g transform="translate(909.493234 538.86625)rotate(-90)scale(0.08 -0.08)">
       <use xlink:href="#DejaVuSans-Bold-88"/>
       <use x="77.099609" xlink:href="#DejaVuSans-Bold-77"/>
       <use x="176.611328" xlink:href="#DejaVuSans-Bold-76"/>
      </g>
     </g>
    </g>
    <g id="xtick_37">
     <g id="line2d_37">
      <g>
       <use style="stroke:#000000;stroke-width:0.8;" x="927.729975" xlink:href="#mbc54909ea4" y="512.64"/>
      </g>
     </g>
     <g id="text_37">
      <!-- ENY -->
      <g transform="translate(929.937475 537.5925)rotate(-90)scale(0.08 -0.08)">
       <use xlink:href="#DejaVuSans-Bold-69"/>
       <use x="68.310547" xlink:href="#DejaVuSans-Bold-78"/>
       <use x="152.001953" xlink:href="#DejaVuSans-Bold-89"/>
      </g>
     </g>
    </g>
    <g id="xtick_38">
     <g id="line2d_38">
      <g>
       <use style="stroke:#000000;stroke-width:0.8;" x="948.174216" xlink:href="#mbc54909ea4" y="512.64"/>
      </g>
     </g>
     <g id="text_38">
      <!-- MAJ -->
      <g transform="translate(950.381716 536.76875)rotate(-90)scale(0.08 -0.08)">
       <use xlink:href="#DejaVuSans-Bold-77"/>
       <use x="99.511719" xlink:href="#DejaVuSans-Bold-65"/>
       <use x="176.904297" xlink:href="#DejaVuSans-Bold-74"/>
      </g>
     </g>
    </g>
    <g id="xtick_39">
     <g id="line2d_39">
      <g>
       <use style="stroke:#000000;stroke-width:0.8;" x="968.618457" xlink:href="#mbc54909ea4" y="512.64"/>
      </g>
     </g>
     <g id="text_39">
      <!-- DTJ -->
      <g transform="translate(970.825957 534.715)rotate(-90)scale(0.08 -0.08)">
       <use xlink:href="#DejaVuSans-Bold-68"/>
       <use x="83.007812" xlink:href="#DejaVuSans-Bold-84"/>
       <use x="151.220703" xlink:href="#DejaVuSans-Bold-74"/>
      </g>
     </g>
    </g>
    <g id="xtick_40">
     <g id="line2d_40">
      <g>
       <use style="stroke:#000000;stroke-width:0.8;" x="989.062698" xlink:href="#mbc54909ea4" y="512.64"/>
      </g>
     </g>
     <g id="text_40">
      <!-- WYG -->
      <g transform="translate(991.270198 540.8225)rotate(-90)scale(0.08 -0.08)">
       <use xlink:href="#DejaVuSans-Bold-87"/>
       <use x="110.302734" xlink:href="#DejaVuSans-Bold-89"/>
       <use x="182.714844" xlink:href="#DejaVuSans-Bold-71"/>
      </g>
     </g>
    </g>
    <g id="text_41">
     <!-- Stores -->
     <g transform="translate(571.418437 555.640625)scale(0.12 -0.12)">
      <defs>
       <path d="M 53.515625 70.515625 
L 53.515625 60.890625 
Q 47.90625 63.578125 42.921875 64.890625 
Q 37.9375 66.21875 33.296875 66.21875 
Q 25.25 66.21875 20.875 63.09375 
Q 16.5 59.96875 16.5 54.203125 
Q 16.5 49.359375 19.40625 46.890625 
Q 22.3125 44.4375 30.421875 42.921875 
L 36.375 41.703125 
Q 47.40625 39.59375 52.65625 34.296875 
Q 57.90625 29 57.90625 20.125 
Q 57.90625 9.515625 50.796875 4.046875 
Q 43.703125 -1.421875 29.984375 -1.421875 
Q 24.8125 -1.421875 18.96875 -0.25 
Q 13.140625 0.921875 6.890625 3.21875 
L 6.890625 13.375 
Q 12.890625 10.015625 18.65625 8.296875 
Q 24.421875 6.59375 29.984375 6.59375 
Q 38.421875 6.59375 43.015625 9.90625 
Q 47.609375 13.234375 47.609375 19.390625 
Q 47.609375 24.75 44.3125 27.78125 
Q 41.015625 30.8125 33.5 32.328125 
L 27.484375 33.5 
Q 16.453125 35.6875 11.515625 40.375 
Q 6.59375 45.0625 6.59375 53.421875 
Q 6.59375 63.09375 13.40625 68.65625 
Q 20.21875 74.21875 32.171875 74.21875 
Q 37.3125 74.21875 42.625 73.28125 
Q 47.953125 72.359375 53.515625 70.515625 
z
" id="DejaVuSans-83"/>
       <path d="M 18.3125 70.21875 
L 18.3125 54.6875 
L 36.8125 54.6875 
L 36.8125 47.703125 
L 18.3125 47.703125 
L 18.3125 18.015625 
Q 18.3125 11.328125 20.140625 9.421875 
Q 21.96875 7.515625 27.59375 7.515625 
L 36.8125 7.515625 
L 36.8125 0 
L 27.59375 0 
Q 17.1875 0 13.234375 3.875 
Q 9.28125 7.765625 9.28125 18.015625 
L 9.28125 47.703125 
L 2.6875 47.703125 
L 2.6875 54.6875 
L 9.28125 54.6875 
L 9.28125 70.21875 
z
" id="DejaVuSans-116"/>
       <path d="M 30.609375 48.390625 
Q 23.390625 48.390625 19.1875 42.75 
Q 14.984375 37.109375 14.984375 27.296875 
Q 14.984375 17.484375 19.15625 11.84375 
Q 23.34375 6.203125 30.609375 6.203125 
Q 37.796875 6.203125 41.984375 11.859375 
Q 46.1875 17.53125 46.1875 27.296875 
Q 46.1875 37.015625 41.984375 42.703125 
Q 37.796875 48.390625 30.609375 48.390625 
z
M 30.609375 56 
Q 42.328125 56 49.015625 48.375 
Q 55.71875 40.765625 55.71875 27.296875 
Q 55.71875 13.875 49.015625 6.21875 
Q 42.328125 -1.421875 30.609375 -1.421875 
Q 18.84375 -1.421875 12.171875 6.21875 
Q 5.515625 13.875 5.515625 27.296875 
Q 5.515625 40.765625 12.171875 48.375 
Q 18.84375 56 30.609375 56 
z
" id="DejaVuSans-111"/>
       <path d="M 41.109375 46.296875 
Q 39.59375 47.171875 37.8125 47.578125 
Q 36.03125 48 33.890625 48 
Q 26.265625 48 22.1875 43.046875 
Q 18.109375 38.09375 18.109375 28.8125 
L 18.109375 0 
L 9.078125 0 
L 9.078125 54.6875 
L 18.109375 54.6875 
L 18.109375 46.1875 
Q 20.953125 51.171875 25.484375 53.578125 
Q 30.03125 56 36.53125 56 
Q 37.453125 56 38.578125 55.875 
Q 39.703125 55.765625 41.0625 55.515625 
z
" id="DejaVuSans-114"/>
       <path d="M 56.203125 29.59375 
L 56.203125 25.203125 
L 14.890625 25.203125 
Q 15.484375 15.921875 20.484375 11.0625 
Q 25.484375 6.203125 34.421875 6.203125 
Q 39.59375 6.203125 44.453125 7.46875 
Q 49.3125 8.734375 54.109375 11.28125 
L 54.109375 2.78125 
Q 49.265625 0.734375 44.1875 -0.34375 
Q 39.109375 -1.421875 33.890625 -1.421875 
Q 20.796875 -1.421875 13.15625 6.1875 
Q 5.515625 13.8125 5.515625 26.8125 
Q 5.515625 40.234375 12.765625 48.109375 
Q 20.015625 56 32.328125 56 
Q 43.359375 56 49.78125 48.890625 
Q 56.203125 41.796875 56.203125 29.59375 
z
M 47.21875 32.234375 
Q 47.125 39.59375 43.09375 43.984375 
Q 39.0625 48.390625 32.421875 48.390625 
Q 24.90625 48.390625 20.390625 44.140625 
Q 15.875 39.890625 15.1875 32.171875 
z
" id="DejaVuSans-101"/>
       <path d="M 44.28125 53.078125 
L 44.28125 44.578125 
Q 40.484375 46.53125 36.375 47.5 
Q 32.28125 48.484375 27.875 48.484375 
Q 21.1875 48.484375 17.84375 46.4375 
Q 14.5 44.390625 14.5 40.28125 
Q 14.5 37.15625 16.890625 35.375 
Q 19.28125 33.59375 26.515625 31.984375 
L 29.59375 31.296875 
Q 39.15625 29.25 43.1875 25.515625 
Q 47.21875 21.78125 47.21875 15.09375 
Q 47.21875 7.46875 41.1875 3.015625 
Q 35.15625 -1.421875 24.609375 -1.421875 
Q 20.21875 -1.421875 15.453125 -0.5625 
Q 10.6875 0.296875 5.421875 2 
L 5.421875 11.28125 
Q 10.40625 8.6875 15.234375 7.390625 
Q 20.0625 6.109375 24.8125 6.109375 
Q 31.15625 6.109375 34.5625 8.28125 
Q 37.984375 10.453125 37.984375 14.40625 
Q 37.984375 18.0625 35.515625 20.015625 
Q 33.0625 21.96875 24.703125 23.78125 
L 21.578125 24.515625 
Q 13.234375 26.265625 9.515625 29.90625 
Q 5.8125 33.546875 5.8125 39.890625 
Q 5.8125 47.609375 11.28125 51.796875 
Q 16.75 56 26.8125 56 
Q 31.78125 56 36.171875 55.265625 
Q 40.578125 54.546875 44.28125 53.078125 
z
" id="DejaVuSans-115"/>
      </defs>
      <use xlink:href="#DejaVuSans-83"/>
      <use x="63.476562" xlink:href="#DejaVuSans-116"/>
      <use x="102.685547" xlink:href="#DejaVuSans-111"/>
      <use x="163.867188" xlink:href="#DejaVuSans-114"/>
      <use x="202.730469" xlink:href="#DejaVuSans-101"/>
      <use x="264.253906" xlink:href="#DejaVuSans-115"/>
     </g>
    </g>
   </g>
   <g id="matplotlib.axis_2">
    <g id="ytick_1">
     <g id="line2d_41">
      <defs>
       <path d="M 0 0 
L -3.5 0 
" id="mcf61134cb1" style="stroke:#000000;stroke-width:0.8;"/>
      </defs>
      <g>
       <use style="stroke:#000000;stroke-width:0.8;" x="144" xlink:href="#mcf61134cb1" y="512.64"/>
      </g>
     </g>
     <g id="text_42">
      <!-- 0 -->
      <g transform="translate(130.6375 516.439219)scale(0.1 -0.1)">
       <defs>
        <path d="M 31.78125 66.40625 
Q 24.171875 66.40625 20.328125 58.90625 
Q 16.5 51.421875 16.5 36.375 
Q 16.5 21.390625 20.328125 13.890625 
Q 24.171875 6.390625 31.78125 6.390625 
Q 39.453125 6.390625 43.28125 13.890625 
Q 47.125 21.390625 47.125 36.375 
Q 47.125 51.421875 43.28125 58.90625 
Q 39.453125 66.40625 31.78125 66.40625 
z
M 31.78125 74.21875 
Q 44.046875 74.21875 50.515625 64.515625 
Q 56.984375 54.828125 56.984375 36.375 
Q 56.984375 17.96875 50.515625 8.265625 
Q 44.046875 -1.421875 31.78125 -1.421875 
Q 19.53125 -1.421875 13.0625 8.265625 
Q 6.59375 17.96875 6.59375 36.375 
Q 6.59375 54.828125 13.0625 64.515625 
Q 19.53125 74.21875 31.78125 74.21875 
z
" id="DejaVuSans-48"/>
       </defs>
       <use xlink:href="#DejaVuSans-48"/>
      </g>
     </g>
    </g>
    <g id="ytick_2">
     <g id="line2d_42">
      <g>
       <use style="stroke:#000000;stroke-width:0.8;" x="144" xlink:href="#mcf61134cb1" y="428.16"/>
      </g>
     </g>
     <g id="text_43">
      <!-- 20 -->
      <g transform="translate(124.275 431.959219)scale(0.1 -0.1)">
       <defs>
        <path d="M 19.1875 8.296875 
L 53.609375 8.296875 
L 53.609375 0 
L 7.328125 0 
L 7.328125 8.296875 
Q 12.9375 14.109375 22.625 23.890625 
Q 32.328125 33.6875 34.8125 36.53125 
Q 39.546875 41.84375 41.421875 45.53125 
Q 43.3125 49.21875 43.3125 52.78125 
Q 43.3125 58.59375 39.234375 62.25 
Q 35.15625 65.921875 28.609375 65.921875 
Q 23.96875 65.921875 18.8125 64.3125 
Q 13.671875 62.703125 7.8125 59.421875 
L 7.8125 69.390625 
Q 13.765625 71.78125 18.9375 73 
Q 24.125 74.21875 28.421875 74.21875 
Q 39.75 74.21875 46.484375 68.546875 
Q 53.21875 62.890625 53.21875 53.421875 
Q 53.21875 48.921875 51.53125 44.890625 
Q 49.859375 40.875 45.40625 35.40625 
Q 44.1875 33.984375 37.640625 27.21875 
Q 31.109375 20.453125 19.1875 8.296875 
z
" id="DejaVuSans-50"/>
       </defs>
       <use xlink:href="#DejaVuSans-50"/>
       <use x="63.623047" xlink:href="#DejaVuSans-48"/>
      </g>
     </g>
    </g>
    <g id="ytick_3">
     <g id="line2d_43">
      <g>
       <use style="stroke:#000000;stroke-width:0.8;" x="144" xlink:href="#mcf61134cb1" y="343.68"/>
      </g>
     </g>
     <g id="text_44">
      <!-- 40 -->
      <g transform="translate(124.275 347.479219)scale(0.1 -0.1)">
       <defs>
        <path d="M 37.796875 64.3125 
L 12.890625 25.390625 
L 37.796875 25.390625 
z
M 35.203125 72.90625 
L 47.609375 72.90625 
L 47.609375 25.390625 
L 58.015625 25.390625 
L 58.015625 17.1875 
L 47.609375 17.1875 
L 47.609375 0 
L 37.796875 0 
L 37.796875 17.1875 
L 4.890625 17.1875 
L 4.890625 26.703125 
z
" id="DejaVuSans-52"/>
       </defs>
       <use xlink:href="#DejaVuSans-52"/>
       <use x="63.623047" xlink:href="#DejaVuSans-48"/>
      </g>
     </g>
    </g>
    <g id="ytick_4">
     <g id="line2d_44">
      <g>
       <use style="stroke:#000000;stroke-width:0.8;" x="144" xlink:href="#mcf61134cb1" y="259.2"/>
      </g>
     </g>
     <g id="text_45">
      <!-- 60 -->
      <g transform="translate(124.275 262.999219)scale(0.1 -0.1)">
       <defs>
        <path d="M 33.015625 40.375 
Q 26.375 40.375 22.484375 35.828125 
Q 18.609375 31.296875 18.609375 23.390625 
Q 18.609375 15.53125 22.484375 10.953125 
Q 26.375 6.390625 33.015625 6.390625 
Q 39.65625 6.390625 43.53125 10.953125 
Q 47.40625 15.53125 47.40625 23.390625 
Q 47.40625 31.296875 43.53125 35.828125 
Q 39.65625 40.375 33.015625 40.375 
z
M 52.59375 71.296875 
L 52.59375 62.3125 
Q 48.875 64.0625 45.09375 64.984375 
Q 41.3125 65.921875 37.59375 65.921875 
Q 27.828125 65.921875 22.671875 59.328125 
Q 17.53125 52.734375 16.796875 39.40625 
Q 19.671875 43.65625 24.015625 45.921875 
Q 28.375 48.1875 33.59375 48.1875 
Q 44.578125 48.1875 50.953125 41.515625 
Q 57.328125 34.859375 57.328125 23.390625 
Q 57.328125 12.15625 50.6875 5.359375 
Q 44.046875 -1.421875 33.015625 -1.421875 
Q 20.359375 -1.421875 13.671875 8.265625 
Q 6.984375 17.96875 6.984375 36.375 
Q 6.984375 53.65625 15.1875 63.9375 
Q 23.390625 74.21875 37.203125 74.21875 
Q 40.921875 74.21875 44.703125 73.484375 
Q 48.484375 72.75 52.59375 71.296875 
z
" id="DejaVuSans-54"/>
       </defs>
       <use xlink:href="#DejaVuSans-54"/>
       <use x="63.623047" xlink:href="#DejaVuSans-48"/>
      </g>
     </g>
    </g>
    <g id="ytick_5">
     <g id="line2d_45">
      <g>
       <use style="stroke:#000000;stroke-width:0.8;" x="144" xlink:href="#mcf61134cb1" y="174.72"/>
      </g>
     </g>
     <g id="text_46">
      <!-- 80 -->
      <g transform="translate(124.275 178.519219)scale(0.1 -0.1)">
       <defs>
        <path d="M 31.78125 34.625 
Q 24.75 34.625 20.71875 30.859375 
Q 16.703125 27.09375 16.703125 20.515625 
Q 16.703125 13.921875 20.71875 10.15625 
Q 24.75 6.390625 31.78125 6.390625 
Q 38.8125 6.390625 42.859375 10.171875 
Q 46.921875 13.96875 46.921875 20.515625 
Q 46.921875 27.09375 42.890625 30.859375 
Q 38.875 34.625 31.78125 34.625 
z
M 21.921875 38.8125 
Q 15.578125 40.375 12.03125 44.71875 
Q 8.5 49.078125 8.5 55.328125 
Q 8.5 64.0625 14.71875 69.140625 
Q 20.953125 74.21875 31.78125 74.21875 
Q 42.671875 74.21875 48.875 69.140625 
Q 55.078125 64.0625 55.078125 55.328125 
Q 55.078125 49.078125 51.53125 44.71875 
Q 48 40.375 41.703125 38.8125 
Q 48.828125 37.15625 52.796875 32.3125 
Q 56.78125 27.484375 56.78125 20.515625 
Q 56.78125 9.90625 50.3125 4.234375 
Q 43.84375 -1.421875 31.78125 -1.421875 
Q 19.734375 -1.421875 13.25 4.234375 
Q 6.78125 9.90625 6.78125 20.515625 
Q 6.78125 27.484375 10.78125 32.3125 
Q 14.796875 37.15625 21.921875 38.8125 
z
M 18.3125 54.390625 
Q 18.3125 48.734375 21.84375 45.5625 
Q 25.390625 42.390625 31.78125 42.390625 
Q 38.140625 42.390625 41.71875 45.5625 
Q 45.3125 48.734375 45.3125 54.390625 
Q 45.3125 60.0625 41.71875 63.234375 
Q 38.140625 66.40625 31.78125 66.40625 
Q 25.390625 66.40625 21.84375 63.234375 
Q 18.3125 60.0625 18.3125 54.390625 
z
" id="DejaVuSans-56"/>
       </defs>
       <use xlink:href="#DejaVuSans-56"/>
       <use x="63.623047" xlink:href="#DejaVuSans-48"/>
      </g>
     </g>
    </g>
    <g id="ytick_6">
     <g id="line2d_46">
      <g>
       <use style="stroke:#000000;stroke-width:0.8;" x="144" xlink:href="#mcf61134cb1" y="90.24"/>
      </g>
     </g>
     <g id="text_47">
      <!-- 100 -->
      <g transform="translate(117.9125 94.039219)scale(0.1 -0.1)">
       <defs>
        <path d="M 12.40625 8.296875 
L 28.515625 8.296875 
L 28.515625 63.921875 
L 10.984375 60.40625 
L 10.984375 69.390625 
L 28.421875 72.90625 
L 38.28125 72.90625 
L 38.28125 8.296875 
L 54.390625 8.296875 
L 54.390625 0 
L 12.40625 0 
z
" id="DejaVuSans-49"/>
       </defs>
       <use xlink:href="#DejaVuSans-49"/>
       <use x="63.623047" xlink:href="#DejaVuSans-48"/>
       <use x="127.246094" xlink:href="#DejaVuSans-48"/>
      </g>
     </g>
    </g>
    <g id="text_48">
     <!-- Expense in thousands(1000)  -->
     <g transform="translate(111.416875 382.470937)rotate(-90)scale(0.12 -0.12)">
      <defs>
       <path d="M 9.8125 72.90625 
L 55.90625 72.90625 
L 55.90625 64.59375 
L 19.671875 64.59375 
L 19.671875 43.015625 
L 54.390625 43.015625 
L 54.390625 34.71875 
L 19.671875 34.71875 
L 19.671875 8.296875 
L 56.78125 8.296875 
L 56.78125 0 
L 9.8125 0 
z
" id="DejaVuSans-69"/>
       <path d="M 54.890625 54.6875 
L 35.109375 28.078125 
L 55.90625 0 
L 45.3125 0 
L 29.390625 21.484375 
L 13.484375 0 
L 2.875 0 
L 24.125 28.609375 
L 4.6875 54.6875 
L 15.28125 54.6875 
L 29.78125 35.203125 
L 44.28125 54.6875 
z
" id="DejaVuSans-120"/>
       <path d="M 18.109375 8.203125 
L 18.109375 -20.796875 
L 9.078125 -20.796875 
L 9.078125 54.6875 
L 18.109375 54.6875 
L 18.109375 46.390625 
Q 20.953125 51.265625 25.265625 53.625 
Q 29.59375 56 35.59375 56 
Q 45.5625 56 51.78125 48.09375 
Q 58.015625 40.1875 58.015625 27.296875 
Q 58.015625 14.40625 51.78125 6.484375 
Q 45.5625 -1.421875 35.59375 -1.421875 
Q 29.59375 -1.421875 25.265625 0.953125 
Q 20.953125 3.328125 18.109375 8.203125 
z
M 48.6875 27.296875 
Q 48.6875 37.203125 44.609375 42.84375 
Q 40.53125 48.484375 33.40625 48.484375 
Q 26.265625 48.484375 22.1875 42.84375 
Q 18.109375 37.203125 18.109375 27.296875 
Q 18.109375 17.390625 22.1875 11.75 
Q 26.265625 6.109375 33.40625 6.109375 
Q 40.53125 6.109375 44.609375 11.75 
Q 48.6875 17.390625 48.6875 27.296875 
z
" id="DejaVuSans-112"/>
       <path d="M 54.890625 33.015625 
L 54.890625 0 
L 45.90625 0 
L 45.90625 32.71875 
Q 45.90625 40.484375 42.875 44.328125 
Q 39.84375 48.1875 33.796875 48.1875 
Q 26.515625 48.1875 22.3125 43.546875 
Q 18.109375 38.921875 18.109375 30.90625 
L 18.109375 0 
L 9.078125 0 
L 9.078125 54.6875 
L 18.109375 54.6875 
L 18.109375 46.1875 
Q 21.34375 51.125 25.703125 53.5625 
Q 30.078125 56 35.796875 56 
Q 45.21875 56 50.046875 50.171875 
Q 54.890625 44.34375 54.890625 33.015625 
z
" id="DejaVuSans-110"/>
       <path id="DejaVuSans-32"/>
       <path d="M 9.421875 54.6875 
L 18.40625 54.6875 
L 18.40625 0 
L 9.421875 0 
z
M 9.421875 75.984375 
L 18.40625 75.984375 
L 18.40625 64.59375 
L 9.421875 64.59375 
z
" id="DejaVuSans-105"/>
       <path d="M 54.890625 33.015625 
L 54.890625 0 
L 45.90625 0 
L 45.90625 32.71875 
Q 45.90625 40.484375 42.875 44.328125 
Q 39.84375 48.1875 33.796875 48.1875 
Q 26.515625 48.1875 22.3125 43.546875 
Q 18.109375 38.921875 18.109375 30.90625 
L 18.109375 0 
L 9.078125 0 
L 9.078125 75.984375 
L 18.109375 75.984375 
L 18.109375 46.1875 
Q 21.34375 51.125 25.703125 53.5625 
Q 30.078125 56 35.796875 56 
Q 45.21875 56 50.046875 50.171875 
Q 54.890625 44.34375 54.890625 33.015625 
z
" id="DejaVuSans-104"/>
       <path d="M 8.5 21.578125 
L 8.5 54.6875 
L 17.484375 54.6875 
L 17.484375 21.921875 
Q 17.484375 14.15625 20.5 10.265625 
Q 23.53125 6.390625 29.59375 6.390625 
Q 36.859375 6.390625 41.078125 11.03125 
Q 45.3125 15.671875 45.3125 23.6875 
L 45.3125 54.6875 
L 54.296875 54.6875 
L 54.296875 0 
L 45.3125 0 
L 45.3125 8.40625 
Q 42.046875 3.421875 37.71875 1 
Q 33.40625 -1.421875 27.6875 -1.421875 
Q 18.265625 -1.421875 13.375 4.4375 
Q 8.5 10.296875 8.5 21.578125 
z
M 31.109375 56 
z
" id="DejaVuSans-117"/>
       <path d="M 34.28125 27.484375 
Q 23.390625 27.484375 19.1875 25 
Q 14.984375 22.515625 14.984375 16.5 
Q 14.984375 11.71875 18.140625 8.90625 
Q 21.296875 6.109375 26.703125 6.109375 
Q 34.1875 6.109375 38.703125 11.40625 
Q 43.21875 16.703125 43.21875 25.484375 
L 43.21875 27.484375 
z
M 52.203125 31.203125 
L 52.203125 0 
L 43.21875 0 
L 43.21875 8.296875 
Q 40.140625 3.328125 35.546875 0.953125 
Q 30.953125 -1.421875 24.3125 -1.421875 
Q 15.921875 -1.421875 10.953125 3.296875 
Q 6 8.015625 6 15.921875 
Q 6 25.140625 12.171875 29.828125 
Q 18.359375 34.515625 30.609375 34.515625 
L 43.21875 34.515625 
L 43.21875 35.40625 
Q 43.21875 41.609375 39.140625 45 
Q 35.0625 48.390625 27.6875 48.390625 
Q 23 48.390625 18.546875 47.265625 
Q 14.109375 46.140625 10.015625 43.890625 
L 10.015625 52.203125 
Q 14.9375 54.109375 19.578125 55.046875 
Q 24.21875 56 28.609375 56 
Q 40.484375 56 46.34375 49.84375 
Q 52.203125 43.703125 52.203125 31.203125 
z
" id="DejaVuSans-97"/>
       <path d="M 45.40625 46.390625 
L 45.40625 75.984375 
L 54.390625 75.984375 
L 54.390625 0 
L 45.40625 0 
L 45.40625 8.203125 
Q 42.578125 3.328125 38.25 0.953125 
Q 33.9375 -1.421875 27.875 -1.421875 
Q 17.96875 -1.421875 11.734375 6.484375 
Q 5.515625 14.40625 5.515625 27.296875 
Q 5.515625 40.1875 11.734375 48.09375 
Q 17.96875 56 27.875 56 
Q 33.9375 56 38.25 53.625 
Q 42.578125 51.265625 45.40625 46.390625 
z
M 14.796875 27.296875 
Q 14.796875 17.390625 18.875 11.75 
Q 22.953125 6.109375 30.078125 6.109375 
Q 37.203125 6.109375 41.296875 11.75 
Q 45.40625 17.390625 45.40625 27.296875 
Q 45.40625 37.203125 41.296875 42.84375 
Q 37.203125 48.484375 30.078125 48.484375 
Q 22.953125 48.484375 18.875 42.84375 
Q 14.796875 37.203125 14.796875 27.296875 
z
" id="DejaVuSans-100"/>
       <path d="M 31 75.875 
Q 24.46875 64.65625 21.28125 53.65625 
Q 18.109375 42.671875 18.109375 31.390625 
Q 18.109375 20.125 21.3125 9.0625 
Q 24.515625 -2 31 -13.1875 
L 23.1875 -13.1875 
Q 15.875 -1.703125 12.234375 9.375 
Q 8.59375 20.453125 8.59375 31.390625 
Q 8.59375 42.28125 12.203125 53.3125 
Q 15.828125 64.359375 23.1875 75.875 
z
" id="DejaVuSans-40"/>
       <path d="M 8.015625 75.875 
L 15.828125 75.875 
Q 23.140625 64.359375 26.78125 53.3125 
Q 30.421875 42.28125 30.421875 31.390625 
Q 30.421875 20.453125 26.78125 9.375 
Q 23.140625 -1.703125 15.828125 -13.1875 
L 8.015625 -13.1875 
Q 14.5 -2 17.703125 9.0625 
Q 20.90625 20.125 20.90625 31.390625 
Q 20.90625 42.671875 17.703125 53.65625 
Q 14.5 64.65625 8.015625 75.875 
z
" id="DejaVuSans-41"/>
       <path d="M 53.8125 71.296875 
L 53.8125 62.40625 
Q 50.09375 64.40625 46.765625 65.40625 
Q 43.453125 66.40625 40.484375 66.40625 
Q 33.25 66.40625 30.421875 62.625 
Q 27.59375 58.84375 27.59375 48.484375 
L 27.59375 37.984375 
L 46.6875 37.984375 
L 46.6875 31 
L 27.59375 31 
L 27.59375 8.296875 
L 54.78125 8.296875 
L 54.78125 0 
L 6.296875 0 
L 6.296875 8.296875 
L 17.828125 8.296875 
L 17.828125 31 
L 8.109375 31 
L 8.109375 37.984375 
L 17.828125 37.984375 
L 17.828125 49.609375 
Q 17.828125 62.359375 23.046875 68.28125 
Q 28.265625 74.21875 39.59375 74.21875 
Q 42.578125 74.21875 46.265625 73.453125 
Q 49.953125 72.703125 53.8125 71.296875 
z
" id="DejaVuSans-163"/>
      </defs>
      <use xlink:href="#DejaVuSans-69"/>
      <use x="63.183594" xlink:href="#DejaVuSans-120"/>
      <use x="122.363281" xlink:href="#DejaVuSans-112"/>
      <use x="185.839844" xlink:href="#DejaVuSans-101"/>
      <use x="247.363281" xlink:href="#DejaVuSans-110"/>
      <use x="310.742188" xlink:href="#DejaVuSans-115"/>
      <use x="362.841797" xlink:href="#DejaVuSans-101"/>
      <use x="424.365234" xlink:href="#DejaVuSans-32"/>
      <use x="456.152344" xlink:href="#DejaVuSans-105"/>
      <use x="483.935547" xlink:href="#DejaVuSans-110"/>
      <use x="547.314453" xlink:href="#DejaVuSans-32"/>
      <use x="579.101562" xlink:href="#DejaVuSans-116"/>
      <use x="618.310547" xlink:href="#DejaVuSans-104"/>
      <use x="681.689453" xlink:href="#DejaVuSans-111"/>
      <use x="742.871094" xlink:href="#DejaVuSans-117"/>
      <use x="806.25" xlink:href="#DejaVuSans-115"/>
      <use x="858.349609" xlink:href="#DejaVuSans-97"/>
      <use x="919.628906" xlink:href="#DejaVuSans-110"/>
      <use x="983.007812" xlink:href="#DejaVuSans-100"/>
      <use x="1046.484375" xlink:href="#DejaVuSans-115"/>
      <use x="1098.583984" xlink:href="#DejaVuSans-40"/>
      <use x="1137.597656" xlink:href="#DejaVuSans-49"/>
      <use x="1201.220703" xlink:href="#DejaVuSans-48"/>
      <use x="1264.84375" xlink:href="#DejaVuSans-48"/>
      <use x="1328.466797" xlink:href="#DejaVuSans-48"/>
      <use x="1392.089844" xlink:href="#DejaVuSans-41"/>
      <use x="1431.103516" xlink:href="#DejaVuSans-32"/>
      <use x="1462.890625" xlink:href="#DejaVuSans-163"/>
     </g>
    </g>
   </g>
   <g id="patch_83">
    <path d="M 144 512.64 
L 144 69.12 
" style="fill:none;stroke:#000000;stroke-linecap:square;stroke-linejoin:miter;stroke-width:0.8;"/>
   </g>
   <g id="patch_84">
    <path d="M 1036.8 512.64 
L 1036.8 69.12 
" style="fill:none;stroke:#000000;stroke-linecap:square;stroke-linejoin:miter;stroke-width:0.8;"/>
   </g>
   <g id="patch_85">
    <path d="M 144 512.64 
L 1036.8 512.64 
" style="fill:none;stroke:#000000;stroke-linecap:square;stroke-linejoin:miter;stroke-width:0.8;"/>
   </g>
   <g id="patch_86">
    <path d="M 144 69.12 
L 1036.8 69.12 
" style="fill:none;stroke:#000000;stroke-linecap:square;stroke-linejoin:miter;stroke-width:0.8;"/>
   </g>
   <g id="text_49">
    <!-- 4 -->
    <g transform="translate(184.97831 490.664312)scale(0.1 -0.1)">
     <use xlink:href="#DejaVuSans-52"/>
    </g>
   </g>
   <g id="text_50">
    <!-- 12 -->
    <g transform="translate(202.241301 456.872313)scale(0.1 -0.1)">
     <use xlink:href="#DejaVuSans-49"/>
     <use x="63.623047" xlink:href="#DejaVuSans-50"/>
    </g>
   </g>
   <g id="text_51">
    <!-- 19 -->
    <g transform="translate(222.685542 427.304313)scale(0.1 -0.1)">
     <defs>
      <path d="M 10.984375 1.515625 
L 10.984375 10.5 
Q 14.703125 8.734375 18.5 7.8125 
Q 22.3125 6.890625 25.984375 6.890625 
Q 35.75 6.890625 40.890625 13.453125 
Q 46.046875 20.015625 46.78125 33.40625 
Q 43.953125 29.203125 39.59375 26.953125 
Q 35.25 24.703125 29.984375 24.703125 
Q 19.046875 24.703125 12.671875 31.3125 
Q 6.296875 37.9375 6.296875 49.421875 
Q 6.296875 60.640625 12.9375 67.421875 
Q 19.578125 74.21875 30.609375 74.21875 
Q 43.265625 74.21875 49.921875 64.515625 
Q 56.59375 54.828125 56.59375 36.375 
Q 56.59375 19.140625 48.40625 8.859375 
Q 40.234375 -1.421875 26.421875 -1.421875 
Q 22.703125 -1.421875 18.890625 -0.6875 
Q 15.09375 0.046875 10.984375 1.515625 
z
M 30.609375 32.421875 
Q 37.25 32.421875 41.125 36.953125 
Q 45.015625 41.5 45.015625 49.421875 
Q 45.015625 57.28125 41.125 61.84375 
Q 37.25 66.40625 30.609375 66.40625 
Q 23.96875 66.40625 20.09375 61.84375 
Q 16.21875 57.28125 16.21875 49.421875 
Q 16.21875 41.5 20.09375 36.953125 
Q 23.96875 32.421875 30.609375 32.421875 
z
" id="DejaVuSans-57"/>
     </defs>
     <use xlink:href="#DejaVuSans-49"/>
     <use x="63.623047" xlink:href="#DejaVuSans-57"/>
    </g>
   </g>
   <g id="text_52">
    <!-- 3 -->
    <g transform="translate(246.311033 494.888312)scale(0.1 -0.1)">
     <defs>
      <path d="M 40.578125 39.3125 
Q 47.65625 37.796875 51.625 33 
Q 55.609375 28.21875 55.609375 21.1875 
Q 55.609375 10.40625 48.1875 4.484375 
Q 40.765625 -1.421875 27.09375 -1.421875 
Q 22.515625 -1.421875 17.65625 -0.515625 
Q 12.796875 0.390625 7.625 2.203125 
L 7.625 11.71875 
Q 11.71875 9.328125 16.59375 8.109375 
Q 21.484375 6.890625 26.8125 6.890625 
Q 36.078125 6.890625 40.9375 10.546875 
Q 45.796875 14.203125 45.796875 21.1875 
Q 45.796875 27.640625 41.28125 31.265625 
Q 36.765625 34.90625 28.71875 34.90625 
L 20.21875 34.90625 
L 20.21875 43.015625 
L 29.109375 43.015625 
Q 36.375 43.015625 40.234375 45.921875 
Q 44.09375 48.828125 44.09375 54.296875 
Q 44.09375 59.90625 40.109375 62.90625 
Q 36.140625 65.921875 28.71875 65.921875 
Q 24.65625 65.921875 20.015625 65.03125 
Q 15.375 64.15625 9.8125 62.3125 
L 9.8125 71.09375 
Q 15.4375 72.65625 20.34375 73.4375 
Q 25.25 74.21875 29.59375 74.21875 
Q 40.828125 74.21875 47.359375 69.109375 
Q 53.90625 64.015625 53.90625 55.328125 
Q 53.90625 49.265625 50.4375 45.09375 
Q 46.96875 40.921875 40.578125 39.3125 
z
" id="DejaVuSans-51"/>
     </defs>
     <use xlink:href="#DejaVuSans-51"/>
    </g>
   </g>
   <g id="text_53">
    <!-- 4 -->
    <g transform="translate(266.755274 490.664312)scale(0.1 -0.1)">
     <use xlink:href="#DejaVuSans-52"/>
    </g>
   </g>
   <g id="text_54">
    <!-- 4 -->
    <g transform="translate(287.199515 490.664312)scale(0.1 -0.1)">
     <use xlink:href="#DejaVuSans-52"/>
    </g>
   </g>
   <g id="text_55">
    <!-- 4 -->
    <g transform="translate(307.643756 490.664312)scale(0.1 -0.1)">
     <use xlink:href="#DejaVuSans-52"/>
    </g>
   </g>
   <g id="text_56">
    <!-- 12 -->
    <g transform="translate(324.906747 456.872313)scale(0.1 -0.1)">
     <use xlink:href="#DejaVuSans-49"/>
     <use x="63.623047" xlink:href="#DejaVuSans-50"/>
    </g>
   </g>
   <g id="text_57">
    <!-- 2 -->
    <g transform="translate(348.532238 499.112313)scale(0.1 -0.1)">
     <use xlink:href="#DejaVuSans-50"/>
    </g>
   </g>
   <g id="text_58">
    <!-- 40 -->
    <g transform="translate(365.795228 338.600312)scale(0.1 -0.1)">
     <use xlink:href="#DejaVuSans-52"/>
     <use x="63.623047" xlink:href="#DejaVuSans-48"/>
    </g>
   </g>
   <g id="text_59">
    <!-- 1 -->
    <g transform="translate(389.420719 503.336313)scale(0.1 -0.1)">
     <use xlink:href="#DejaVuSans-49"/>
    </g>
   </g>
   <g id="text_60">
    <!-- 32 -->
    <g transform="translate(406.68371 372.392313)scale(0.1 -0.1)">
     <use xlink:href="#DejaVuSans-51"/>
     <use x="63.623047" xlink:href="#DejaVuSans-50"/>
    </g>
   </g>
   <g id="text_61">
    <!-- 1 -->
    <g transform="translate(430.309201 503.336313)scale(0.1 -0.1)">
     <use xlink:href="#DejaVuSans-49"/>
    </g>
   </g>
   <g id="text_62">
    <!-- 2 -->
    <g transform="translate(450.753442 499.112313)scale(0.1 -0.1)">
     <use xlink:href="#DejaVuSans-50"/>
    </g>
   </g>
   <g id="text_63">
    <!-- 2 -->
    <g transform="translate(471.197683 499.112313)scale(0.1 -0.1)">
     <use xlink:href="#DejaVuSans-50"/>
    </g>
   </g>
   <g id="text_64">
    <!-- 2 -->
    <g transform="translate(491.641924 499.112313)scale(0.1 -0.1)">
     <use xlink:href="#DejaVuSans-50"/>
    </g>
   </g>
   <g id="text_65">
    <!-- 3 -->
    <g transform="translate(512.086165 494.888312)scale(0.1 -0.1)">
     <use xlink:href="#DejaVuSans-51"/>
    </g>
   </g>
   <g id="text_66">
    <!-- 17 -->
    <g transform="translate(529.349156 435.752313)scale(0.1 -0.1)">
     <defs>
      <path d="M 8.203125 72.90625 
L 55.078125 72.90625 
L 55.078125 68.703125 
L 28.609375 0 
L 18.3125 0 
L 43.21875 64.59375 
L 8.203125 64.59375 
z
" id="DejaVuSans-55"/>
     </defs>
     <use xlink:href="#DejaVuSans-49"/>
     <use x="63.623047" xlink:href="#DejaVuSans-55"/>
    </g>
   </g>
   <g id="text_67">
    <!-- 3 -->
    <g transform="translate(552.974646 494.888312)scale(0.1 -0.1)">
     <use xlink:href="#DejaVuSans-51"/>
    </g>
   </g>
   <g id="text_68">
    <!-- 2 -->
    <g transform="translate(573.418887 499.112313)scale(0.1 -0.1)">
     <use xlink:href="#DejaVuSans-50"/>
    </g>
   </g>
   <g id="text_69">
    <!-- 19 -->
    <g transform="translate(590.681878 427.304313)scale(0.1 -0.1)">
     <use xlink:href="#DejaVuSans-49"/>
     <use x="63.623047" xlink:href="#DejaVuSans-57"/>
    </g>
   </g>
   <g id="text_70">
    <!-- 3 -->
    <g transform="translate(614.307369 494.888312)scale(0.1 -0.1)">
     <use xlink:href="#DejaVuSans-51"/>
    </g>
   </g>
   <g id="text_71">
    <!-- 4 -->
    <g transform="translate(634.75161 490.664312)scale(0.1 -0.1)">
     <use xlink:href="#DejaVuSans-52"/>
    </g>
   </g>
   <g id="text_72">
    <!-- 4 -->
    <g transform="translate(655.195851 490.664312)scale(0.1 -0.1)">
     <use xlink:href="#DejaVuSans-52"/>
    </g>
   </g>
   <g id="text_73">
    <!-- 3 -->
    <g transform="translate(675.640092 494.888312)scale(0.1 -0.1)">
     <use xlink:href="#DejaVuSans-51"/>
    </g>
   </g>
   <g id="text_74">
    <!-- 3 -->
    <g transform="translate(696.084333 494.888312)scale(0.1 -0.1)">
     <use xlink:href="#DejaVuSans-51"/>
    </g>
   </g>
   <g id="text_75">
    <!-- 15 -->
    <g transform="translate(713.347324 444.200312)scale(0.1 -0.1)">
     <defs>
      <path d="M 10.796875 72.90625 
L 49.515625 72.90625 
L 49.515625 64.59375 
L 19.828125 64.59375 
L 19.828125 46.734375 
Q 21.96875 47.46875 24.109375 47.828125 
Q 26.265625 48.1875 28.421875 48.1875 
Q 40.625 48.1875 47.75 41.5 
Q 54.890625 34.8125 54.890625 23.390625 
Q 54.890625 11.625 47.5625 5.09375 
Q 40.234375 -1.421875 26.90625 -1.421875 
Q 22.3125 -1.421875 17.546875 -0.640625 
Q 12.796875 0.140625 7.71875 1.703125 
L 7.71875 11.625 
Q 12.109375 9.234375 16.796875 8.0625 
Q 21.484375 6.890625 26.703125 6.890625 
Q 35.15625 6.890625 40.078125 11.328125 
Q 45.015625 15.765625 45.015625 23.390625 
Q 45.015625 31 40.078125 35.4375 
Q 35.15625 39.890625 26.703125 39.890625 
Q 22.75 39.890625 18.8125 39.015625 
Q 14.890625 38.140625 10.796875 36.28125 
z
" id="DejaVuSans-53"/>
     </defs>
     <use xlink:href="#DejaVuSans-49"/>
     <use x="63.623047" xlink:href="#DejaVuSans-53"/>
    </g>
   </g>
   <g id="text_76">
    <!-- 28 -->
    <g transform="translate(733.791565 389.288312)scale(0.1 -0.1)">
     <use xlink:href="#DejaVuSans-50"/>
     <use x="63.623047" xlink:href="#DejaVuSans-56"/>
    </g>
   </g>
   <g id="text_77">
    <!-- 36 -->
    <g transform="translate(754.235805 355.496312)scale(0.1 -0.1)">
     <use xlink:href="#DejaVuSans-51"/>
     <use x="63.623047" xlink:href="#DejaVuSans-54"/>
    </g>
   </g>
   <g id="text_78">
    <!-- 16 -->
    <g transform="translate(774.680046 439.976313)scale(0.1 -0.1)">
     <use xlink:href="#DejaVuSans-49"/>
     <use x="63.623047" xlink:href="#DejaVuSans-54"/>
    </g>
   </g>
   <g id="text_79">
    <!-- 2 -->
    <g transform="translate(798.305537 499.112313)scale(0.1 -0.1)">
     <use xlink:href="#DejaVuSans-50"/>
    </g>
   </g>
   <g id="text_80">
    <!-- 3 -->
    <g transform="translate(818.749778 494.888312)scale(0.1 -0.1)">
     <use xlink:href="#DejaVuSans-51"/>
    </g>
   </g>
   <g id="text_81">
    <!-- 3 -->
    <g transform="translate(839.194019 494.888312)scale(0.1 -0.1)">
     <use xlink:href="#DejaVuSans-51"/>
    </g>
   </g>
   <g id="text_82">
    <!-- 11 -->
    <g transform="translate(856.45701 461.096313)scale(0.1 -0.1)">
     <use xlink:href="#DejaVuSans-49"/>
     <use x="63.623047" xlink:href="#DejaVuSans-49"/>
    </g>
   </g>
   <g id="text_83">
    <!-- 2 -->
    <g transform="translate(880.082501 499.112313)scale(0.1 -0.1)">
     <use xlink:href="#DejaVuSans-50"/>
    </g>
   </g>
   <g id="text_84">
    <!-- 4 -->
    <g transform="translate(900.526742 490.664312)scale(0.1 -0.1)">
     <use xlink:href="#DejaVuSans-52"/>
    </g>
   </g>
   <g id="text_85">
    <!-- 3 -->
    <g transform="translate(920.970983 494.888312)scale(0.1 -0.1)">
     <use xlink:href="#DejaVuSans-51"/>
    </g>
   </g>
   <g id="text_86">
    <!-- 1 -->
    <g transform="translate(941.415224 503.336313)scale(0.1 -0.1)">
     <use xlink:href="#DejaVuSans-49"/>
    </g>
   </g>
   <g id="text_87">
    <!-- 3 -->
    <g transform="translate(961.859464 494.888312)scale(0.1 -0.1)">
     <use xlink:href="#DejaVuSans-51"/>
    </g>
   </g>
   <g id="text_88">
    <!-- 4 -->
    <g transform="translate(982.303705 490.664312)scale(0.1 -0.1)">
     <use xlink:href="#DejaVuSans-52"/>
    </g>
   </g>
   <g id="text_89">
    <!-- 78 -->
    <g transform="translate(188.952545 178.088312)scale(0.1 -0.1)">
     <use xlink:href="#DejaVuSans-55"/>
     <use x="63.623047" xlink:href="#DejaVuSans-56"/>
    </g>
   </g>
   <g id="text_90">
    <!-- 62 -->
    <g transform="translate(209.396786 245.672312)scale(0.1 -0.1)">
     <use xlink:href="#DejaVuSans-54"/>
     <use x="63.623047" xlink:href="#DejaVuSans-50"/>
    </g>
   </g>
   <g id="text_91">
    <!-- 86 -->
    <g transform="translate(229.841026 144.296312)scale(0.1 -0.1)">
     <use xlink:href="#DejaVuSans-56"/>
     <use x="63.623047" xlink:href="#DejaVuSans-54"/>
    </g>
   </g>
   <g id="text_92">
    <!-- 63 -->
    <g transform="translate(250.285267 241.448312)scale(0.1 -0.1)">
     <use xlink:href="#DejaVuSans-54"/>
     <use x="63.623047" xlink:href="#DejaVuSans-51"/>
    </g>
   </g>
   <g id="text_93">
    <!-- 68 -->
    <g transform="translate(270.729508 220.328312)scale(0.1 -0.1)">
     <use xlink:href="#DejaVuSans-54"/>
     <use x="63.623047" xlink:href="#DejaVuSans-56"/>
    </g>
   </g>
   <g id="text_94">
    <!-- 75 -->
    <g transform="translate(291.173749 190.760312)scale(0.1 -0.1)">
     <use xlink:href="#DejaVuSans-55"/>
     <use x="63.623047" xlink:href="#DejaVuSans-53"/>
    </g>
   </g>
   <g id="text_95">
    <!-- 43 -->
    <g transform="translate(311.61799 325.928313)scale(0.1 -0.1)">
     <use xlink:href="#DejaVuSans-52"/>
     <use x="63.623047" xlink:href="#DejaVuSans-51"/>
    </g>
   </g>
   <g id="text_96">
    <!-- 72 -->
    <g transform="translate(332.062231 203.432312)scale(0.1 -0.1)">
     <use xlink:href="#DejaVuSans-55"/>
     <use x="63.623047" xlink:href="#DejaVuSans-50"/>
    </g>
   </g>
   <g id="text_97">
    <!-- 79 -->
    <g transform="translate(352.506472 173.864312)scale(0.1 -0.1)">
     <use xlink:href="#DejaVuSans-55"/>
     <use x="63.623047" xlink:href="#DejaVuSans-57"/>
    </g>
   </g>
   <g id="text_98">
    <!-- 47 -->
    <g transform="translate(372.950713 309.032312)scale(0.1 -0.1)">
     <use xlink:href="#DejaVuSans-52"/>
     <use x="63.623047" xlink:href="#DejaVuSans-55"/>
    </g>
   </g>
   <g id="text_99">
    <!-- 39 -->
    <g transform="translate(393.394954 342.824313)scale(0.1 -0.1)">
     <use xlink:href="#DejaVuSans-51"/>
     <use x="63.623047" xlink:href="#DejaVuSans-57"/>
    </g>
   </g>
   <g id="text_100">
    <!-- 32 -->
    <g transform="translate(413.839195 372.392313)scale(0.1 -0.1)">
     <use xlink:href="#DejaVuSans-51"/>
     <use x="63.623047" xlink:href="#DejaVuSans-50"/>
    </g>
   </g>
   <g id="text_101">
    <!-- 87 -->
    <g transform="translate(434.283435 140.072313)scale(0.1 -0.1)">
     <use xlink:href="#DejaVuSans-56"/>
     <use x="63.623047" xlink:href="#DejaVuSans-55"/>
    </g>
   </g>
   <g id="text_102">
    <!-- 92 -->
    <g transform="translate(454.727676 118.952313)scale(0.1 -0.1)">
     <use xlink:href="#DejaVuSans-57"/>
     <use x="63.623047" xlink:href="#DejaVuSans-50"/>
    </g>
   </g>
   <g id="text_103">
    <!-- 36 -->
    <g transform="translate(475.171917 355.496312)scale(0.1 -0.1)">
     <use xlink:href="#DejaVuSans-51"/>
     <use x="63.623047" xlink:href="#DejaVuSans-54"/>
    </g>
   </g>
   <g id="text_104">
    <!-- 69 -->
    <g transform="translate(495.616158 216.104312)scale(0.1 -0.1)">
     <use xlink:href="#DejaVuSans-54"/>
     <use x="63.623047" xlink:href="#DejaVuSans-57"/>
    </g>
   </g>
   <g id="text_105">
    <!-- 29 -->
    <g transform="translate(516.060399 385.064313)scale(0.1 -0.1)">
     <use xlink:href="#DejaVuSans-50"/>
     <use x="63.623047" xlink:href="#DejaVuSans-57"/>
    </g>
   </g>
   <g id="text_106">
    <!-- 42 -->
    <g transform="translate(536.50464 330.152312)scale(0.1 -0.1)">
     <use xlink:href="#DejaVuSans-52"/>
     <use x="63.623047" xlink:href="#DejaVuSans-50"/>
    </g>
   </g>
   <g id="text_107">
    <!-- 12 -->
    <g transform="translate(556.948881 456.872313)scale(0.1 -0.1)">
     <use xlink:href="#DejaVuSans-49"/>
     <use x="63.623047" xlink:href="#DejaVuSans-50"/>
    </g>
   </g>
   <g id="text_108">
    <!-- 28 -->
    <g transform="translate(577.393122 389.288312)scale(0.1 -0.1)">
     <use xlink:href="#DejaVuSans-50"/>
     <use x="63.623047" xlink:href="#DejaVuSans-56"/>
    </g>
   </g>
   <g id="text_109">
    <!-- 82 -->
    <g transform="translate(597.837363 161.192313)scale(0.1 -0.1)">
     <use xlink:href="#DejaVuSans-56"/>
     <use x="63.623047" xlink:href="#DejaVuSans-50"/>
    </g>
   </g>
   <g id="text_110">
    <!-- 91 -->
    <g transform="translate(618.281604 123.176312)scale(0.1 -0.1)">
     <use xlink:href="#DejaVuSans-57"/>
     <use x="63.623047" xlink:href="#DejaVuSans-49"/>
    </g>
   </g>
   <g id="text_111">
    <!-- 50 -->
    <g transform="translate(638.725844 296.360313)scale(0.1 -0.1)">
     <use xlink:href="#DejaVuSans-53"/>
     <use x="63.623047" xlink:href="#DejaVuSans-48"/>
    </g>
   </g>
   <g id="text_112">
    <!-- 38 -->
    <g transform="translate(659.170085 347.048313)scale(0.1 -0.1)">
     <use xlink:href="#DejaVuSans-51"/>
     <use x="63.623047" xlink:href="#DejaVuSans-56"/>
    </g>
   </g>
   <g id="text_113">
    <!-- 34 -->
    <g transform="translate(679.614326 363.944313)scale(0.1 -0.1)">
     <use xlink:href="#DejaVuSans-51"/>
     <use x="63.623047" xlink:href="#DejaVuSans-52"/>
    </g>
   </g>
   <g id="text_114">
    <!-- 36 -->
    <g transform="translate(700.058567 355.496312)scale(0.1 -0.1)">
     <use xlink:href="#DejaVuSans-51"/>
     <use x="63.623047" xlink:href="#DejaVuSans-54"/>
    </g>
   </g>
   <g id="text_115">
    <!-- 13 -->
    <g transform="translate(720.502808 452.648312)scale(0.1 -0.1)">
     <use xlink:href="#DejaVuSans-49"/>
     <use x="63.623047" xlink:href="#DejaVuSans-51"/>
    </g>
   </g>
   <g id="text_116">
    <!-- 100 -->
    <g transform="translate(737.765799 85.160312)scale(0.1 -0.1)">
     <use xlink:href="#DejaVuSans-49"/>
     <use x="63.623047" xlink:href="#DejaVuSans-48"/>
     <use x="127.246094" xlink:href="#DejaVuSans-48"/>
    </g>
   </g>
   <g id="text_117">
    <!-- 22 -->
    <g transform="translate(761.39129 414.632313)scale(0.1 -0.1)">
     <use xlink:href="#DejaVuSans-50"/>
     <use x="63.623047" xlink:href="#DejaVuSans-50"/>
    </g>
   </g>
   <g id="text_118">
    <!-- 74 -->
    <g transform="translate(781.835531 194.984312)scale(0.1 -0.1)">
     <use xlink:href="#DejaVuSans-55"/>
     <use x="63.623047" xlink:href="#DejaVuSans-52"/>
    </g>
   </g>
   <g id="text_119">
    <!-- 72 -->
    <g transform="translate(802.279772 203.432312)scale(0.1 -0.1)">
     <use xlink:href="#DejaVuSans-55"/>
     <use x="63.623047" xlink:href="#DejaVuSans-50"/>
    </g>
   </g>
   <g id="text_120">
    <!-- 34 -->
    <g transform="translate(822.724012 363.944313)scale(0.1 -0.1)">
     <use xlink:href="#DejaVuSans-51"/>
     <use x="63.623047" xlink:href="#DejaVuSans-52"/>
    </g>
   </g>
   <g id="text_121">
    <!-- 62 -->
    <g transform="translate(843.168253 245.672312)scale(0.1 -0.1)">
     <use xlink:href="#DejaVuSans-54"/>
     <use x="63.623047" xlink:href="#DejaVuSans-50"/>
    </g>
   </g>
   <g id="text_122">
    <!-- 95 -->
    <g transform="translate(863.612494 106.280312)scale(0.1 -0.1)">
     <use xlink:href="#DejaVuSans-57"/>
     <use x="63.623047" xlink:href="#DejaVuSans-53"/>
    </g>
   </g>
   <g id="text_123">
    <!-- 87 -->
    <g transform="translate(884.056735 140.072313)scale(0.1 -0.1)">
     <use xlink:href="#DejaVuSans-56"/>
     <use x="63.623047" xlink:href="#DejaVuSans-55"/>
    </g>
   </g>
   <g id="text_124">
    <!-- 77 -->
    <g transform="translate(904.500976 182.312313)scale(0.1 -0.1)">
     <use xlink:href="#DejaVuSans-55"/>
     <use x="63.623047" xlink:href="#DejaVuSans-55"/>
    </g>
   </g>
   <g id="text_125">
    <!-- 80 -->
    <g transform="translate(924.945217 169.640312)scale(0.1 -0.1)">
     <use xlink:href="#DejaVuSans-56"/>
     <use x="63.623047" xlink:href="#DejaVuSans-48"/>
    </g>
   </g>
   <g id="text_126">
    <!-- 68 -->
    <g transform="translate(945.389458 220.328312)scale(0.1 -0.1)">
     <use xlink:href="#DejaVuSans-54"/>
     <use x="63.623047" xlink:href="#DejaVuSans-56"/>
    </g>
   </g>
   <g id="text_127">
    <!-- 57 -->
    <g transform="translate(965.833699 266.792313)scale(0.1 -0.1)">
     <use xlink:href="#DejaVuSans-53"/>
     <use x="63.623047" xlink:href="#DejaVuSans-55"/>
    </g>
   </g>
   <g id="text_128">
    <!-- 35 -->
    <g transform="translate(986.27794 359.720312)scale(0.1 -0.1)">
     <use xlink:href="#DejaVuSans-51"/>
     <use x="63.623047" xlink:href="#DejaVuSans-53"/>
    </g>
   </g>
   <g id="text_129">
    <!-- For Year 2019 Annual Expense of Marketing vs Overheads -->
    <g transform="translate(416.685938 63.12)scale(0.12 -0.12)">
     <defs>
      <path d="M 9.8125 72.90625 
L 51.703125 72.90625 
L 51.703125 64.59375 
L 19.671875 64.59375 
L 19.671875 43.109375 
L 48.578125 43.109375 
L 48.578125 34.8125 
L 19.671875 34.8125 
L 19.671875 0 
L 9.8125 0 
z
" id="DejaVuSans-70"/>
      <path d="M -0.203125 72.90625 
L 10.40625 72.90625 
L 30.609375 42.921875 
L 50.6875 72.90625 
L 61.28125 72.90625 
L 35.5 34.71875 
L 35.5 0 
L 25.59375 0 
L 25.59375 34.71875 
z
" id="DejaVuSans-89"/>
      <path d="M 34.1875 63.1875 
L 20.796875 26.90625 
L 47.609375 26.90625 
z
M 28.609375 72.90625 
L 39.796875 72.90625 
L 67.578125 0 
L 57.328125 0 
L 50.6875 18.703125 
L 17.828125 18.703125 
L 11.1875 0 
L 0.78125 0 
z
" id="DejaVuSans-65"/>
      <path d="M 9.421875 75.984375 
L 18.40625 75.984375 
L 18.40625 0 
L 9.421875 0 
z
" id="DejaVuSans-108"/>
      <path d="M 37.109375 75.984375 
L 37.109375 68.5 
L 28.515625 68.5 
Q 23.6875 68.5 21.796875 66.546875 
Q 19.921875 64.59375 19.921875 59.515625 
L 19.921875 54.6875 
L 34.71875 54.6875 
L 34.71875 47.703125 
L 19.921875 47.703125 
L 19.921875 0 
L 10.890625 0 
L 10.890625 47.703125 
L 2.296875 47.703125 
L 2.296875 54.6875 
L 10.890625 54.6875 
L 10.890625 58.5 
Q 10.890625 67.625 15.140625 71.796875 
Q 19.390625 75.984375 28.609375 75.984375 
z
" id="DejaVuSans-102"/>
      <path d="M 9.8125 72.90625 
L 24.515625 72.90625 
L 43.109375 23.296875 
L 61.8125 72.90625 
L 76.515625 72.90625 
L 76.515625 0 
L 66.890625 0 
L 66.890625 64.015625 
L 48.09375 14.015625 
L 38.1875 14.015625 
L 19.390625 64.015625 
L 19.390625 0 
L 9.8125 0 
z
" id="DejaVuSans-77"/>
      <path d="M 9.078125 75.984375 
L 18.109375 75.984375 
L 18.109375 31.109375 
L 44.921875 54.6875 
L 56.390625 54.6875 
L 27.390625 29.109375 
L 57.625 0 
L 45.90625 0 
L 18.109375 26.703125 
L 18.109375 0 
L 9.078125 0 
z
" id="DejaVuSans-107"/>
      <path d="M 45.40625 27.984375 
Q 45.40625 37.75 41.375 43.109375 
Q 37.359375 48.484375 30.078125 48.484375 
Q 22.859375 48.484375 18.828125 43.109375 
Q 14.796875 37.75 14.796875 27.984375 
Q 14.796875 18.265625 18.828125 12.890625 
Q 22.859375 7.515625 30.078125 7.515625 
Q 37.359375 7.515625 41.375 12.890625 
Q 45.40625 18.265625 45.40625 27.984375 
z
M 54.390625 6.78125 
Q 54.390625 -7.171875 48.1875 -13.984375 
Q 42 -20.796875 29.203125 -20.796875 
Q 24.46875 -20.796875 20.265625 -20.09375 
Q 16.0625 -19.390625 12.109375 -17.921875 
L 12.109375 -9.1875 
Q 16.0625 -11.328125 19.921875 -12.34375 
Q 23.78125 -13.375 27.78125 -13.375 
Q 36.625 -13.375 41.015625 -8.765625 
Q 45.40625 -4.15625 45.40625 5.171875 
L 45.40625 9.625 
Q 42.625 4.78125 38.28125 2.390625 
Q 33.9375 0 27.875 0 
Q 17.828125 0 11.671875 7.65625 
Q 5.515625 15.328125 5.515625 27.984375 
Q 5.515625 40.671875 11.671875 48.328125 
Q 17.828125 56 27.875 56 
Q 33.9375 56 38.28125 53.609375 
Q 42.625 51.21875 45.40625 46.390625 
L 45.40625 54.6875 
L 54.390625 54.6875 
z
" id="DejaVuSans-103"/>
      <path d="M 2.984375 54.6875 
L 12.5 54.6875 
L 29.59375 8.796875 
L 46.6875 54.6875 
L 56.203125 54.6875 
L 35.6875 0 
L 23.484375 0 
z
" id="DejaVuSans-118"/>
      <path d="M 39.40625 66.21875 
Q 28.65625 66.21875 22.328125 58.203125 
Q 16.015625 50.203125 16.015625 36.375 
Q 16.015625 22.609375 22.328125 14.59375 
Q 28.65625 6.59375 39.40625 6.59375 
Q 50.140625 6.59375 56.421875 14.59375 
Q 62.703125 22.609375 62.703125 36.375 
Q 62.703125 50.203125 56.421875 58.203125 
Q 50.140625 66.21875 39.40625 66.21875 
z
M 39.40625 74.21875 
Q 54.734375 74.21875 63.90625 63.9375 
Q 73.09375 53.65625 73.09375 36.375 
Q 73.09375 19.140625 63.90625 8.859375 
Q 54.734375 -1.421875 39.40625 -1.421875 
Q 24.03125 -1.421875 14.8125 8.828125 
Q 5.609375 19.09375 5.609375 36.375 
Q 5.609375 53.65625 14.8125 63.9375 
Q 24.03125 74.21875 39.40625 74.21875 
z
" id="DejaVuSans-79"/>
     </defs>
     <use xlink:href="#DejaVuSans-70"/>
     <use x="53.894531" xlink:href="#DejaVuSans-111"/>
     <use x="115.076172" xlink:href="#DejaVuSans-114"/>
     <use x="156.189453" xlink:href="#DejaVuSans-32"/>
     <use x="187.976562" xlink:href="#DejaVuSans-89"/>
     <use x="235.810547" xlink:href="#DejaVuSans-101"/>
     <use x="297.333984" xlink:href="#DejaVuSans-97"/>
     <use x="358.613281" xlink:href="#DejaVuSans-114"/>
     <use x="399.726562" xlink:href="#DejaVuSans-32"/>
     <use x="431.513672" xlink:href="#DejaVuSans-50"/>
     <use x="495.136719" xlink:href="#DejaVuSans-48"/>
     <use x="558.759766" xlink:href="#DejaVuSans-49"/>
     <use x="622.382812" xlink:href="#DejaVuSans-57"/>
     <use x="686.005859" xlink:href="#DejaVuSans-32"/>
     <use x="717.792969" xlink:href="#DejaVuSans-65"/>
     <use x="786.201172" xlink:href="#DejaVuSans-110"/>
     <use x="849.580078" xlink:href="#DejaVuSans-110"/>
     <use x="912.958984" xlink:href="#DejaVuSans-117"/>
     <use x="976.337891" xlink:href="#DejaVuSans-97"/>
     <use x="1037.617188" xlink:href="#DejaVuSans-108"/>
     <use x="1065.400391" xlink:href="#DejaVuSans-32"/>
     <use x="1097.1875" xlink:href="#DejaVuSans-69"/>
     <use x="1160.371094" xlink:href="#DejaVuSans-120"/>
     <use x="1219.550781" xlink:href="#DejaVuSans-112"/>
     <use x="1283.027344" xlink:href="#DejaVuSans-101"/>
     <use x="1344.550781" xlink:href="#DejaVuSans-110"/>
     <use x="1407.929688" xlink:href="#DejaVuSans-115"/>
     <use x="1460.029297" xlink:href="#DejaVuSans-101"/>
     <use x="1521.552734" xlink:href="#DejaVuSans-32"/>
     <use x="1553.339844" xlink:href="#DejaVuSans-111"/>
     <use x="1614.521484" xlink:href="#DejaVuSans-102"/>
     <use x="1649.726562" xlink:href="#DejaVuSans-32"/>
     <use x="1681.513672" xlink:href="#DejaVuSans-77"/>
     <use x="1767.792969" xlink:href="#DejaVuSans-97"/>
     <use x="1829.072266" xlink:href="#DejaVuSans-114"/>
     <use x="1870.185547" xlink:href="#DejaVuSans-107"/>
     <use x="1924.470703" xlink:href="#DejaVuSans-101"/>
     <use x="1985.994141" xlink:href="#DejaVuSans-116"/>
     <use x="2025.203125" xlink:href="#DejaVuSans-105"/>
     <use x="2052.986328" xlink:href="#DejaVuSans-110"/>
     <use x="2116.365234" xlink:href="#DejaVuSans-103"/>
     <use x="2179.841797" xlink:href="#DejaVuSans-32"/>
     <use x="2211.628906" xlink:href="#DejaVuSans-118"/>
     <use x="2270.808594" xlink:href="#DejaVuSans-115"/>
     <use x="2322.908203" xlink:href="#DejaVuSans-32"/>
     <use x="2354.695312" xlink:href="#DejaVuSans-79"/>
     <use x="2433.40625" xlink:href="#DejaVuSans-118"/>
     <use x="2492.585938" xlink:href="#DejaVuSans-101"/>
     <use x="2554.109375" xlink:href="#DejaVuSans-114"/>
     <use x="2593.472656" xlink:href="#DejaVuSans-104"/>
     <use x="2656.851562" xlink:href="#DejaVuSans-101"/>
     <use x="2718.375" xlink:href="#DejaVuSans-97"/>
     <use x="2779.654297" xlink:href="#DejaVuSans-100"/>
     <use x="2843.130859" xlink:href="#DejaVuSans-115"/>
    </g>
   </g>
   <g id="legend_1">
    <g id="patch_87">
     <path d="M 898.126562 106.47625 
L 1029.8 106.47625 
Q 1031.8 106.47625 1031.8 104.47625 
L 1031.8 76.12 
Q 1031.8 74.12 1029.8 74.12 
L 898.126562 74.12 
Q 896.126562 74.12 896.126562 76.12 
L 896.126562 104.47625 
Q 896.126562 106.47625 898.126562 106.47625 
z
" style="fill:#ffffff;opacity:0.8;stroke:#cccccc;stroke-linejoin:miter;"/>
    </g>
    <g id="patch_88">
     <path d="M 900.126562 85.718438 
L 920.126562 85.718438 
L 920.126562 78.718438 
L 900.126562 78.718438 
z
" style="fill:#1f77b4;"/>
    </g>
    <g id="text_130">
     <!-- Marketing Expense -->
     <g transform="translate(928.126562 85.718438)scale(0.1 -0.1)">
      <use xlink:href="#DejaVuSans-77"/>
      <use x="86.279297" xlink:href="#DejaVuSans-97"/>
      <use x="147.558594" xlink:href="#DejaVuSans-114"/>
      <use x="188.671875" xlink:href="#DejaVuSans-107"/>
      <use x="242.957031" xlink:href="#DejaVuSans-101"/>
      <use x="304.480469" xlink:href="#DejaVuSans-116"/>
      <use x="343.689453" xlink:href="#DejaVuSans-105"/>
      <use x="371.472656" xlink:href="#DejaVuSans-110"/>
      <use x="434.851562" xlink:href="#DejaVuSans-103"/>
      <use x="498.328125" xlink:href="#DejaVuSans-32"/>
      <use x="530.115234" xlink:href="#DejaVuSans-69"/>
      <use x="593.298828" xlink:href="#DejaVuSans-120"/>
      <use x="652.478516" xlink:href="#DejaVuSans-112"/>
      <use x="715.955078" xlink:href="#DejaVuSans-101"/>
      <use x="777.478516" xlink:href="#DejaVuSans-110"/>
      <use x="840.857422" xlink:href="#DejaVuSans-115"/>
      <use x="892.957031" xlink:href="#DejaVuSans-101"/>
     </g>
    </g>
    <g id="patch_89">
     <path d="M 900.126562 100.396563 
L 920.126562 100.396563 
L 920.126562 93.396563 
L 900.126562 93.396563 
z
" style="fill:#ff7f0e;"/>
    </g>
    <g id="text_131">
     <!-- Overheads Expense -->
     <g transform="translate(928.126562 100.396563)scale(0.1 -0.1)">
      <use xlink:href="#DejaVuSans-79"/>
      <use x="78.710938" xlink:href="#DejaVuSans-118"/>
      <use x="137.890625" xlink:href="#DejaVuSans-101"/>
      <use x="199.414062" xlink:href="#DejaVuSans-114"/>
      <use x="238.777344" xlink:href="#DejaVuSans-104"/>
      <use x="302.15625" xlink:href="#DejaVuSans-101"/>
      <use x="363.679688" xlink:href="#DejaVuSans-97"/>
      <use x="424.958984" xlink:href="#DejaVuSans-100"/>
      <use x="488.435547" xlink:href="#DejaVuSans-115"/>
      <use x="540.535156" xlink:href="#DejaVuSans-32"/>
      <use x="572.322266" xlink:href="#DejaVuSans-69"/>
      <use x="635.505859" xlink:href="#DejaVuSans-120"/>
      <use x="694.685547" xlink:href="#DejaVuSans-112"/>
      <use x="758.162109" xlink:href="#DejaVuSans-101"/>
      <use x="819.685547" xlink:href="#DejaVuSans-110"/>
      <use x="883.064453" xlink:href="#DejaVuSans-115"/>
      <use x="935.164062" xlink:href="#DejaVuSans-101"/>
     </g>
    </g>
   </g>
  </g>
 </g>
 <defs>
  <clipPath id="p5563c1e7d7">
   <rect height="443.52" width="892.8" x="144" y="69.12"/>
  </clipPath>
 </defs>
</svg>
