<?xml version="1.0" encoding="utf-8" standalone="no"?>
<!DOCTYPE svg PUBLIC "-//W3C//DTD SVG 1.1//EN"
  "http://www.w3.org/Graphics/SVG/1.1/DTD/svg11.dtd">
<!-- Created with matplotlib (https://matplotlib.org/) -->
<svg height="720pt" version="1.1" viewBox="0 0 864 720" width="864pt" xmlns="http://www.w3.org/2000/svg" xmlns:xlink="http://www.w3.org/1999/xlink">
 <metadata>
  <rdf:RDF xmlns:cc="http://creativecommons.org/ns#" xmlns:dc="http://purl.org/dc/elements/1.1/" xmlns:rdf="http://www.w3.org/1999/02/22-rdf-syntax-ns#">
   <cc:Work>
    <dc:type rdf:resource="http://purl.org/dc/dcmitype/StillImage"/>
    <dc:date>2021-03-26T01:41:41.910355</dc:date>
    <dc:format>image/svg+xml</dc:format>
    <dc:creator>
     <cc:Agent>
      <dc:title>Matplotlib v3.3.4, https://matplotlib.org/</dc:title>
     </cc:Agent>
    </dc:creator>
   </cc:Work>
  </rdf:RDF>
 </metadata>
 <defs>
  <style type="text/css">*{stroke-linecap:butt;stroke-linejoin:round;}</style>
 </defs>
 <g id="figure_1">
  <g id="patch_1">
   <path d="M 0 720 
L 864 720 
L 864 0 
L 0 0 
z
" style="fill:#ffffff;"/>
  </g>
  <g id="axes_1">
   <g id="patch_2">
    <path d="M 720 363.6 
C 720 327.19843 712.829684 291.150818 698.899406 257.520153 
C 684.969128 223.889487 664.549797 193.329798 638.81 167.59 
C 613.070202 141.850203 582.510513 121.430872 548.879847 107.500594 
C 515.249182 93.570316 479.20157 86.4 442.8 86.4 
C 406.39843 86.4 370.350818 93.570316 336.720153 107.500594 
C 303.089487 121.430872 272.529798 141.850203 246.79 167.59 
C 221.050203 193.329798 200.630872 223.889487 186.700594 257.520153 
C 172.770316 291.150818 165.6 327.19843 165.6 363.6 
C 165.6 400.00157 172.770316 436.049182 186.700594 469.679847 
C 200.630872 503.310513 221.050203 533.870202 246.79 559.61 
C 272.529798 585.349797 303.089487 605.769128 336.720153 619.699406 
C 370.350818 633.629684 406.39843 640.8 442.8 640.8 
C 479.20157 640.8 515.249182 633.629684 548.879847 619.699406 
C 582.510513 605.769128 613.070202 585.349797 638.81 559.61 
C 664.549797 533.870202 684.969128 503.310513 698.899406 469.679847 
C 712.829684 436.049182 720 400.00157 720 363.6 
M 442.8 363.6 
C 442.8 363.6 442.8 363.6 442.8 363.6 
C 442.8 363.6 442.8 363.6 442.8 363.6 
C 442.8 363.6 442.8 363.6 442.8 363.6 
C 442.8 363.6 442.8 363.6 442.8 363.6 
C 442.8 363.6 442.8 363.6 442.8 363.6 
C 442.8 363.6 442.8 363.6 442.8 363.6 
C 442.8 363.6 442.8 363.6 442.8 363.6 
C 442.8 363.6 442.8 363.6 442.8 363.6 
C 442.8 363.6 442.8 363.6 442.8 363.6 
C 442.8 363.6 442.8 363.6 442.8 363.6 
C 442.8 363.6 442.8 363.6 442.8 363.6 
C 442.8 363.6 442.8 363.6 442.8 363.6 
C 442.8 363.6 442.8 363.6 442.8 363.6 
C 442.8 363.6 442.8 363.6 442.8 363.6 
C 442.8 363.6 442.8 363.6 442.8 363.6 
C 442.8 363.6 442.8 363.6 442.8 363.6 
M 720 363.6 
z
" style="fill:#ffffff;"/>
   </g>
   <g id="patch_3">
    <path clip-path="url(#p208c30e91b)" d="M 505.130652 363.6 
L 559.000031 345.195723 
L 578.862718 319.390543 
L 496.689456 336.14195 
L 494.34496 326.150394 
L 488.571078 317.828922 
L 479.424099 313.191253 
L 497.97069 255.321425 
L 460.630681 308.722806 
L 481.428328 119.710333 
L 442.8 315.033041 
L 404.344799 120.803417 
L 426.660401 313.927423 
L 417.829642 314.592913 
L 411.959624 321.151864 
L 405.367421 326.167421 
L 395.02609 328.890223 
L 328.428883 305.325005 
L 386.229108 345.219003 
L 385.32969 354.497597 
L 294.343633 363.6 
L 382.226007 373.193978 
L 382.12728 383.313762 
L 387.93966 391.55274 
L 392.998539 399.78288 
L 400.660379 405.739621 
L 362.102833 474.670121 
L 340.462357 564.448933 
L 374.752132 573.029802 
L 421.511443 498.010658 
L 442.8 417.062123 
L 452.278961 423.447807 
L 460.884752 419.259142 
L 491.741841 459.653772 
L 473.584415 405.971112 
L 486.1121 406.9121 
L 494.082723 400.859079 
L 486.907065 386.073672 
L 499.372986 381.981677 
L 506.051531 373.618058 
z
" style="fill:#87ceeb;opacity:0.4;"/>
   </g>
   <g id="matplotlib.axis_1">
    <g id="xtick_1">
     <g id="line2d_1">
      <path clip-path="url(#p208c30e91b)" d="M 442.8 363.6 
L 720 363.6 
" style="fill:none;stroke:#b0b0b0;stroke-linecap:square;stroke-width:0.8;"/>
     </g>
     <g id="text_1">
      <!-- TAP -->
      <g transform="translate(724.898438 366.359375)scale(0.1 -0.1)">
       <defs>
        <path d="M -0.296875 72.90625 
L 61.375 72.90625 
L 61.375 64.59375 
L 35.5 64.59375 
L 35.5 0 
L 25.59375 0 
L 25.59375 64.59375 
L -0.296875 64.59375 
z
" id="DejaVuSans-84"/>
        <path d="M 34.1875 63.1875 
L 20.796875 26.90625 
L 47.609375 26.90625 
z
M 28.609375 72.90625 
L 39.796875 72.90625 
L 67.578125 0 
L 57.328125 0 
L 50.6875 18.703125 
L 17.828125 18.703125 
L 11.1875 0 
L 0.78125 0 
z
" id="DejaVuSans-65"/>
        <path d="M 19.671875 64.796875 
L 19.671875 37.40625 
L 32.078125 37.40625 
Q 38.96875 37.40625 42.71875 40.96875 
Q 46.484375 44.53125 46.484375 51.125 
Q 46.484375 57.671875 42.71875 61.234375 
Q 38.96875 64.796875 32.078125 64.796875 
z
M 9.8125 72.90625 
L 32.078125 72.90625 
Q 44.34375 72.90625 50.609375 67.359375 
Q 56.890625 61.8125 56.890625 51.125 
Q 56.890625 40.328125 50.609375 34.8125 
Q 44.34375 29.296875 32.078125 29.296875 
L 19.671875 29.296875 
L 19.671875 0 
L 9.8125 0 
z
" id="DejaVuSans-80"/>
       </defs>
       <use xlink:href="#DejaVuSans-84"/>
       <use x="53.333984" xlink:href="#DejaVuSans-65"/>
       <use x="121.742188" xlink:href="#DejaVuSans-80"/>
      </g>
     </g>
    </g>
    <g id="xtick_2">
     <g id="line2d_2">
      <path clip-path="url(#p208c30e91b)" d="M 442.8 363.6 
L 716.587208 320.236366 
" style="fill:none;stroke:#b0b0b0;stroke-linecap:square;stroke-width:0.8;"/>
     </g>
     <g id="text_2">
      <!-- OMV -->
      <g transform="translate(718.744532 320.805659)scale(0.1 -0.1)">
       <defs>
        <path d="M 39.40625 66.21875 
Q 28.65625 66.21875 22.328125 58.203125 
Q 16.015625 50.203125 16.015625 36.375 
Q 16.015625 22.609375 22.328125 14.59375 
Q 28.65625 6.59375 39.40625 6.59375 
Q 50.140625 6.59375 56.421875 14.59375 
Q 62.703125 22.609375 62.703125 36.375 
Q 62.703125 50.203125 56.421875 58.203125 
Q 50.140625 66.21875 39.40625 66.21875 
z
M 39.40625 74.21875 
Q 54.734375 74.21875 63.90625 63.9375 
Q 73.09375 53.65625 73.09375 36.375 
Q 73.09375 19.140625 63.90625 8.859375 
Q 54.734375 -1.421875 39.40625 -1.421875 
Q 24.03125 -1.421875 14.8125 8.828125 
Q 5.609375 19.09375 5.609375 36.375 
Q 5.609375 53.65625 14.8125 63.9375 
Q 24.03125 74.21875 39.40625 74.21875 
z
" id="DejaVuSans-79"/>
        <path d="M 9.8125 72.90625 
L 24.515625 72.90625 
L 43.109375 23.296875 
L 61.8125 72.90625 
L 76.515625 72.90625 
L 76.515625 0 
L 66.890625 0 
L 66.890625 64.015625 
L 48.09375 14.015625 
L 38.1875 14.015625 
L 19.390625 64.015625 
L 19.390625 0 
L 9.8125 0 
z
" id="DejaVuSans-77"/>
        <path d="M 28.609375 0 
L 0.78125 72.90625 
L 11.078125 72.90625 
L 34.1875 11.53125 
L 57.328125 72.90625 
L 67.578125 72.90625 
L 39.796875 0 
z
" id="DejaVuSans-86"/>
       </defs>
       <use xlink:href="#DejaVuSans-79"/>
       <use x="78.710938" xlink:href="#DejaVuSans-77"/>
       <use x="164.990234" xlink:href="#DejaVuSans-86"/>
      </g>
     </g>
    </g>
    <g id="xtick_3">
     <g id="line2d_3">
      <path clip-path="url(#p208c30e91b)" d="M 442.8 363.6 
L 706.432866 277.940489 
" style="fill:none;stroke:#b0b0b0;stroke-linecap:square;stroke-width:0.8;"/>
     </g>
     <g id="text_3">
      <!-- RGS -->
      <g transform="translate(709.225001 276.373626)scale(0.1 -0.1)">
       <defs>
        <path d="M 44.390625 34.1875 
Q 47.5625 33.109375 50.5625 29.59375 
Q 53.5625 26.078125 56.59375 19.921875 
L 66.609375 0 
L 56 0 
L 46.6875 18.703125 
Q 43.0625 26.03125 39.671875 28.421875 
Q 36.28125 30.8125 30.421875 30.8125 
L 19.671875 30.8125 
L 19.671875 0 
L 9.8125 0 
L 9.8125 72.90625 
L 32.078125 72.90625 
Q 44.578125 72.90625 50.734375 67.671875 
Q 56.890625 62.453125 56.890625 51.90625 
Q 56.890625 45.015625 53.6875 40.46875 
Q 50.484375 35.9375 44.390625 34.1875 
z
M 19.671875 64.796875 
L 19.671875 38.921875 
L 32.078125 38.921875 
Q 39.203125 38.921875 42.84375 42.21875 
Q 46.484375 45.515625 46.484375 51.90625 
Q 46.484375 58.296875 42.84375 61.546875 
Q 39.203125 64.796875 32.078125 64.796875 
z
" id="DejaVuSans-82"/>
        <path d="M 59.515625 10.40625 
L 59.515625 29.984375 
L 43.40625 29.984375 
L 43.40625 38.09375 
L 69.28125 38.09375 
L 69.28125 6.78125 
Q 63.578125 2.734375 56.6875 0.65625 
Q 49.8125 -1.421875 42 -1.421875 
Q 24.90625 -1.421875 15.25 8.5625 
Q 5.609375 18.5625 5.609375 36.375 
Q 5.609375 54.25 15.25 64.234375 
Q 24.90625 74.21875 42 74.21875 
Q 49.125 74.21875 55.546875 72.453125 
Q 61.96875 70.703125 67.390625 67.28125 
L 67.390625 56.78125 
Q 61.921875 61.421875 55.765625 63.765625 
Q 49.609375 66.109375 42.828125 66.109375 
Q 29.4375 66.109375 22.71875 58.640625 
Q 16.015625 51.171875 16.015625 36.375 
Q 16.015625 21.625 22.71875 14.15625 
Q 29.4375 6.6875 42.828125 6.6875 
Q 48.046875 6.6875 52.140625 7.59375 
Q 56.25 8.5 59.515625 10.40625 
z
" id="DejaVuSans-71"/>
        <path d="M 53.515625 70.515625 
L 53.515625 60.890625 
Q 47.90625 63.578125 42.921875 64.890625 
Q 37.9375 66.21875 33.296875 66.21875 
Q 25.25 66.21875 20.875 63.09375 
Q 16.5 59.96875 16.5 54.203125 
Q 16.5 49.359375 19.40625 46.890625 
Q 22.3125 44.4375 30.421875 42.921875 
L 36.375 41.703125 
Q 47.40625 39.59375 52.65625 34.296875 
Q 57.90625 29 57.90625 20.125 
Q 57.90625 9.515625 50.796875 4.046875 
Q 43.703125 -1.421875 29.984375 -1.421875 
Q 24.8125 -1.421875 18.96875 -0.25 
Q 13.140625 0.921875 6.890625 3.21875 
L 6.890625 13.375 
Q 12.890625 10.015625 18.65625 8.296875 
Q 24.421875 6.59375 29.984375 6.59375 
Q 38.421875 6.59375 43.015625 9.90625 
Q 47.609375 13.234375 47.609375 19.390625 
Q 47.609375 24.75 44.3125 27.78125 
Q 41.015625 30.8125 33.5 32.328125 
L 27.484375 33.5 
Q 16.453125 35.6875 11.515625 40.375 
Q 6.59375 45.0625 6.59375 53.421875 
Q 6.59375 63.09375 13.40625 68.65625 
Q 20.21875 74.21875 32.171875 74.21875 
Q 37.3125 74.21875 42.625 73.28125 
Q 47.953125 72.359375 53.515625 70.515625 
z
" id="DejaVuSans-83"/>
       </defs>
       <use xlink:href="#DejaVuSans-82"/>
       <use x="69.482422" xlink:href="#DejaVuSans-71"/>
       <use x="146.972656" xlink:href="#DejaVuSans-83"/>
      </g>
     </g>
    </g>
    <g id="xtick_4">
     <g id="line2d_4">
      <path clip-path="url(#p208c30e91b)" d="M 442.8 363.6 
L 689.787009 237.753833 
" style="fill:none;stroke:#b0b0b0;stroke-linecap:square;stroke-width:0.8;"/>
     </g>
     <g id="text_4">
      <!-- CFG -->
      <g transform="translate(692.019694 234.157341)scale(0.1 -0.1)">
       <defs>
        <path d="M 64.40625 67.28125 
L 64.40625 56.890625 
Q 59.421875 61.53125 53.78125 63.8125 
Q 48.140625 66.109375 41.796875 66.109375 
Q 29.296875 66.109375 22.65625 58.46875 
Q 16.015625 50.828125 16.015625 36.375 
Q 16.015625 21.96875 22.65625 14.328125 
Q 29.296875 6.6875 41.796875 6.6875 
Q 48.140625 6.6875 53.78125 8.984375 
Q 59.421875 11.28125 64.40625 15.921875 
L 64.40625 5.609375 
Q 59.234375 2.09375 53.4375 0.328125 
Q 47.65625 -1.421875 41.21875 -1.421875 
Q 24.65625 -1.421875 15.125 8.703125 
Q 5.609375 18.84375 5.609375 36.375 
Q 5.609375 53.953125 15.125 64.078125 
Q 24.65625 74.21875 41.21875 74.21875 
Q 47.75 74.21875 53.53125 72.484375 
Q 59.328125 70.75 64.40625 67.28125 
z
" id="DejaVuSans-67"/>
        <path d="M 9.8125 72.90625 
L 51.703125 72.90625 
L 51.703125 64.59375 
L 19.671875 64.59375 
L 19.671875 43.109375 
L 48.578125 43.109375 
L 48.578125 34.8125 
L 19.671875 34.8125 
L 19.671875 0 
L 9.8125 0 
z
" id="DejaVuSans-70"/>
       </defs>
       <use xlink:href="#DejaVuSans-67"/>
       <use x="69.824219" xlink:href="#DejaVuSans-70"/>
       <use x="127.34375" xlink:href="#DejaVuSans-71"/>
      </g>
     </g>
    </g>
    <g id="xtick_5">
     <g id="line2d_5">
      <path clip-path="url(#p208c30e91b)" d="M 442.8 363.6 
L 667.059511 200.665928 
" style="fill:none;stroke:#b0b0b0;stroke-linecap:square;stroke-width:0.8;"/>
     </g>
     <g id="text_5">
      <!-- EFN -->
      <g transform="translate(668.609968 195.19631)scale(0.1 -0.1)">
       <defs>
        <path d="M 9.8125 72.90625 
L 55.90625 72.90625 
L 55.90625 64.59375 
L 19.671875 64.59375 
L 19.671875 43.015625 
L 54.390625 43.015625 
L 54.390625 34.71875 
L 19.671875 34.71875 
L 19.671875 8.296875 
L 56.78125 8.296875 
L 56.78125 0 
L 9.8125 0 
z
" id="DejaVuSans-69"/>
        <path d="M 9.8125 72.90625 
L 23.09375 72.90625 
L 55.421875 11.921875 
L 55.421875 72.90625 
L 64.984375 72.90625 
L 64.984375 0 
L 51.703125 0 
L 19.390625 60.984375 
L 19.390625 0 
L 9.8125 0 
z
" id="DejaVuSans-78"/>
       </defs>
       <use xlink:href="#DejaVuSans-69"/>
       <use x="63.183594" xlink:href="#DejaVuSans-70"/>
       <use x="120.703125" xlink:href="#DejaVuSans-78"/>
      </g>
     </g>
    </g>
    <g id="xtick_6">
     <g id="line2d_6">
      <path clip-path="url(#p208c30e91b)" d="M 442.8 363.6 
L 638.81 167.59 
" style="fill:none;stroke:#b0b0b0;stroke-linecap:square;stroke-width:0.8;"/>
     </g>
     <g id="text_6">
      <!-- WMB -->
      <g transform="translate(636.021213 160.44988)scale(0.1 -0.1)">
       <defs>
        <path d="M 3.328125 72.90625 
L 13.28125 72.90625 
L 28.609375 11.28125 
L 43.890625 72.90625 
L 54.984375 72.90625 
L 70.3125 11.28125 
L 85.59375 72.90625 
L 95.609375 72.90625 
L 77.296875 0 
L 64.890625 0 
L 49.515625 63.28125 
L 33.984375 0 
L 21.578125 0 
z
" id="DejaVuSans-87"/>
        <path d="M 19.671875 34.8125 
L 19.671875 8.109375 
L 35.5 8.109375 
Q 43.453125 8.109375 47.28125 11.40625 
Q 51.125 14.703125 51.125 21.484375 
Q 51.125 28.328125 47.28125 31.5625 
Q 43.453125 34.8125 35.5 34.8125 
z
M 19.671875 64.796875 
L 19.671875 42.828125 
L 34.28125 42.828125 
Q 41.5 42.828125 45.03125 45.53125 
Q 48.578125 48.25 48.578125 53.8125 
Q 48.578125 59.328125 45.03125 62.0625 
Q 41.5 64.796875 34.28125 64.796875 
z
M 9.8125 72.90625 
L 35.015625 72.90625 
Q 46.296875 72.90625 52.390625 68.21875 
Q 58.5 63.53125 58.5 54.890625 
Q 58.5 48.1875 55.375 44.234375 
Q 52.25 40.28125 46.1875 39.3125 
Q 53.46875 37.75 57.5 32.78125 
Q 61.53125 27.828125 61.53125 20.40625 
Q 61.53125 10.640625 54.890625 5.3125 
Q 48.25 0 35.984375 0 
L 9.8125 0 
z
" id="DejaVuSans-66"/>
       </defs>
       <use xlink:href="#DejaVuSans-87"/>
       <use x="98.876953" xlink:href="#DejaVuSans-77"/>
       <use x="185.15625" xlink:href="#DejaVuSans-66"/>
      </g>
     </g>
    </g>
    <g id="xtick_7">
     <g id="line2d_7">
      <path clip-path="url(#p208c30e91b)" d="M 442.8 363.6 
L 605.734072 139.340489 
" style="fill:none;stroke:#b0b0b0;stroke-linecap:square;stroke-width:0.8;"/>
     </g>
     <g id="text_7">
      <!-- YGY -->
      <g transform="translate(604.231034 130.773626)scale(0.1 -0.1)">
       <defs>
        <path d="M -0.203125 72.90625 
L 10.40625 72.90625 
L 30.609375 42.921875 
L 50.6875 72.90625 
L 61.28125 72.90625 
L 35.5 34.71875 
L 35.5 0 
L 25.59375 0 
L 25.59375 34.71875 
z
" id="DejaVuSans-89"/>
       </defs>
       <use xlink:href="#DejaVuSans-89"/>
       <use x="61.083984" xlink:href="#DejaVuSans-71"/>
       <use x="133.574219" xlink:href="#DejaVuSans-89"/>
      </g>
     </g>
    </g>
    <g id="xtick_8">
     <g id="line2d_8">
      <path clip-path="url(#p208c30e91b)" d="M 442.8 363.6 
L 568.646167 116.612991 
" style="fill:none;stroke:#b0b0b0;stroke-linecap:square;stroke-width:0.8;"/>
     </g>
     <g id="text_8">
      <!-- PGL -->
      <g transform="translate(565.327034 106.898275)scale(0.1 -0.1)">
       <defs>
        <path d="M 9.8125 72.90625 
L 19.671875 72.90625 
L 19.671875 8.296875 
L 55.171875 8.296875 
L 55.171875 0 
L 9.8125 0 
z
" id="DejaVuSans-76"/>
       </defs>
       <use xlink:href="#DejaVuSans-80"/>
       <use x="60.302734" xlink:href="#DejaVuSans-71"/>
       <use x="137.792969" xlink:href="#DejaVuSans-76"/>
      </g>
     </g>
    </g>
    <g id="xtick_9">
     <g id="line2d_9">
      <path clip-path="url(#p208c30e91b)" d="M 442.8 363.6 
L 528.459511 99.967134 
" style="fill:none;stroke:#b0b0b0;stroke-linecap:square;stroke-width:0.8;"/>
     </g>
     <g id="text_9">
      <!-- WGR -->
      <g transform="translate(520.493561 89.411717)scale(0.1 -0.1)">
       <use xlink:href="#DejaVuSans-87"/>
       <use x="98.876953" xlink:href="#DejaVuSans-71"/>
       <use x="176.367188" xlink:href="#DejaVuSans-82"/>
      </g>
     </g>
    </g>
    <g id="xtick_10">
     <g id="line2d_10">
      <path clip-path="url(#p208c30e91b)" d="M 442.8 363.6 
L 486.163634 89.812792 
" style="fill:none;stroke:#b0b0b0;stroke-linecap:square;stroke-width:0.8;"/>
     </g>
     <g id="text_10">
      <!-- RAH -->
      <g transform="translate(477.899029 78.74453)scale(0.1 -0.1)">
       <defs>
        <path d="M 9.8125 72.90625 
L 19.671875 72.90625 
L 19.671875 43.015625 
L 55.515625 43.015625 
L 55.515625 72.90625 
L 65.375 72.90625 
L 65.375 0 
L 55.515625 0 
L 55.515625 34.71875 
L 19.671875 34.71875 
L 19.671875 0 
L 9.8125 0 
z
" id="DejaVuSans-72"/>
       </defs>
       <use xlink:href="#DejaVuSans-82"/>
       <use x="65.482422" xlink:href="#DejaVuSans-65"/>
       <use x="133.890625" xlink:href="#DejaVuSans-72"/>
      </g>
     </g>
    </g>
    <g id="xtick_11">
     <g id="line2d_11">
      <path clip-path="url(#p208c30e91b)" d="M 442.8 363.6 
L 442.8 86.4 
" style="fill:none;stroke:#b0b0b0;stroke-linecap:square;stroke-width:0.8;"/>
     </g>
     <g id="text_11">
      <!-- ZSD -->
      <g transform="translate(432.350781 75.159375)scale(0.1 -0.1)">
       <defs>
        <path d="M 5.609375 72.90625 
L 62.890625 72.90625 
L 62.890625 65.375 
L 16.796875 8.296875 
L 64.015625 8.296875 
L 64.015625 0 
L 4.5 0 
L 4.5 7.515625 
L 50.59375 64.59375 
L 5.609375 64.59375 
z
" id="DejaVuSans-90"/>
        <path d="M 19.671875 64.796875 
L 19.671875 8.109375 
L 31.59375 8.109375 
Q 46.6875 8.109375 53.6875 14.9375 
Q 60.6875 21.78125 60.6875 36.53125 
Q 60.6875 51.171875 53.6875 57.984375 
Q 46.6875 64.796875 31.59375 64.796875 
z
M 9.8125 72.90625 
L 30.078125 72.90625 
Q 51.265625 72.90625 61.171875 64.09375 
Q 71.09375 55.28125 71.09375 36.53125 
Q 71.09375 17.671875 61.125 8.828125 
Q 51.171875 0 30.078125 0 
L 9.8125 0 
z
" id="DejaVuSans-68"/>
       </defs>
       <use xlink:href="#DejaVuSans-90"/>
       <use x="68.505859" xlink:href="#DejaVuSans-83"/>
       <use x="131.982422" xlink:href="#DejaVuSans-68"/>
      </g>
     </g>
    </g>
    <g id="xtick_12">
     <g id="line2d_12">
      <path clip-path="url(#p208c30e91b)" d="M 442.8 363.6 
L 399.436366 89.812792 
" style="fill:none;stroke:#b0b0b0;stroke-linecap:square;stroke-width:0.8;"/>
     </g>
     <g id="text_12">
      <!-- SGA -->
      <g transform="translate(386.777534 78.74453)scale(0.1 -0.1)">
       <use xlink:href="#DejaVuSans-83"/>
       <use x="63.476562" xlink:href="#DejaVuSans-71"/>
       <use x="140.966797" xlink:href="#DejaVuSans-65"/>
      </g>
     </g>
    </g>
    <g id="xtick_13">
     <g id="line2d_13">
      <path clip-path="url(#p208c30e91b)" d="M 442.8 363.6 
L 357.140489 99.967134 
" style="fill:none;stroke:#b0b0b0;stroke-linecap:square;stroke-width:0.8;"/>
     </g>
     <g id="text_13">
      <!-- NGB -->
      <g transform="translate(341.768939 89.411717)scale(0.1 -0.1)">
       <use xlink:href="#DejaVuSans-78"/>
       <use x="74.804688" xlink:href="#DejaVuSans-71"/>
       <use x="152.294922" xlink:href="#DejaVuSans-66"/>
      </g>
     </g>
    </g>
    <g id="xtick_14">
     <g id="line2d_14">
      <path clip-path="url(#p208c30e91b)" d="M 442.8 363.6 
L 316.953833 116.612991 
" style="fill:none;stroke:#b0b0b0;stroke-linecap:square;stroke-width:0.8;"/>
     </g>
     <g id="text_14">
      <!-- XSV -->
      <g transform="translate(300.578435 106.898275)scale(0.1 -0.1)">
       <defs>
        <path d="M 6.296875 72.90625 
L 16.890625 72.90625 
L 35.015625 45.796875 
L 53.21875 72.90625 
L 63.8125 72.90625 
L 40.375 37.890625 
L 65.375 0 
L 54.78125 0 
L 34.28125 31 
L 13.625 0 
L 2.984375 0 
L 29 38.921875 
z
" id="DejaVuSans-88"/>
       </defs>
       <use xlink:href="#DejaVuSans-88"/>
       <use x="68.505859" xlink:href="#DejaVuSans-83"/>
       <use x="131.982422" xlink:href="#DejaVuSans-86"/>
      </g>
     </g>
    </g>
    <g id="xtick_15">
     <g id="line2d_15">
      <path clip-path="url(#p208c30e91b)" d="M 442.8 363.6 
L 279.865928 139.340489 
" style="fill:none;stroke:#b0b0b0;stroke-linecap:square;stroke-width:0.8;"/>
     </g>
     <g id="text_15">
      <!-- YYO -->
      <g transform="translate(261.868185 130.773626)scale(0.1 -0.1)">
       <use xlink:href="#DejaVuSans-89"/>
       <use x="61.083984" xlink:href="#DejaVuSans-89"/>
       <use x="116.667969" xlink:href="#DejaVuSans-79"/>
      </g>
     </g>
    </g>
    <g id="xtick_16">
     <g id="line2d_16">
      <path clip-path="url(#p208c30e91b)" d="M 442.8 363.6 
L 246.79 167.59 
" style="fill:none;stroke:#b0b0b0;stroke-linecap:square;stroke-width:0.8;"/>
     </g>
     <g id="text_16">
      <!-- AEI -->
      <g transform="translate(228.835818 160.44988)scale(0.1 -0.1)">
       <defs>
        <path d="M 9.8125 72.90625 
L 19.671875 72.90625 
L 19.671875 0 
L 9.8125 0 
z
" id="DejaVuSans-73"/>
       </defs>
       <use xlink:href="#DejaVuSans-65"/>
       <use x="68.408203" xlink:href="#DejaVuSans-69"/>
       <use x="131.591797" xlink:href="#DejaVuSans-73"/>
      </g>
     </g>
    </g>
    <g id="xtick_17">
     <g id="line2d_17">
      <path clip-path="url(#p208c30e91b)" d="M 442.8 363.6 
L 218.540489 200.665928 
" style="fill:none;stroke:#b0b0b0;stroke-linecap:square;stroke-width:0.8;"/>
     </g>
     <g id="text_17">
      <!-- CNQ -->
      <g transform="translate(196.046282 195.19631)scale(0.1 -0.1)">
       <defs>
        <path d="M 39.40625 66.21875 
Q 28.65625 66.21875 22.328125 58.203125 
Q 16.015625 50.203125 16.015625 36.375 
Q 16.015625 22.609375 22.328125 14.59375 
Q 28.65625 6.59375 39.40625 6.59375 
Q 50.140625 6.59375 56.421875 14.59375 
Q 62.703125 22.609375 62.703125 36.375 
Q 62.703125 50.203125 56.421875 58.203125 
Q 50.140625 66.21875 39.40625 66.21875 
z
M 53.21875 1.3125 
L 66.21875 -12.890625 
L 54.296875 -12.890625 
L 43.5 -1.21875 
Q 41.890625 -1.3125 41.03125 -1.359375 
Q 40.1875 -1.421875 39.40625 -1.421875 
Q 24.03125 -1.421875 14.8125 8.859375 
Q 5.609375 19.140625 5.609375 36.375 
Q 5.609375 53.65625 14.8125 63.9375 
Q 24.03125 74.21875 39.40625 74.21875 
Q 54.734375 74.21875 63.90625 63.9375 
Q 73.09375 53.65625 73.09375 36.375 
Q 73.09375 23.6875 67.984375 14.640625 
Q 62.890625 5.609375 53.21875 1.3125 
z
" id="DejaVuSans-81"/>
       </defs>
       <use xlink:href="#DejaVuSans-67"/>
       <use x="69.824219" xlink:href="#DejaVuSans-78"/>
       <use x="144.628906" xlink:href="#DejaVuSans-81"/>
      </g>
     </g>
    </g>
    <g id="xtick_18">
     <g id="line2d_18">
      <path clip-path="url(#p208c30e91b)" d="M 442.8 363.6 
L 195.812991 237.753833 
" style="fill:none;stroke:#b0b0b0;stroke-linecap:square;stroke-width:0.8;"/>
     </g>
     <g id="text_18">
      <!-- NAQ -->
      <g transform="translate(172.329525 234.157341)scale(0.1 -0.1)">
       <use xlink:href="#DejaVuSans-78"/>
       <use x="74.804688" xlink:href="#DejaVuSans-65"/>
       <use x="141.462891" xlink:href="#DejaVuSans-81"/>
      </g>
     </g>
    </g>
    <g id="xtick_19">
     <g id="line2d_19">
      <path clip-path="url(#p208c30e91b)" d="M 442.8 363.6 
L 179.167134 277.940489 
" style="fill:none;stroke:#b0b0b0;stroke-linecap:square;stroke-width:0.8;"/>
     </g>
     <g id="text_19">
      <!-- UMU -->
      <g transform="translate(154.21953 276.373626)scale(0.1 -0.1)">
       <defs>
        <path d="M 8.6875 72.90625 
L 18.609375 72.90625 
L 18.609375 28.609375 
Q 18.609375 16.890625 22.84375 11.734375 
Q 27.09375 6.59375 36.625 6.59375 
Q 46.09375 6.59375 50.34375 11.734375 
Q 54.59375 16.890625 54.59375 28.609375 
L 54.59375 72.90625 
L 64.5 72.90625 
L 64.5 27.390625 
Q 64.5 13.140625 57.4375 5.859375 
Q 50.390625 -1.421875 36.625 -1.421875 
Q 22.796875 -1.421875 15.734375 5.859375 
Q 8.6875 13.140625 8.6875 27.390625 
z
" id="DejaVuSans-85"/>
       </defs>
       <use xlink:href="#DejaVuSans-85"/>
       <use x="73.193359" xlink:href="#DejaVuSans-77"/>
       <use x="159.472656" xlink:href="#DejaVuSans-85"/>
      </g>
     </g>
    </g>
    <g id="xtick_20">
     <g id="line2d_20">
      <path clip-path="url(#p208c30e91b)" d="M 442.8 363.6 
L 169.012792 320.236366 
" style="fill:none;stroke:#b0b0b0;stroke-linecap:square;stroke-width:0.8;"/>
     </g>
     <g id="text_20">
      <!-- DZT -->
      <g transform="translate(144.856249 320.805659)scale(0.1 -0.1)">
       <use xlink:href="#DejaVuSans-68"/>
       <use x="77.001953" xlink:href="#DejaVuSans-90"/>
       <use x="145.507812" xlink:href="#DejaVuSans-84"/>
      </g>
     </g>
    </g>
    <g id="xtick_21">
     <g id="line2d_21">
      <path clip-path="url(#p208c30e91b)" d="M 442.8 363.6 
L 165.6 363.6 
" style="fill:none;stroke:#b0b0b0;stroke-linecap:square;stroke-width:0.8;"/>
     </g>
     <g id="text_21">
      <!-- PAA -->
      <g transform="translate(141.925781 366.359375)scale(0.1 -0.1)">
       <use xlink:href="#DejaVuSans-80"/>
       <use x="53.927734" xlink:href="#DejaVuSans-65"/>
       <use x="125.085938" xlink:href="#DejaVuSans-65"/>
      </g>
     </g>
    </g>
    <g id="xtick_22">
     <g id="line2d_22">
      <path clip-path="url(#p208c30e91b)" d="M 442.8 363.6 
L 169.012792 406.963634 
" style="fill:none;stroke:#b0b0b0;stroke-linecap:square;stroke-width:0.8;"/>
     </g>
     <g id="text_22">
      <!-- UGJ -->
      <g transform="translate(146.176561 411.913091)scale(0.1 -0.1)">
       <defs>
        <path d="M 9.8125 72.90625 
L 19.671875 72.90625 
L 19.671875 5.078125 
Q 19.671875 -8.109375 14.671875 -14.0625 
Q 9.671875 -20.015625 -1.421875 -20.015625 
L -5.171875 -20.015625 
L -5.171875 -11.71875 
L -2.09375 -11.71875 
Q 4.4375 -11.71875 7.125 -8.046875 
Q 9.8125 -4.390625 9.8125 5.078125 
z
" id="DejaVuSans-74"/>
       </defs>
       <use xlink:href="#DejaVuSans-85"/>
       <use x="73.193359" xlink:href="#DejaVuSans-71"/>
       <use x="150.683594" xlink:href="#DejaVuSans-74"/>
      </g>
     </g>
    </g>
    <g id="xtick_23">
     <g id="line2d_23">
      <path clip-path="url(#p208c30e91b)" d="M 442.8 363.6 
L 179.167134 449.259511 
" style="fill:none;stroke:#b0b0b0;stroke-linecap:square;stroke-width:0.8;"/>
     </g>
     <g id="text_23">
      <!-- TSE -->
      <g transform="translate(156.464842 456.345124)scale(0.1 -0.1)">
       <use xlink:href="#DejaVuSans-84"/>
       <use x="61.083984" xlink:href="#DejaVuSans-83"/>
       <use x="124.560547" xlink:href="#DejaVuSans-69"/>
      </g>
     </g>
    </g>
    <g id="xtick_24">
     <g id="line2d_24">
      <path clip-path="url(#p208c30e91b)" d="M 442.8 363.6 
L 195.812991 489.446167 
" style="fill:none;stroke:#b0b0b0;stroke-linecap:square;stroke-width:0.8;"/>
     </g>
     <g id="text_24">
      <!-- BTB -->
      <g transform="translate(173.424056 498.561409)scale(0.1 -0.1)">
       <use xlink:href="#DejaVuSans-66"/>
       <use x="68.603516" xlink:href="#DejaVuSans-84"/>
       <use x="129.6875" xlink:href="#DejaVuSans-66"/>
      </g>
     </g>
    </g>
    <g id="xtick_25">
     <g id="line2d_25">
      <path clip-path="url(#p208c30e91b)" d="M 442.8 363.6 
L 218.540489 526.534072 
" style="fill:none;stroke:#b0b0b0;stroke-linecap:square;stroke-width:0.8;"/>
     </g>
     <g id="text_25">
      <!-- BZM -->
      <g transform="translate(196.04472 537.52244)scale(0.1 -0.1)">
       <use xlink:href="#DejaVuSans-66"/>
       <use x="68.603516" xlink:href="#DejaVuSans-90"/>
       <use x="137.109375" xlink:href="#DejaVuSans-77"/>
      </g>
     </g>
    </g>
    <g id="xtick_26">
     <g id="line2d_26">
      <path clip-path="url(#p208c30e91b)" d="M 442.8 363.6 
L 246.79 559.61 
" style="fill:none;stroke:#b0b0b0;stroke-linecap:square;stroke-width:0.8;"/>
     </g>
     <g id="text_26">
      <!-- VYZ -->
      <g transform="translate(226.991287 572.26887)scale(0.1 -0.1)">
       <use xlink:href="#DejaVuSans-86"/>
       <use x="68.408203" xlink:href="#DejaVuSans-89"/>
       <use x="129.492188" xlink:href="#DejaVuSans-90"/>
      </g>
     </g>
    </g>
    <g id="xtick_27">
     <g id="line2d_27">
      <path clip-path="url(#p208c30e91b)" d="M 442.8 363.6 
L 279.865928 587.859511 
" style="fill:none;stroke:#b0b0b0;stroke-linecap:square;stroke-width:0.8;"/>
     </g>
     <g id="text_27">
      <!-- QMD -->
      <g transform="translate(259.536935 601.945124)scale(0.1 -0.1)">
       <use xlink:href="#DejaVuSans-81"/>
       <use x="78.710938" xlink:href="#DejaVuSans-77"/>
       <use x="164.990234" xlink:href="#DejaVuSans-68"/>
      </g>
     </g>
    </g>
    <g id="xtick_28">
     <g id="line2d_28">
      <path clip-path="url(#p208c30e91b)" d="M 442.8 363.6 
L 316.953833 610.587009 
" style="fill:none;stroke:#b0b0b0;stroke-linecap:square;stroke-width:0.8;"/>
     </g>
     <g id="text_28">
      <!-- SMM -->
      <g transform="translate(298.795623 625.820475)scale(0.1 -0.1)">
       <use xlink:href="#DejaVuSans-83"/>
       <use x="63.476562" xlink:href="#DejaVuSans-77"/>
       <use x="149.755859" xlink:href="#DejaVuSans-77"/>
      </g>
     </g>
    </g>
    <g id="xtick_29">
     <g id="line2d_29">
      <path clip-path="url(#p208c30e91b)" d="M 442.8 363.6 
L 357.140489 627.232866 
" style="fill:none;stroke:#b0b0b0;stroke-linecap:square;stroke-width:0.8;"/>
     </g>
     <g id="text_29">
      <!-- QSN -->
      <g transform="translate(341.96347 643.307033)scale(0.1 -0.1)">
       <use xlink:href="#DejaVuSans-81"/>
       <use x="78.710938" xlink:href="#DejaVuSans-83"/>
       <use x="142.1875" xlink:href="#DejaVuSans-78"/>
      </g>
     </g>
    </g>
    <g id="xtick_30">
     <g id="line2d_30">
      <path clip-path="url(#p208c30e91b)" d="M 442.8 363.6 
L 399.436366 637.387208 
" style="fill:none;stroke:#b0b0b0;stroke-linecap:square;stroke-width:0.8;"/>
     </g>
     <g id="text_30">
      <!-- OSG -->
      <g transform="translate(386.261909 653.97422)scale(0.1 -0.1)">
       <use xlink:href="#DejaVuSans-79"/>
       <use x="78.710938" xlink:href="#DejaVuSans-83"/>
       <use x="142.1875" xlink:href="#DejaVuSans-71"/>
      </g>
     </g>
    </g>
    <g id="xtick_31">
     <g id="line2d_31">
      <path clip-path="url(#p208c30e91b)" d="M 442.8 363.6 
L 442.8 640.8 
" style="fill:none;stroke:#b0b0b0;stroke-linecap:square;stroke-width:0.8;"/>
     </g>
     <g id="text_31">
      <!-- NMO -->
      <g transform="translate(430.809375 657.559375)scale(0.1 -0.1)">
       <use xlink:href="#DejaVuSans-78"/>
       <use x="74.804688" xlink:href="#DejaVuSans-77"/>
       <use x="161.083984" xlink:href="#DejaVuSans-79"/>
      </g>
     </g>
    </g>
    <g id="xtick_32">
     <g id="line2d_32">
      <path clip-path="url(#p208c30e91b)" d="M 442.8 363.6 
L 486.163634 637.387208 
" style="fill:none;stroke:#b0b0b0;stroke-linecap:square;stroke-width:0.8;"/>
     </g>
     <g id="text_32">
      <!-- VSM -->
      <g transform="translate(477.445122 653.97422)scale(0.1 -0.1)">
       <use xlink:href="#DejaVuSans-86"/>
       <use x="68.408203" xlink:href="#DejaVuSans-83"/>
       <use x="131.884766" xlink:href="#DejaVuSans-77"/>
      </g>
     </g>
    </g>
    <g id="xtick_33">
     <g id="line2d_33">
      <path clip-path="url(#p208c30e91b)" d="M 442.8 363.6 
L 528.459511 627.232866 
" style="fill:none;stroke:#b0b0b0;stroke-linecap:square;stroke-width:0.8;"/>
     </g>
     <g id="text_33">
      <!-- ATT -->
      <g transform="translate(523.732624 643.307033)scale(0.1 -0.1)">
       <use xlink:href="#DejaVuSans-65"/>
       <use x="60.658203" xlink:href="#DejaVuSans-84"/>
       <use x="119.992188" xlink:href="#DejaVuSans-84"/>
      </g>
     </g>
    </g>
    <g id="xtick_34">
     <g id="line2d_34">
      <path clip-path="url(#p208c30e91b)" d="M 442.8 363.6 
L 568.646167 610.587009 
" style="fill:none;stroke:#b0b0b0;stroke-linecap:square;stroke-width:0.8;"/>
     </g>
     <g id="text_34">
      <!-- MUY -->
      <g transform="translate(563.97469 625.820475)scale(0.1 -0.1)">
       <use xlink:href="#DejaVuSans-77"/>
       <use x="86.279297" xlink:href="#DejaVuSans-85"/>
       <use x="159.472656" xlink:href="#DejaVuSans-89"/>
      </g>
     </g>
    </g>
    <g id="xtick_35">
     <g id="line2d_35">
      <path clip-path="url(#p208c30e91b)" d="M 442.8 363.6 
L 605.734072 587.859511 
" style="fill:none;stroke:#b0b0b0;stroke-linecap:square;stroke-width:0.8;"/>
     </g>
     <g id="text_35">
      <!-- ZMS -->
      <g transform="translate(603.049784 601.945124)scale(0.1 -0.1)">
       <use xlink:href="#DejaVuSans-90"/>
       <use x="68.505859" xlink:href="#DejaVuSans-77"/>
       <use x="154.785156" xlink:href="#DejaVuSans-83"/>
      </g>
     </g>
    </g>
    <g id="xtick_36">
     <g id="line2d_36">
      <path clip-path="url(#p208c30e91b)" d="M 442.8 363.6 
L 638.81 559.61 
" style="fill:none;stroke:#b0b0b0;stroke-linecap:square;stroke-width:0.8;"/>
     </g>
     <g id="text_36">
      <!-- XML -->
      <g transform="translate(638.184495 572.26887)scale(0.1 -0.1)">
       <use xlink:href="#DejaVuSans-88"/>
       <use x="68.505859" xlink:href="#DejaVuSans-77"/>
       <use x="154.785156" xlink:href="#DejaVuSans-76"/>
      </g>
     </g>
    </g>
    <g id="xtick_37">
     <g id="line2d_37">
      <path clip-path="url(#p208c30e91b)" d="M 442.8 363.6 
L 667.059511 526.534072 
" style="fill:none;stroke:#b0b0b0;stroke-linecap:square;stroke-width:0.8;"/>
     </g>
     <g id="text_37">
      <!-- ENY -->
      <g transform="translate(668.431843 537.52244)scale(0.1 -0.1)">
       <use xlink:href="#DejaVuSans-69"/>
       <use x="63.183594" xlink:href="#DejaVuSans-78"/>
       <use x="137.988281" xlink:href="#DejaVuSans-89"/>
      </g>
     </g>
    </g>
    <g id="xtick_38">
     <g id="line2d_38">
      <path clip-path="url(#p208c30e91b)" d="M 442.8 363.6 
L 689.787009 489.446167 
" style="fill:none;stroke:#b0b0b0;stroke-linecap:square;stroke-width:0.8;"/>
     </g>
     <g id="text_38">
      <!-- MAJ -->
      <g transform="translate(693.051725 498.561409)scale(0.1 -0.1)">
       <use xlink:href="#DejaVuSans-77"/>
       <use x="86.279297" xlink:href="#DejaVuSans-65"/>
       <use x="154.6875" xlink:href="#DejaVuSans-74"/>
      </g>
     </g>
    </g>
    <g id="xtick_39">
     <g id="line2d_39">
      <path clip-path="url(#p208c30e91b)" d="M 442.8 363.6 
L 706.432866 449.259511 
" style="fill:none;stroke:#b0b0b0;stroke-linecap:square;stroke-width:0.8;"/>
     </g>
     <g id="text_39">
      <!-- DTJ -->
      <g transform="translate(711.368751 456.345124)scale(0.1 -0.1)">
       <use xlink:href="#DejaVuSans-68"/>
       <use x="77.001953" xlink:href="#DejaVuSans-84"/>
       <use x="138.085938" xlink:href="#DejaVuSans-74"/>
      </g>
     </g>
    </g>
    <g id="xtick_40">
     <g id="line2d_40">
      <path clip-path="url(#p208c30e91b)" d="M 442.8 363.6 
L 716.587208 406.963634 
" style="fill:none;stroke:#b0b0b0;stroke-linecap:square;stroke-width:0.8;"/>
     </g>
     <g id="text_40">
      <!-- WYG -->
      <g transform="translate(718.54297 411.913091)scale(0.1 -0.1)">
       <use xlink:href="#DejaVuSans-87"/>
       <use x="98.876953" xlink:href="#DejaVuSans-89"/>
       <use x="159.960938" xlink:href="#DejaVuSans-71"/>
      </g>
     </g>
    </g>
   </g>
   <g id="matplotlib.axis_2">
    <g id="ytick_1">
     <g id="line2d_41">
      <path clip-path="url(#p208c30e91b)" d="M 442.8 363.6 
C 442.8 363.6 442.8 363.6 442.8 363.6 
C 442.8 363.6 442.8 363.6 442.8 363.6 
C 442.8 363.6 442.8 363.6 442.8 363.6 
C 442.8 363.6 442.8 363.6 442.8 363.6 
C 442.8 363.6 442.8 363.6 442.8 363.6 
C 442.8 363.6 442.8 363.6 442.8 363.6 
C 442.8 363.6 442.8 363.6 442.8 363.6 
C 442.8 363.6 442.8 363.6 442.8 363.6 
C 442.8 363.6 442.8 363.6 442.8 363.6 
C 442.8 363.6 442.8 363.6 442.8 363.6 
C 442.8 363.6 442.8 363.6 442.8 363.6 
C 442.8 363.6 442.8 363.6 442.8 363.6 
C 442.8 363.6 442.8 363.6 442.8 363.6 
C 442.8 363.6 442.8 363.6 442.8 363.6 
C 442.8 363.6 442.8 363.6 442.8 363.6 
C 442.8 363.6 442.8 363.6 442.8 363.6 
" style="fill:none;stroke:#b0b0b0;stroke-linecap:square;stroke-width:0.8;"/>
     </g>
     <g id="text_41">
      <!-- -230 -->
      <g style="fill:#ff0000;" transform="translate(442.8 361.520312)scale(0.1 -0.1)">
       <defs>
        <path d="M 4.890625 31.390625 
L 31.203125 31.390625 
L 31.203125 23.390625 
L 4.890625 23.390625 
z
" id="DejaVuSans-45"/>
        <path d="M 19.1875 8.296875 
L 53.609375 8.296875 
L 53.609375 0 
L 7.328125 0 
L 7.328125 8.296875 
Q 12.9375 14.109375 22.625 23.890625 
Q 32.328125 33.6875 34.8125 36.53125 
Q 39.546875 41.84375 41.421875 45.53125 
Q 43.3125 49.21875 43.3125 52.78125 
Q 43.3125 58.59375 39.234375 62.25 
Q 35.15625 65.921875 28.609375 65.921875 
Q 23.96875 65.921875 18.8125 64.3125 
Q 13.671875 62.703125 7.8125 59.421875 
L 7.8125 69.390625 
Q 13.765625 71.78125 18.9375 73 
Q 24.125 74.21875 28.421875 74.21875 
Q 39.75 74.21875 46.484375 68.546875 
Q 53.21875 62.890625 53.21875 53.421875 
Q 53.21875 48.921875 51.53125 44.890625 
Q 49.859375 40.875 45.40625 35.40625 
Q 44.1875 33.984375 37.640625 27.21875 
Q 31.109375 20.453125 19.1875 8.296875 
z
" id="DejaVuSans-50"/>
        <path d="M 40.578125 39.3125 
Q 47.65625 37.796875 51.625 33 
Q 55.609375 28.21875 55.609375 21.1875 
Q 55.609375 10.40625 48.1875 4.484375 
Q 40.765625 -1.421875 27.09375 -1.421875 
Q 22.515625 -1.421875 17.65625 -0.515625 
Q 12.796875 0.390625 7.625 2.203125 
L 7.625 11.71875 
Q 11.71875 9.328125 16.59375 8.109375 
Q 21.484375 6.890625 26.8125 6.890625 
Q 36.078125 6.890625 40.9375 10.546875 
Q 45.796875 14.203125 45.796875 21.1875 
Q 45.796875 27.640625 41.28125 31.265625 
Q 36.765625 34.90625 28.71875 34.90625 
L 20.21875 34.90625 
L 20.21875 43.015625 
L 29.109375 43.015625 
Q 36.375 43.015625 40.234375 45.921875 
Q 44.09375 48.828125 44.09375 54.296875 
Q 44.09375 59.90625 40.109375 62.90625 
Q 36.140625 65.921875 28.71875 65.921875 
Q 24.65625 65.921875 20.015625 65.03125 
Q 15.375 64.15625 9.8125 62.3125 
L 9.8125 71.09375 
Q 15.4375 72.65625 20.34375 73.4375 
Q 25.25 74.21875 29.59375 74.21875 
Q 40.828125 74.21875 47.359375 69.109375 
Q 53.90625 64.015625 53.90625 55.328125 
Q 53.90625 49.265625 50.4375 45.09375 
Q 46.96875 40.921875 40.578125 39.3125 
z
" id="DejaVuSans-51"/>
        <path d="M 31.78125 66.40625 
Q 24.171875 66.40625 20.328125 58.90625 
Q 16.5 51.421875 16.5 36.375 
Q 16.5 21.390625 20.328125 13.890625 
Q 24.171875 6.390625 31.78125 6.390625 
Q 39.453125 6.390625 43.28125 13.890625 
Q 47.125 21.390625 47.125 36.375 
Q 47.125 51.421875 43.28125 58.90625 
Q 39.453125 66.40625 31.78125 66.40625 
z
M 31.78125 74.21875 
Q 44.046875 74.21875 50.515625 64.515625 
Q 56.984375 54.828125 56.984375 36.375 
Q 56.984375 17.96875 50.515625 8.265625 
Q 44.046875 -1.421875 31.78125 -1.421875 
Q 19.53125 -1.421875 13.0625 8.265625 
Q 6.59375 17.96875 6.59375 36.375 
Q 6.59375 54.828125 13.0625 64.515625 
Q 19.53125 74.21875 31.78125 74.21875 
z
" id="DejaVuSans-48"/>
       </defs>
       <use xlink:href="#DejaVuSans-45"/>
       <use x="36.083984" xlink:href="#DejaVuSans-50"/>
       <use x="99.707031" xlink:href="#DejaVuSans-51"/>
       <use x="163.330078" xlink:href="#DejaVuSans-48"/>
      </g>
     </g>
    </g>
    <g id="ytick_2">
     <g id="line2d_42">
      <path clip-path="url(#p208c30e91b)" d="M 489 363.6 
C 489 357.533072 487.804947 351.525136 485.483234 345.920025 
C 483.161521 340.314914 479.7583 335.221633 475.468333 330.931667 
C 471.178367 326.6417 466.085086 323.238479 460.479975 320.916766 
C 454.874864 318.595053 448.866928 317.4 442.8 317.4 
C 436.733072 317.4 430.725136 318.595053 425.120025 320.916766 
C 419.514914 323.238479 414.421633 326.6417 410.131667 330.931667 
C 405.8417 335.221633 402.438479 340.314914 400.116766 345.920025 
C 397.795053 351.525136 396.6 357.533072 396.6 363.6 
C 396.6 369.666928 397.795053 375.674864 400.116766 381.279975 
C 402.438479 386.885086 405.8417 391.978367 410.131667 396.268333 
C 414.421633 400.5583 419.514914 403.961521 425.120025 406.283234 
C 430.725136 408.604947 436.733072 409.8 442.8 409.8 
C 448.866928 409.8 454.874864 408.604947 460.479975 406.283234 
C 466.085086 403.961521 471.178367 400.5583 475.468333 396.268333 
C 479.7583 391.978367 483.161521 386.885086 485.483234 381.279975 
C 487.804947 375.674864 489 369.666928 489 363.6 
" style="fill:none;stroke:#b0b0b0;stroke-linecap:square;stroke-width:0.8;"/>
     </g>
     <g id="text_42">
      <!-- 0 -->
      <g style="fill:#ff0000;" transform="translate(482.810374 338.420312)scale(0.1 -0.1)">
       <use xlink:href="#DejaVuSans-48"/>
      </g>
     </g>
    </g>
    <g id="ytick_3">
     <g id="line2d_43">
      <path clip-path="url(#p208c30e91b)" d="M 535.2 363.6 
C 535.2 351.466143 532.809895 339.450273 528.166469 328.240051 
C 523.523043 317.029829 516.716599 306.843266 508.136667 298.263333 
C 499.556734 289.683401 489.370171 282.876957 478.159949 278.233531 
C 466.949727 273.590105 454.933857 271.2 442.8 271.2 
C 430.666143 271.2 418.650273 273.590105 407.440051 278.233531 
C 396.229829 282.876957 386.043266 289.683401 377.463333 298.263333 
C 368.883401 306.843266 362.076957 317.029829 357.433531 328.240051 
C 352.790105 339.450273 350.4 351.466143 350.4 363.6 
C 350.4 375.733857 352.790105 387.749727 357.433531 398.959949 
C 362.076957 410.170171 368.883401 420.356734 377.463333 428.936667 
C 386.043266 437.516599 396.229829 444.323043 407.440051 448.966469 
C 418.650273 453.609895 430.666143 456 442.8 456 
C 454.933857 456 466.949727 453.609895 478.159949 448.966469 
C 489.370171 444.323043 499.556734 437.516599 508.136667 428.936667 
C 516.716599 420.356734 523.523043 410.170171 528.166469 398.959949 
C 532.809895 387.749727 535.2 375.733857 535.2 363.6 
" style="fill:none;stroke:#b0b0b0;stroke-linecap:square;stroke-width:0.8;"/>
     </g>
     <g id="text_43">
      <!-- 230 -->
      <g style="fill:#ff0000;" transform="translate(522.820747 315.320312)scale(0.1 -0.1)">
       <use xlink:href="#DejaVuSans-50"/>
       <use x="63.623047" xlink:href="#DejaVuSans-51"/>
       <use x="127.246094" xlink:href="#DejaVuSans-48"/>
      </g>
     </g>
    </g>
    <g id="ytick_4">
     <g id="line2d_44">
      <path clip-path="url(#p208c30e91b)" d="M 581.4 363.6 
C 581.4 345.399215 577.814842 327.375409 570.849703 310.560076 
C 563.884564 293.744743 553.674899 278.464899 540.805 265.595 
C 527.935101 252.725101 512.655257 242.515436 495.839924 235.550297 
C 479.024591 228.585158 461.000785 225 442.8 225 
C 424.599215 225 406.575409 228.585158 389.760076 235.550297 
C 372.944743 242.515436 357.664899 252.725101 344.795 265.595 
C 331.925101 278.464899 321.715436 293.744743 314.750297 310.560076 
C 307.785158 327.375409 304.2 345.399215 304.2 363.6 
C 304.2 381.800785 307.785158 399.824591 314.750297 416.639924 
C 321.715436 433.455257 331.925101 448.735101 344.795 461.605 
C 357.664899 474.474899 372.944743 484.684564 389.760076 491.649703 
C 406.575409 498.614842 424.599215 502.2 442.8 502.2 
C 461.000785 502.2 479.024591 498.614842 495.839924 491.649703 
C 512.655257 484.684564 527.935101 474.474899 540.805 461.605 
C 553.674899 448.735101 563.884564 433.455257 570.849703 416.639924 
C 577.814842 399.824591 581.4 381.800785 581.4 363.6 
" style="fill:none;stroke:#b0b0b0;stroke-linecap:square;stroke-width:0.8;"/>
     </g>
     <g id="text_44">
      <!-- 460 -->
      <g style="fill:#ff0000;" transform="translate(562.831121 292.220312)scale(0.1 -0.1)">
       <defs>
        <path d="M 37.796875 64.3125 
L 12.890625 25.390625 
L 37.796875 25.390625 
z
M 35.203125 72.90625 
L 47.609375 72.90625 
L 47.609375 25.390625 
L 58.015625 25.390625 
L 58.015625 17.1875 
L 47.609375 17.1875 
L 47.609375 0 
L 37.796875 0 
L 37.796875 17.1875 
L 4.890625 17.1875 
L 4.890625 26.703125 
z
" id="DejaVuSans-52"/>
        <path d="M 33.015625 40.375 
Q 26.375 40.375 22.484375 35.828125 
Q 18.609375 31.296875 18.609375 23.390625 
Q 18.609375 15.53125 22.484375 10.953125 
Q 26.375 6.390625 33.015625 6.390625 
Q 39.65625 6.390625 43.53125 10.953125 
Q 47.40625 15.53125 47.40625 23.390625 
Q 47.40625 31.296875 43.53125 35.828125 
Q 39.65625 40.375 33.015625 40.375 
z
M 52.59375 71.296875 
L 52.59375 62.3125 
Q 48.875 64.0625 45.09375 64.984375 
Q 41.3125 65.921875 37.59375 65.921875 
Q 27.828125 65.921875 22.671875 59.328125 
Q 17.53125 52.734375 16.796875 39.40625 
Q 19.671875 43.65625 24.015625 45.921875 
Q 28.375 48.1875 33.59375 48.1875 
Q 44.578125 48.1875 50.953125 41.515625 
Q 57.328125 34.859375 57.328125 23.390625 
Q 57.328125 12.15625 50.6875 5.359375 
Q 44.046875 -1.421875 33.015625 -1.421875 
Q 20.359375 -1.421875 13.671875 8.265625 
Q 6.984375 17.96875 6.984375 36.375 
Q 6.984375 53.65625 15.1875 63.9375 
Q 23.390625 74.21875 37.203125 74.21875 
Q 40.921875 74.21875 44.703125 73.484375 
Q 48.484375 72.75 52.59375 71.296875 
z
" id="DejaVuSans-54"/>
       </defs>
       <use xlink:href="#DejaVuSans-52"/>
       <use x="63.623047" xlink:href="#DejaVuSans-54"/>
       <use x="127.246094" xlink:href="#DejaVuSans-48"/>
      </g>
     </g>
    </g>
    <g id="ytick_5">
     <g id="line2d_45">
      <path clip-path="url(#p208c30e91b)" d="M 627.6 363.6 
C 627.6 339.332286 622.81979 315.300546 613.532938 292.880102 
C 604.246086 270.459658 590.633198 250.086532 573.473333 232.926667 
C 556.313468 215.766802 535.940342 202.153914 513.519898 192.867062 
C 491.099454 183.58021 467.067714 178.8 442.8 178.8 
C 418.532286 178.8 394.500546 183.58021 372.080102 192.867062 
C 349.659658 202.153914 329.286532 215.766802 312.126667 232.926667 
C 294.966802 250.086532 281.353914 270.459658 272.067062 292.880102 
C 262.78021 315.300546 258 339.332286 258 363.6 
C 258 387.867714 262.78021 411.899454 272.067062 434.319898 
C 281.353914 456.740342 294.966802 477.113468 312.126667 494.273333 
C 329.286532 511.433198 349.659658 525.046086 372.080102 534.332938 
C 394.500546 543.61979 418.532286 548.4 442.8 548.4 
C 467.067714 548.4 491.099454 543.61979 513.519898 534.332938 
C 535.940342 525.046086 556.313468 511.433198 573.473333 494.273333 
C 590.633198 477.113468 604.246086 456.740342 613.532938 434.319898 
C 622.81979 411.899454 627.6 387.867714 627.6 363.6 
" style="fill:none;stroke:#b0b0b0;stroke-linecap:square;stroke-width:0.8;"/>
     </g>
     <g id="text_45">
      <!-- 690 -->
      <g style="fill:#ff0000;" transform="translate(602.841495 269.120312)scale(0.1 -0.1)">
       <defs>
        <path d="M 10.984375 1.515625 
L 10.984375 10.5 
Q 14.703125 8.734375 18.5 7.8125 
Q 22.3125 6.890625 25.984375 6.890625 
Q 35.75 6.890625 40.890625 13.453125 
Q 46.046875 20.015625 46.78125 33.40625 
Q 43.953125 29.203125 39.59375 26.953125 
Q 35.25 24.703125 29.984375 24.703125 
Q 19.046875 24.703125 12.671875 31.3125 
Q 6.296875 37.9375 6.296875 49.421875 
Q 6.296875 60.640625 12.9375 67.421875 
Q 19.578125 74.21875 30.609375 74.21875 
Q 43.265625 74.21875 49.921875 64.515625 
Q 56.59375 54.828125 56.59375 36.375 
Q 56.59375 19.140625 48.40625 8.859375 
Q 40.234375 -1.421875 26.421875 -1.421875 
Q 22.703125 -1.421875 18.890625 -0.6875 
Q 15.09375 0.046875 10.984375 1.515625 
z
M 30.609375 32.421875 
Q 37.25 32.421875 41.125 36.953125 
Q 45.015625 41.5 45.015625 49.421875 
Q 45.015625 57.28125 41.125 61.84375 
Q 37.25 66.40625 30.609375 66.40625 
Q 23.96875 66.40625 20.09375 61.84375 
Q 16.21875 57.28125 16.21875 49.421875 
Q 16.21875 41.5 20.09375 36.953125 
Q 23.96875 32.421875 30.609375 32.421875 
z
" id="DejaVuSans-57"/>
       </defs>
       <use xlink:href="#DejaVuSans-54"/>
       <use x="63.623047" xlink:href="#DejaVuSans-57"/>
       <use x="127.246094" xlink:href="#DejaVuSans-48"/>
      </g>
     </g>
    </g>
    <g id="ytick_6">
     <g id="line2d_46">
      <path clip-path="url(#p208c30e91b)" d="M 673.8 363.6 
C 673.8 333.265358 667.824737 303.225682 656.216172 275.200127 
C 644.607607 247.174572 627.591498 221.708165 606.141666 200.258334 
C 584.691835 178.808502 559.225428 161.792393 531.199873 150.183828 
C 503.174318 138.575263 473.134642 132.6 442.8 132.6 
C 412.465358 132.6 382.425682 138.575263 354.400127 150.183828 
C 326.374572 161.792393 300.908165 178.808502 279.458334 200.258334 
C 258.008502 221.708165 240.992393 247.174572 229.383828 275.200127 
C 217.775263 303.225682 211.8 333.265358 211.8 363.6 
C 211.8 393.934642 217.775263 423.974318 229.383828 451.999873 
C 240.992393 480.025428 258.008502 505.491835 279.458334 526.941666 
C 300.908165 548.391498 326.374572 565.407607 354.400127 577.016172 
C 382.425682 588.624737 412.465358 594.6 442.8 594.6 
C 473.134642 594.6 503.174318 588.624737 531.199873 577.016172 
C 559.225428 565.407607 584.691835 548.391498 606.141666 526.941666 
C 627.591498 505.491835 644.607607 480.025428 656.216172 451.999873 
C 667.824737 423.974318 673.8 393.934642 673.8 363.6 
" style="fill:none;stroke:#b0b0b0;stroke-linecap:square;stroke-width:0.8;"/>
     </g>
     <g id="text_46">
      <!-- 920 -->
      <g style="fill:#ff0000;" transform="translate(642.851868 246.020312)scale(0.1 -0.1)">
       <use xlink:href="#DejaVuSans-57"/>
       <use x="63.623047" xlink:href="#DejaVuSans-50"/>
       <use x="127.246094" xlink:href="#DejaVuSans-48"/>
      </g>
     </g>
    </g>
    <g id="ytick_7">
     <g id="line2d_47">
      <path clip-path="url(#p208c30e91b)" d="M 720 363.6 
C 720 327.19843 712.829684 291.150818 698.899406 257.520153 
C 684.969128 223.889487 664.549797 193.329798 638.81 167.59 
C 613.070202 141.850203 582.510513 121.430872 548.879847 107.500594 
C 515.249182 93.570316 479.20157 86.4 442.8 86.4 
C 406.39843 86.4 370.350818 93.570316 336.720153 107.500594 
C 303.089487 121.430872 272.529798 141.850203 246.79 167.59 
C 221.050203 193.329798 200.630872 223.889487 186.700594 257.520153 
C 172.770316 291.150818 165.6 327.19843 165.6 363.6 
C 165.6 400.00157 172.770316 436.049182 186.700594 469.679847 
C 200.630872 503.310513 221.050203 533.870202 246.79 559.61 
C 272.529798 585.349797 303.089487 605.769128 336.720153 619.699406 
C 370.350818 633.629684 406.39843 640.8 442.8 640.8 
C 479.20157 640.8 515.249182 633.629684 548.879847 619.699406 
C 582.510513 605.769128 613.070202 585.349797 638.81 559.61 
C 664.549797 533.870202 684.969128 503.310513 698.899406 469.679847 
C 712.829684 436.049182 720 400.00157 720 363.6 
" style="fill:none;stroke:#b0b0b0;stroke-linecap:square;stroke-width:0.8;"/>
     </g>
     <g id="text_47">
      <!-- 1150 -->
      <g style="fill:#ff0000;" transform="translate(682.862242 222.920313)scale(0.1 -0.1)">
       <defs>
        <path d="M 12.40625 8.296875 
L 28.515625 8.296875 
L 28.515625 63.921875 
L 10.984375 60.40625 
L 10.984375 69.390625 
L 28.421875 72.90625 
L 38.28125 72.90625 
L 38.28125 8.296875 
L 54.390625 8.296875 
L 54.390625 0 
L 12.40625 0 
z
" id="DejaVuSans-49"/>
        <path d="M 10.796875 72.90625 
L 49.515625 72.90625 
L 49.515625 64.59375 
L 19.828125 64.59375 
L 19.828125 46.734375 
Q 21.96875 47.46875 24.109375 47.828125 
Q 26.265625 48.1875 28.421875 48.1875 
Q 40.625 48.1875 47.75 41.5 
Q 54.890625 34.8125 54.890625 23.390625 
Q 54.890625 11.625 47.5625 5.09375 
Q 40.234375 -1.421875 26.90625 -1.421875 
Q 22.3125 -1.421875 17.546875 -0.640625 
Q 12.796875 0.140625 7.71875 1.703125 
L 7.71875 11.625 
Q 12.109375 9.234375 16.796875 8.0625 
Q 21.484375 6.890625 26.703125 6.890625 
Q 35.15625 6.890625 40.078125 11.328125 
Q 45.015625 15.765625 45.015625 23.390625 
Q 45.015625 31 40.078125 35.4375 
Q 35.15625 39.890625 26.703125 39.890625 
Q 22.75 39.890625 18.8125 39.015625 
Q 14.890625 38.140625 10.796875 36.28125 
z
" id="DejaVuSans-53"/>
       </defs>
       <use xlink:href="#DejaVuSans-49"/>
       <use x="63.623047" xlink:href="#DejaVuSans-49"/>
       <use x="127.246094" xlink:href="#DejaVuSans-53"/>
       <use x="190.869141" xlink:href="#DejaVuSans-48"/>
      </g>
     </g>
    </g>
   </g>
   <g id="line2d_48">
    <path clip-path="url(#p208c30e91b)" d="M 505.130652 363.6 
L 559.000031 345.195723 
L 578.862718 319.390543 
L 496.689456 336.14195 
L 494.34496 326.150394 
L 488.571078 317.828922 
L 479.424099 313.191253 
L 497.97069 255.321425 
L 460.630681 308.722806 
L 481.428328 119.710333 
L 442.8 315.033041 
L 404.344799 120.803417 
L 426.660401 313.927423 
L 417.829642 314.592913 
L 411.959624 321.151864 
L 405.367421 326.167421 
L 395.02609 328.890223 
L 328.428883 305.325005 
L 386.229108 345.219003 
L 385.32969 354.497597 
L 294.343633 363.6 
L 382.226007 373.193978 
L 382.12728 383.313762 
L 387.93966 391.55274 
L 392.998539 399.78288 
L 400.660379 405.739621 
L 362.102833 474.670121 
L 340.462357 564.448933 
L 374.752132 573.029802 
L 421.511443 498.010658 
L 442.8 417.062123 
L 452.278961 423.447807 
L 460.884752 419.259142 
L 491.741841 459.653772 
L 473.584415 405.971112 
L 486.1121 406.9121 
L 494.082723 400.859079 
L 486.907065 386.073672 
L 499.372986 381.981677 
L 506.051531 373.618058 
L 505.130652 363.6 
" style="fill:none;stroke:#1f77b4;stroke-linecap:square;"/>
   </g>
   <g id="patch_4">
    <path d="M 720 363.6 
C 720 327.19843 712.829684 291.150818 698.899406 257.520153 
C 684.969128 223.889487 664.549797 193.329798 638.81 167.59 
C 613.070202 141.850203 582.510513 121.430872 548.879847 107.500594 
C 515.249182 93.570316 479.20157 86.4 442.8 86.4 
C 406.39843 86.4 370.350818 93.570316 336.720153 107.500594 
C 303.089487 121.430872 272.529798 141.850203 246.79 167.59 
C 221.050203 193.329798 200.630872 223.889487 186.700594 257.520153 
C 172.770316 291.150818 165.6 327.19843 165.6 363.6 
C 165.6 400.00157 172.770316 436.049182 186.700594 469.679847 
C 200.630872 503.310513 221.050203 533.870202 246.79 559.61 
C 272.529798 585.349797 303.089487 605.769128 336.720153 619.699406 
C 370.350818 633.629684 406.39843 640.8 442.8 640.8 
C 479.20157 640.8 515.249182 633.629684 548.879847 619.699406 
C 582.510513 605.769128 613.070202 585.349797 638.81 559.61 
C 664.549797 533.870202 684.969128 503.310513 698.899406 469.679847 
C 712.829684 436.049182 720 400.00157 720 363.6 
" style="fill:none;stroke:#000000;stroke-linecap:square;stroke-linejoin:miter;stroke-width:0.8;"/>
   </g>
  </g>
 </g>
 <defs>
  <clipPath id="p208c30e91b">
   <path d="M 720 363.6 
C 720 327.19843 712.829684 291.150818 698.899406 257.520153 
C 684.969128 223.889487 664.549797 193.329798 638.81 167.59 
C 613.070202 141.850203 582.510513 121.430872 548.879847 107.500594 
C 515.249182 93.570316 479.20157 86.4 442.8 86.4 
C 406.39843 86.4 370.350818 93.570316 336.720153 107.500594 
C 303.089487 121.430872 272.529798 141.850203 246.79 167.59 
C 221.050203 193.329798 200.630872 223.889487 186.700594 257.520153 
C 172.770316 291.150818 165.6 327.19843 165.6 363.6 
C 165.6 400.00157 172.770316 436.049182 186.700594 469.679847 
C 200.630872 503.310513 221.050203 533.870202 246.79 559.61 
C 272.529798 585.349797 303.089487 605.769128 336.720153 619.699406 
C 370.350818 633.629684 406.39843 640.8 442.8 640.8 
C 479.20157 640.8 515.249182 633.629684 548.879847 619.699406 
C 582.510513 605.769128 613.070202 585.349797 638.81 559.61 
C 664.549797 533.870202 684.969128 503.310513 698.899406 469.679847 
C 712.829684 436.049182 720 400.00157 720 363.6 
M 442.8 363.6 
C 442.8 363.6 442.8 363.6 442.8 363.6 
C 442.8 363.6 442.8 363.6 442.8 363.6 
C 442.8 363.6 442.8 363.6 442.8 363.6 
C 442.8 363.6 442.8 363.6 442.8 363.6 
C 442.8 363.6 442.8 363.6 442.8 363.6 
C 442.8 363.6 442.8 363.6 442.8 363.6 
C 442.8 363.6 442.8 363.6 442.8 363.6 
C 442.8 363.6 442.8 363.6 442.8 363.6 
C 442.8 363.6 442.8 363.6 442.8 363.6 
C 442.8 363.6 442.8 363.6 442.8 363.6 
C 442.8 363.6 442.8 363.6 442.8 363.6 
C 442.8 363.6 442.8 363.6 442.8 363.6 
C 442.8 363.6 442.8 363.6 442.8 363.6 
C 442.8 363.6 442.8 363.6 442.8 363.6 
C 442.8 363.6 442.8 363.6 442.8 363.6 
C 442.8 363.6 442.8 363.6 442.8 363.6 
M 720 363.6 
z
"/>
  </clipPath>
 </defs>
</svg>
